<svg width="99" height="27" viewBox="0 0 99 27" fill="none" xmlns="http://www.w3.org/2000/svg">
<g clip-path="url(#clip0_3_35)">
<path d="M33.859 2.55033L28.0818 8.19476C26.3684 9.86879 23.6879 10.0371 21.7785 8.5906L21.7762 8.58832L20.0503 6.86241L19.8657 7.04698L18.2718 8.64094L19.3411 9.71027C22.3552 12.7244 27.2421 12.7244 30.2562 9.71027L37.9041 2.06227C38.6651 1.30124 38.1262 0 37.0499 0H26.9127L20.0503 6.86241L21.7762 8.58832C23.8382 6.471 27.6881 2.55033 27.8188 2.55033H33.859Z" fill="url(#paint0_linear_3_35)"/>
<path d="M19.5974 19.6644L20.0188 20.0819L21.8646 18.2361L21.443 17.8188L19.5974 19.6644Z" fill="url(#paint1_linear_3_35)"/>
<path d="M26.8792 26.8792H37.1784C38.1949 26.8792 38.704 25.6502 37.9852 24.9315L30.2562 17.2025C27.2421 14.1884 22.3553 14.1884 19.3412 17.2025L16.8792 19.6644H19.5973L21.443 17.8188L21.8646 18.2361C23.4851 16.6156 26.1123 16.6156 27.7328 18.2361L33.8255 24.3288H28.0202L21.8646 18.2361L20.0187 20.0819L26.8792 26.8792Z" fill="url(#paint2_linear_3_35)"/>
<path d="M3.07854 0C1.94249 0 1.37355 1.37354 2.17686 2.17684L13.4564 13.4564L13.5067 13.5067L13.4899 13.5235L2.08194 24.9314C1.36319 25.6502 1.87224 26.8792 2.88871 26.8792H13.2215L20.0187 20.0819L19.5973 19.6644H16.8792L12.2148 24.3288H6.30874L16.3744 14.2631C16.82 13.8176 16.82 13.0952 16.3744 12.6496L6.27518 2.55033H12.1812L18.2718 8.64093L19.8658 7.04697L20.0503 6.86241L13.1879 0H3.07854Z" fill="url(#paint3_linear_3_35)"/>
</g>
<path d="M46.5605 18.138C49.6367 18.138 51.1748 16.3685 51.1748 12.8294C51.1748 9.74738 49.6367 8.20636 46.5605 8.20636H43.6162V18.138H46.5605ZM41.9902 19.4564V6.888H46.5605C50.7207 6.888 52.8008 8.86847 52.8008 12.8294C52.8008 17.2474 50.7207 19.4564 46.5605 19.4564H41.9902ZM58.8037 10.2278C61.4287 10.2278 62.7412 11.5257 62.7412 14.1214C62.7412 14.4905 62.7148 14.886 62.6621 15.3079H56.1846C56.1846 17.1946 57.2861 18.138 59.4893 18.138C60.5381 18.138 61.4697 18.0208 62.2842 17.7864V19.1048C61.4697 19.3392 60.4795 19.4564 59.3135 19.4564C56.1436 19.4564 54.5586 17.8831 54.5586 14.7366C54.5586 11.7308 55.9736 10.2278 58.8037 10.2278ZM56.1846 13.9544H61.1768C61.1416 12.3372 60.3506 11.5286 58.8037 11.5286C57.1631 11.5286 56.29 12.3372 56.1846 13.9544ZM64.8418 19.0169V17.6107C65.9258 17.9622 67.0215 18.138 68.1289 18.138C69.5996 18.138 70.335 17.6985 70.335 16.8196C70.335 15.9993 69.8223 15.5892 68.7969 15.5892H67.4785C65.4863 15.5892 64.4902 14.681 64.4902 12.8646C64.4902 11.1068 65.7705 10.2278 68.3311 10.2278C69.4326 10.2278 70.5254 10.3743 71.6094 10.6673V12.0735C70.5254 11.722 69.4326 11.5462 68.3311 11.5462C66.7959 11.5462 66.0283 11.9857 66.0283 12.8646C66.0283 13.6849 66.5117 14.095 67.4785 14.095H68.7969C70.9062 14.095 71.9609 15.0032 71.9609 16.8196C71.9609 18.5775 70.6836 19.4564 68.1289 19.4564C67.0215 19.4564 65.9258 19.3099 64.8418 19.0169ZM75.96 10.2278V19.4564H74.334V10.2278H75.96ZM75.96 6.888V8.42609H74.334V6.888H75.96ZM84.9512 11.7923C84.3945 11.6517 83.7061 11.5814 82.8857 11.5814C80.9229 11.5814 79.9414 12.6448 79.9414 14.7718C79.9414 16.9573 80.8701 18.0501 82.7275 18.0501C83.5713 18.0501 84.3125 17.8919 84.9512 17.5755V11.7923ZM86.5771 19.4564C86.5771 21.6829 85.1621 22.7962 82.332 22.7962C81.1953 22.7962 80.1875 22.6497 79.3086 22.3568V21.0384C80.2051 21.3314 81.2188 21.4778 82.3496 21.4778C84.084 21.4778 84.9512 20.804 84.9512 19.4564V19.0169C84.2598 19.3099 83.5156 19.4564 82.7188 19.4564C79.8008 19.4564 78.3418 17.9007 78.3418 14.7894C78.3418 11.7484 79.8799 10.2278 82.9561 10.2278C84.2041 10.2278 85.4111 10.3538 86.5771 10.6058V19.4564ZM89.2227 19.4564V10.2278H90.3213L90.6113 11.4056C91.5547 10.6204 92.5918 10.2278 93.7227 10.2278C96.0254 10.2278 97.1768 11.3734 97.1768 13.6644V19.4564H95.5508V13.638C95.5508 12.2669 94.8682 11.5814 93.5029 11.5814C92.5713 11.5814 91.6865 11.971 90.8486 12.7503V19.4564H89.2227Z" fill="#15EAFF"/>
<defs>
<linearGradient id="paint0_linear_3_35" x1="19" y1="8" x2="38" y2="1" gradientUnits="userSpaceOnUse">
<stop stop-color="#6469FF"/>
<stop offset="1" stop-color="#11F0FF"/>
</linearGradient>
<linearGradient id="paint1_linear_3_35" x1="20" y1="20" x2="21.5" y2="18" gradientUnits="userSpaceOnUse">
<stop stop-color="#6968F9"/>
<stop offset="1" stop-color="#6273FA"/>
</linearGradient>
<linearGradient id="paint2_linear_3_35" x1="18.5" y1="19.5" x2="38" y2="26" gradientUnits="userSpaceOnUse">
<stop stop-color="#6D61F9"/>
<stop offset="1" stop-color="#16E8FF"/>
</linearGradient>
<linearGradient id="paint3_linear_3_35" x1="19.5" y1="7.5" x2="2" y2="26.5" gradientUnits="userSpaceOnUse">
<stop stop-color="#6469FF"/>
<stop offset="1" stop-color="#7857F2"/>
</linearGradient>
<clipPath id="clip0_3_35">
<rect width="40" height="26.9127" fill="white"/>
</clipPath>
</defs>
</svg>
