<svg width="40" height="27" viewBox="0 0 40 27" fill="none" xmlns="http://www.w3.org/2000/svg">
<g clip-path="url(#clip0_7_85)">
<path d="M33.859 2.55033L28.0818 8.19476C26.3684 9.86879 23.6879 10.0371 21.7785 8.5906L21.7762 8.58832L20.0503 6.86241L19.8657 7.04698L18.2718 8.64094L19.3411 9.71027C22.3552 12.7244 27.2421 12.7244 30.2562 9.71027L37.9041 2.06227C38.6651 1.30124 38.1262 0 37.0499 0H26.9127L20.0503 6.86241L21.7762 8.58832C23.8382 6.471 27.6881 2.55033 27.8188 2.55033H33.859Z" fill="#C0C0C0"/>
<path d="M19.5974 19.6644L20.0188 20.0819L21.8646 18.2361L21.443 17.8188L19.5974 19.6644Z" fill="#C0C0C0"/>
<path d="M26.8792 26.8792H37.1784C38.1949 26.8792 38.704 25.6502 37.9852 24.9315L30.2562 17.2025C27.2421 14.1884 22.3553 14.1884 19.3412 17.2025L16.8792 19.6644H19.5973L21.443 17.8188L21.8646 18.2361C23.4851 16.6156 26.1123 16.6156 27.7328 18.2361L33.8255 24.3288H28.0202L21.8646 18.2361L20.0187 20.0819L26.8792 26.8792Z" fill="#C0C0C0"/>
<path d="M3.07854 0C1.94249 0 1.37355 1.37354 2.17686 2.17684L13.4564 13.4564L13.5067 13.5067L13.4899 13.5235L2.08194 24.9314C1.36319 25.6502 1.87224 26.8792 2.88871 26.8792H13.2215L20.0187 20.0819L19.5973 19.6644H16.8792L12.2148 24.3288H6.30874L16.3744 14.2631C16.82 13.8176 16.82 13.0952 16.3744 12.6496L6.27518 2.55033H12.1812L18.2718 8.64093L19.8658 7.04697L20.0503 6.86241L13.1879 0H3.07854Z" fill="#C0C0C0"/>
</g>
<defs>
<clipPath id="clip0_7_85">
<rect width="40" height="26.9127" fill="white"/>
</clipPath>
</defs>
</svg>
