<svg width="40" height="28" viewBox="0 0 40 28" fill="none" xmlns="http://www.w3.org/2000/svg">
<g clip-path="url(#clip0_3_41)">
<path d="M33.859 3.46305L28.0818 9.10748C26.3684 10.7815 23.6879 10.9498 21.7785 9.50332L21.7762 9.50104L20.0503 7.77513L19.8657 7.9597L18.2718 9.55366L19.3411 10.623C22.3552 13.6371 27.2421 13.6371 30.2562 10.623L37.9041 2.97499C38.6651 2.21396 38.1262 0.91272 37.0499 0.91272H26.9127L20.0503 7.77513L21.7762 9.50104C23.8382 7.38372 27.6881 3.46305 27.8188 3.46305H33.859Z" fill="url(#paint0_linear_3_41)"/>
<path d="M19.5974 20.5771L20.0188 20.9947L21.8646 19.1488L21.443 18.7315L19.5974 20.5771Z" fill="url(#paint1_linear_3_41)"/>
<path d="M26.8792 27.7919H37.1784C38.1949 27.7919 38.704 26.563 37.9852 25.8442L30.2562 18.1152C27.2421 15.1011 22.3553 15.1011 19.3412 18.1152L16.8792 20.5771H19.5973L21.443 18.7315L21.8646 19.1488C23.4851 17.5283 26.1123 17.5283 27.7328 19.1488L33.8255 25.2416H28.0202L21.8646 19.1488L20.0187 20.9946L26.8792 27.7919Z" fill="url(#paint2_linear_3_41)"/>
<path d="M3.07854 0.91272C1.94249 0.91272 1.37355 2.28626 2.17686 3.08956L13.4564 14.3691L13.5067 14.4194L13.4899 14.4362L2.08194 25.8442C1.36319 26.563 1.87224 27.7919 2.88871 27.7919H13.2215L20.0187 20.9946L19.5973 20.5771H16.8792L12.2148 25.2415H6.30874L16.3744 15.1759C16.82 14.7303 16.82 14.0079 16.3744 13.5623L6.27518 3.46305H12.1812L18.2718 9.55365L19.8658 7.95969L20.0503 7.77513L13.1879 0.91272H3.07854Z" fill="url(#paint3_linear_3_41)"/>
</g>
<defs>
<linearGradient id="paint0_linear_3_41" x1="19" y1="8.91272" x2="38" y2="1.91272" gradientUnits="userSpaceOnUse">
<stop stop-color="#6469FF"/>
<stop offset="1" stop-color="#11F0FF"/>
</linearGradient>
<linearGradient id="paint1_linear_3_41" x1="20" y1="20.9127" x2="21.5" y2="18.9127" gradientUnits="userSpaceOnUse">
<stop stop-color="#6968F9"/>
<stop offset="1" stop-color="#6273FA"/>
</linearGradient>
<linearGradient id="paint2_linear_3_41" x1="18.5" y1="20.4127" x2="38" y2="26.9127" gradientUnits="userSpaceOnUse">
<stop stop-color="#6D61F9"/>
<stop offset="1" stop-color="#16E8FF"/>
</linearGradient>
<linearGradient id="paint3_linear_3_41" x1="19.5" y1="8.41272" x2="2" y2="27.4127" gradientUnits="userSpaceOnUse">
<stop stop-color="#6469FF"/>
<stop offset="1" stop-color="#7857F2"/>
</linearGradient>
<clipPath id="clip0_3_41">
<rect width="40" height="26.9127" fill="white" transform="translate(0 0.91272)"/>
</clipPath>
</defs>
</svg>
