<svg width="16" height="10" viewBox="0 0 16 10" fill="none" xmlns="http://www.w3.org/2000/svg">
<path d="M15.7776 0.961914H13.9777C13.8754 0.961914 13.7777 1.00636 13.7088 1.08413L8.84451 6.69059L8 7.5351L7.15568 6.69059L2.29141 1.08413C2.22475 1.00636 2.12698 0.961914 2.02254 0.961914H0.222601C0.0714952 0.961914 -0.010724 1.14191 0.0892724 1.25524L7.46456 9.75493C7.53123 9.83184 7.61365 9.89352 7.70624 9.93579C7.79883 9.97807 7.89942 9.99995 8.00121 9.99995C8.10299 9.99995 8.20358 9.97807 8.29617 9.93579C8.38876 9.89352 8.47119 9.83184 8.53785 9.75493L15.9109 1.25524C16.0109 1.13969 15.9287 0.961914 15.7776 0.961914Z" fill="#D9D9D9"/>
</svg>
