<svg width="14" height="14" viewBox="0 0 14 14" fill="none" xmlns="http://www.w3.org/2000/svg">
<path d="M9.71001 4.5282C9.71001 4.45945 9.65376 4.4032 9.58501 4.4032L8.55376 4.40789L7.00063 6.25945L5.44907 4.40945L4.41626 4.40476C4.34751 4.40476 4.29126 4.45945 4.29126 4.52976C4.29126 4.55945 4.3022 4.58757 4.32095 4.61101L6.35376 7.03289L4.32095 9.4532C4.30207 9.4761 4.29159 9.50477 4.29126 9.53445C4.29126 9.6032 4.34751 9.65945 4.41626 9.65945L5.44907 9.65476L7.00063 7.8032L8.5522 9.6532L9.58345 9.65789C9.6522 9.65789 9.70845 9.6032 9.70845 9.53289C9.70845 9.5032 9.69751 9.47507 9.67876 9.45164L7.64907 7.03132L9.68188 4.60945C9.70063 4.58757 9.71001 4.55789 9.71001 4.5282Z" fill="#D93025"/>
<path d="M7 0C3.13438 0 0 3.13438 0 7C0 10.8656 3.13438 14 7 14C10.8656 14 14 10.8656 14 7C14 3.13438 10.8656 0 7 0ZM7 12.8125C3.79063 12.8125 1.1875 10.2094 1.1875 7C1.1875 3.79063 3.79063 1.1875 7 1.1875C10.2094 1.1875 12.8125 3.79063 12.8125 7C12.8125 10.2094 10.2094 12.8125 7 12.8125Z" fill="#D93025"/>
</svg>
