<svg width="13" height="13" viewBox="0 0 13 13" fill="none" xmlns="http://www.w3.org/2000/svg">
<path data-svg-property="fill" fill-rule="evenodd" clip-rule="evenodd" d="M0.75 5C0.551088 5 0.360322 4.92098 0.21967 4.78033C0.0790175 4.63968 0 4.44891 0 4.25V3.75C0 3.55109 0.0790175 3.36032 0.21967 3.21967C0.360322 3.07902 0.551088 3 0.75 3H9.25C9.44891 3 9.63968 3.07902 9.78033 3.21967C9.92098 3.36032 10 3.55109 10 3.75V4.25C10 4.44891 9.92098 4.63968 9.78033 4.78033C9.63968 4.92098 9.44891 5 9.25 5H0.75ZM4.75 10C4.55109 10 4.36032 9.92098 4.21967 9.78033C4.07902 9.63968 4 9.44891 4 9.25V8.75C4 8.55109 4.07902 8.36032 4.21967 8.21967C4.36032 8.07902 4.55109 8 4.75 8H9.25C9.44891 8 9.63968 8.07902 9.78033 8.21967C9.92098 8.36032 10 8.55109 10 8.75V9.25C10 9.44891 9.92098 9.63968 9.78033 9.78033C9.63968 9.92098 9.44891 10 9.25 10H4.75Z" fill="white"/>
<path data-svg-property="fill" d="M12 12.5C12 12.6326 12.0527 12.7598 12.1464 12.8536C12.2402 12.9473 12.3674 13 12.5 13C12.6326 13 12.7598 12.9473 12.8536 12.8536C12.9473 12.7598 13 12.6326 13 12.5V0.5C13 0.367392 12.9473 0.240215 12.8536 0.146447C12.7598 0.0526785 12.6326 0 12.5 0C12.3674 0 12.2402 0.0526785 12.1464 0.146447C12.0527 0.240215 12 0.367392 12 0.5V12.5Z" fill="white"/>
</svg>
