<svg width="13" height="11" viewBox="0 0 13 11" fill="none" xmlns="http://www.w3.org/2000/svg">
<path data-svg-property="fill"  fill-rule="evenodd" clip-rule="evenodd" d="M5 0.75C5 0.551088 4.92098 0.360322 4.78033 0.21967C4.63968 0.0790175 4.44891 0 4.25 0H3.75C3.55109 0 3.36032 0.0790175 3.21967 0.21967C3.07902 0.360322 3 0.551088 3 0.75V10.25C3 10.664 3.336 11 3.75 11H4.25C4.44891 11 4.63968 10.921 4.78033 10.7803C4.92098 10.6397 5 10.4489 5 10.25V0.75ZM10 2.75C10 2.55109 9.92098 2.36032 9.78033 2.21967C9.63968 2.07902 9.44891 2 9.25 2H8.75C8.55109 2 8.36032 2.07902 8.21967 2.21967C8.07902 2.36032 8 2.55109 8 2.75V8.25C8 8.664 8.336 9 8.75 9H9.25C9.44891 9 9.63968 8.92098 9.78033 8.78033C9.92098 8.63968 10 8.44891 10 8.25V2.75Z" fill="white"/>
<path data-svg-property="fill"  fill-rule="evenodd" clip-rule="evenodd" d="M12.5 5C12.6326 5 12.7598 5.05268 12.8536 5.14645C12.9473 5.24021 13 5.36739 13 5.5C13 5.63261 12.9473 5.75979 12.8536 5.85355C12.7598 5.94732 12.6326 6 12.5 6H10V5H12.5ZM8 5H5V6H8V5ZM0.5 5H3V6H0.5C0.367392 6 0.240215 5.94732 0.146447 5.85355C0.0526785 5.75979 0 5.63261 0 5.5C0 5.36739 0.0526785 5.24021 0.146447 5.14645C0.240215 5.05268 0.367392 5 0.5 5Z" fill="white"/>
</svg>
