<svg width="13" height="13" viewBox="0 0 13 13" fill="none" xmlns="http://www.w3.org/2000/svg">
<path data-svg-property="fill" fill-rule="evenodd" clip-rule="evenodd" d="M5 0.75C5 0.551088 4.92098 0.360322 4.78033 0.21967C4.63968 0.0790175 4.44891 0 4.25 0H3.75C3.55109 0 3.36032 0.0790175 3.21967 0.21967C3.07902 0.360322 3 0.551088 3 0.75V9.25C3 9.664 3.336 10 3.75 10H4.25C4.44891 10 4.63968 9.92098 4.78033 9.78033C4.92098 9.63968 5 9.44891 5 9.25V0.75ZM10 4.75C10 4.55109 9.92098 4.36032 9.78033 4.21967C9.63968 4.07902 9.44891 4 9.25 4H8.75C8.55109 4 8.36032 4.07902 8.21967 4.21967C8.07902 4.36032 8 4.55109 8 4.75V9.25C8 9.664 8.336 10 8.75 10H9.25C9.44891 10 9.63968 9.92098 9.78033 9.78033C9.92098 9.63968 10 9.44891 10 9.25V4.75Z" fill="white"/>
<path data-svg-property="fill" d="M12.5 12C12.6326 12 12.7598 12.0527 12.8536 12.1464C12.9473 12.2402 13 12.3674 13 12.5C13 12.6326 12.9473 12.7598 12.8536 12.8536C12.7598 12.9473 12.6326 13 12.5 13H0.5C0.367392 13 0.240215 12.9473 0.146447 12.8536C0.0526785 12.7598 0 12.6326 0 12.5C0 12.3674 0.0526785 12.2402 0.146447 12.1464C0.240215 12.0527 0.367392 12 0.5 12H12.5Z" fill="white"/>
</svg>
