<svg width="11" height="13" viewBox="0 0 11 13" fill="none" xmlns="http://www.w3.org/2000/svg">
<path data-svg-property="fill" fill-rule="evenodd" clip-rule="evenodd" d="M10.25 5C10.4489 5 10.6397 4.92098 10.7803 4.78033C10.921 4.63968 11 4.44891 11 4.25V3.75C11 3.55109 10.921 3.36032 10.7803 3.21967C10.6397 3.07902 10.4489 3 10.25 3H0.75C0.551088 3 0.360322 3.07902 0.21967 3.21967C0.0790175 3.36032 0 3.55109 0 3.75V4.25C0 4.664 0.336 5 0.75 5H10.25ZM8.25 10C8.44891 10 8.63968 9.92098 8.78033 9.78033C8.92098 9.63968 9 9.44891 9 9.25V8.75C9 8.55109 8.92098 8.36032 8.78033 8.21967C8.63968 8.07902 8.44891 8 8.25 8H2.75C2.55109 8 2.36032 8.07902 2.21967 8.21967C2.07902 8.36032 2 8.55109 2 8.75V9.25C2 9.664 2.336 10 2.75 10H8.25Z" fill="white"/>
<path data-svg-property="fill" fill-rule="evenodd" clip-rule="evenodd" d="M6 12.5C6 12.6326 5.94732 12.7598 5.85355 12.8536C5.75979 12.9473 5.63261 13 5.5 13C5.36739 13 5.24021 12.9473 5.14645 12.8536C5.05268 12.7598 5 12.6326 5 12.5V10H6V12.5ZM6 8V5H5V8H6ZM6 0.5V3H5V0.5C5 0.367392 5.05268 0.240215 5.14645 0.146447C5.24021 0.0526785 5.36739 0 5.5 0C5.63261 0 5.75979 0.0526785 5.85355 0.146447C5.94732 0.240215 6 0.367392 6 0.5Z" fill="white"/>
</svg>
