<svg width="13" height="13" viewBox="0 0 13 13" fill="none" xmlns="http://www.w3.org/2000/svg">
<path data-svg-property="fill" fill-rule="evenodd" clip-rule="evenodd" d="M12.25 5C12.4489 5 12.6397 4.92098 12.7803 4.78033C12.921 4.63968 13 4.44891 13 4.25V3.75C13 3.55109 12.921 3.36032 12.7803 3.21967C12.6397 3.07902 12.4489 3 12.25 3H3.75C3.55109 3 3.36032 3.07902 3.21967 3.21967C3.07902 3.36032 3 3.55109 3 3.75V4.25C3 4.664 3.336 5 3.75 5H12.25ZM8.25 10C8.44891 10 8.63968 9.92098 8.78033 9.78033C8.92098 9.63968 9 9.44891 9 9.25V8.75C9 8.55109 8.92098 8.36032 8.78033 8.21967C8.63968 8.07902 8.44891 8 8.25 8H3.75C3.55109 8 3.36032 8.07902 3.21967 8.21967C3.07902 8.36032 3 8.55109 3 8.75V9.25C3 9.664 3.336 10 3.75 10H8.25Z" fill="white"/>
<path data-svg-property="fill" d="M1 12.5C1 12.6326 0.947321 12.7598 0.853553 12.8536C0.759785 12.9473 0.632608 13 0.5 13C0.367392 13 0.240215 12.9473 0.146447 12.8536C0.0526785 12.7598 0 12.6326 0 12.5V0.5C0 0.367392 0.0526785 0.240215 0.146447 0.146447C0.240215 0.0526785 0.367392 0 0.5 0C0.632608 0 0.759785 0.0526785 0.853553 0.146447C0.947321 0.240215 1 0.367392 1 0.5V12.5Z" fill="white"/>
</svg>
