<svg width="13" height="13" viewBox="0 0 13 13" fill="none" xmlns="http://www.w3.org/2000/svg">
<path data-svg-property="fill"  fill-rule="evenodd" clip-rule="evenodd" d="M5 12.25C5 12.4489 4.92098 12.6397 4.78033 12.7803C4.63968 12.921 4.44891 13 4.25 13H3.75C3.55109 13 3.36032 12.921 3.21967 12.7803C3.07902 12.6397 3 12.4489 3 12.25V3.75C3 3.55109 3.07902 3.36032 3.21967 3.21967C3.36032 3.07902 3.55109 3 3.75 3H4.25C4.44891 3 4.63968 3.07902 4.78033 3.21967C4.92098 3.36032 5 3.55109 5 3.75V12.25ZM10 8.25C10 8.44891 9.92098 8.63968 9.78033 8.78033C9.63968 8.92098 9.44891 9 9.25 9H8.75C8.55109 9 8.36032 8.92098 8.21967 8.78033C8.07902 8.63968 8 8.44891 8 8.25V3.75C8 3.55109 8.07902 3.36032 8.21967 3.21967C8.36032 3.07902 8.55109 3 8.75 3H9.25C9.44891 3 9.63968 3.07902 9.78033 3.21967C9.92098 3.36032 10 3.55109 10 3.75V8.25Z" fill="white"/>
<path data-svg-property="fill"  d="M12.5 1C12.6326 1 12.7598 0.947321 12.8536 0.853553C12.9473 0.759785 13 0.632608 13 0.5C13 0.367392 12.9473 0.240215 12.8536 0.146447C12.7598 0.0526785 12.6326 0 12.5 0H0.5C0.367392 0 0.240215 0.0526785 0.146447 0.146447C0.0526785 0.240215 0 0.367392 0 0.5C0 0.632608 0.0526785 0.759785 0.146447 0.853553C0.240215 0.947321 0.367392 1 0.5 1H12.5Z" fill="white"/>
</svg>
