<svg width="12" height="12" viewBox="0 0 12 12" fill="none" xmlns="http://www.w3.org/2000/svg">
<path data-svg-property="fill" fill-rule="evenodd" clip-rule="evenodd" d="M10.5 1H1.5C1.36739 1 1.24021 1.05268 1.14645 1.14645C1.05268 1.24021 1 1.36739 1 1.5V10.5C1 10.6326 1.05268 10.7598 1.14645 10.8536C1.24021 10.9473 1.36739 11 1.5 11H10.5C10.6326 11 10.7598 10.9473 10.8536 10.8536C10.9473 10.7598 11 10.6326 11 10.5V1.5C11 1.36739 10.9473 1.24021 10.8536 1.14645C10.7598 1.05268 10.6326 1 10.5 1ZM1.5 0C1.10218 0 0.720644 0.158035 0.43934 0.43934C0.158035 0.720644 0 1.10218 0 1.5V10.5C0 10.8978 0.158035 11.2794 0.43934 11.5607C0.720644 11.842 1.10218 12 1.5 12H10.5C10.8978 12 11.2794 11.842 11.5607 11.5607C11.842 11.2794 12 10.8978 12 10.5V1.5C12 1.10218 11.842 0.720644 11.5607 0.43934C11.2794 0.158035 10.8978 0 10.5 0H1.5ZM4.232 4.232C4.18558 4.27849 4.14877 4.33366 4.12367 4.39438C4.09857 4.45509 4.08568 4.52016 4.08572 4.58585C4.08577 4.65155 4.09875 4.7166 4.12394 4.77728C4.14912 4.83795 4.18601 4.89308 4.2325 4.9395C4.27899 4.98592 4.33416 5.02273 4.39488 5.04783C4.45559 5.07293 4.52066 5.08582 4.58635 5.08578C4.65205 5.08573 4.7171 5.07275 4.77777 5.04756C4.83845 5.02238 4.89358 4.98549 4.94 4.939C5.03375 4.84511 5.08637 4.71783 5.08628 4.58515C5.08618 4.45246 5.03339 4.32525 4.9395 4.2315C4.84561 4.13775 4.71833 4.08513 4.58565 4.08522C4.45296 4.08532 4.32575 4.13811 4.232 4.232ZM6.354 5.646C6.30758 5.59951 6.25245 5.56262 6.19177 5.53744C6.1311 5.51225 6.06605 5.49927 6.00035 5.49922C5.93466 5.49918 5.86959 5.51207 5.80888 5.53717C5.74816 5.56227 5.69299 5.59908 5.6465 5.6455C5.60001 5.69192 5.56312 5.74705 5.53794 5.80772C5.51275 5.8684 5.49977 5.93345 5.49972 5.99915C5.49968 6.06484 5.51257 6.12991 5.53767 6.19062C5.56277 6.25134 5.59958 6.30651 5.646 6.353C5.7403 6.44408 5.8666 6.49448 5.9977 6.49334C6.1288 6.4922 6.25421 6.43961 6.34691 6.34691C6.43961 6.25421 6.4922 6.1288 6.49334 5.9977C6.49448 5.8666 6.44408 5.7403 6.353 5.646M7.767 7.061C7.72139 7.01137 7.66621 6.97148 7.60479 6.94372C7.54337 6.91596 7.47697 6.90091 7.40958 6.89946C7.34219 6.89802 7.2752 6.91022 7.21265 6.93532C7.15009 6.96042 7.09326 6.99792 7.04557 7.04554C6.99787 7.09317 6.9603 7.14995 6.9351 7.21247C6.90991 7.27499 6.89762 7.34196 6.89897 7.40935C6.90032 7.47674 6.91528 7.54316 6.94295 7.60462C6.97062 7.66609 7.01044 7.72132 7.06 7.767C7.15487 7.85444 7.27987 7.90183 7.40887 7.89925C7.53787 7.89667 7.66087 7.84432 7.75217 7.75315C7.84347 7.66198 7.89599 7.53905 7.89875 7.41006C7.90152 7.28106 7.85431 7.15599 7.767 7.061ZM2.5 2C2.36739 2 2.24021 2.05268 2.14645 2.14645C2.05268 2.24021 2 2.36739 2 2.5V4.5C2 4.63261 2.05268 4.75979 2.14645 4.85355C2.24021 4.94732 2.36739 5 2.5 5C2.63261 5 2.75979 4.94732 2.85355 4.85355C2.94732 4.75979 3 4.63261 3 4.5V3H4.5C4.63261 3 4.75979 2.94732 4.85355 2.85355C4.94732 2.75979 5 2.63261 5 2.5C5 2.36739 4.94732 2.24021 4.85355 2.14645C4.75979 2.05268 4.63261 2 4.5 2H2.5ZM10 7.5C10 7.36739 9.94732 7.24021 9.85355 7.14645C9.75979 7.05268 9.63261 7 9.5 7C9.36739 7 9.24021 7.05268 9.14645 7.14645C9.05268 7.24021 9 7.36739 9 7.5V9H7.5C7.36739 9 7.24021 9.05268 7.14645 9.14645C7.05268 9.24021 7 9.36739 7 9.5C7 9.63261 7.05268 9.75979 7.14645 9.85355C7.24021 9.94732 7.36739 10 7.5 10H9.5C9.63261 10 9.75979 9.94732 9.85355 9.85355C9.94732 9.75979 10 9.63261 10 9.5V7.5Z" fill="white"/>
</svg>
