<svg width="7" height="10" viewBox="0 0 7 10" fill="none" xmlns="http://www.w3.org/2000/svg">
<path data-svg-property="fill" fill-rule="evenodd" clip-rule="evenodd" d="M6.8539 0.145899C6.90046 0.192345 6.93741 0.247521 6.96261 0.308266C6.98782 0.369011 7.00079 0.434132 7.00079 0.499899C7.00079 0.565667 6.98782 0.630788 6.96261 0.691533C6.93741 0.752278 6.90046 0.807454 6.8539 0.853899L3.8539 3.8539C3.80745 3.90046 3.75228 3.93741 3.69153 3.96261C3.63079 3.98782 3.56567 4.00079 3.4999 4.00079C3.43413 4.00079 3.36901 3.98782 3.30827 3.96261C3.24752 3.93741 3.19234 3.90046 3.1459 3.8539L0.145899 0.853899C0.0994114 0.807412 0.062535 0.752222 0.0373759 0.691483C0.0122168 0.630744 -0.000732422 0.565643 -0.000732422 0.499899C-0.000732422 0.434156 0.0122168 0.369055 0.0373759 0.308316C0.062535 0.247576 0.0994114 0.192387 0.145899 0.145899C0.239786 0.0520127 0.367124 -0.000732422 0.499899 -0.000732422C0.565643 -0.000732422 0.630744 0.0122168 0.691483 0.0373759C0.752222 0.062535 0.807412 0.0994114 0.853899 0.145899L3.4999 2.7929L6.1459 0.145899C6.23966 0.0521638 6.36682 -0.000494003 6.4994 -0.000494003C6.63198 -0.000494003 6.75914 0.0521638 6.8529 0.145899M6.8529 9.8539C6.80645 9.90046 6.75128 9.93741 6.69053 9.96261C6.62979 9.98782 6.56467 10.0008 6.4989 10.0008C6.43313 10.0008 6.36801 9.98782 6.30727 9.96261C6.24652 9.93741 6.19135 9.90046 6.1449 9.8539L3.4999 7.2069L0.853899 9.8539C0.760013 9.94779 0.632675 10.0005 0.499899 10.0005C0.367124 10.0005 0.239786 9.94779 0.145899 9.8539C0.0520127 9.76001 -0.000732419 9.63267 -0.000732422 9.4999C-0.000732424 9.36712 0.0520127 9.23979 0.145899 9.1459L3.1459 6.1459C3.19234 6.09934 3.24752 6.06239 3.30827 6.03719C3.36901 6.01198 3.43413 5.99901 3.4999 5.99901C3.56567 5.99901 3.63079 6.01198 3.69153 6.03719C3.75228 6.06239 3.80745 6.09934 3.8539 6.1459L6.8539 9.1459C6.90046 9.19234 6.93741 9.24752 6.96261 9.30827C6.98782 9.36901 7.00079 9.43413 7.00079 9.4999C7.00079 9.56567 6.98782 9.63079 6.96261 9.69153C6.93741 9.75228 6.90046 9.80745 6.8539 9.8539" fill="white"/>
</svg>
