<svg width="10" height="7" viewBox="0 0 10 7" fill="none" xmlns="http://www.w3.org/2000/svg">
<path data-svg-property="fill" fill-rule="evenodd" clip-rule="evenodd" d="M0.145917 0.145917C0.192363 0.0993537 0.247538 0.0624112 0.308283 0.0372047C0.369028 0.0119983 0.43415 -0.000976562 0.499917 -0.000976562C0.565684 -0.000976562 0.630806 0.0119983 0.691551 0.0372047C0.752296 0.0624112 0.807471 0.0993537 0.853917 0.145917L3.85392 3.14592C3.94765 3.23968 4.00031 3.36684 4.00031 3.49942C4.00031 3.632 3.94765 3.75915 3.85392 3.85292L0.853917 6.85292C0.807495 6.8994 0.752371 6.93629 0.691692 6.96148C0.631013 6.98666 0.565968 6.99965 0.50027 6.99969C0.434573 6.99974 0.36951 6.98685 0.308795 6.96175C0.248081 6.93665 0.192905 6.89984 0.146417 6.85342C0.0999292 6.807 0.0630398 6.75187 0.0378556 6.69119C0.0126714 6.63051 -0.000314537 6.56547 -0.000360966 6.49977C-0.000407394 6.43407 0.0124868 6.36901 0.0375853 6.3083C0.0626837 6.24758 0.0994947 6.1924 0.145917 6.14592L2.79292 3.49992L0.145917 0.853917C0.0993537 0.807471 0.0624107 0.752295 0.0372043 0.69155C0.0119978 0.630805 -0.000976562 0.565684 -0.000976562 0.499917C-0.000976562 0.43415 0.0119978 0.369029 0.0372043 0.308284C0.0624107 0.247539 0.0993537 0.192363 0.145917 0.145917ZM9.85392 0.145917C9.90048 0.192363 9.93742 0.247539 9.96263 0.308284C9.98784 0.369029 10.0008 0.43415 10.0008 0.499917C10.0008 0.565684 9.98784 0.630805 9.96263 0.69155C9.93742 0.752295 9.90048 0.807471 9.85392 0.853917L7.20692 3.49992L9.85392 6.14592C9.94767 6.2398 10.0003 6.36709 10.0002 6.49977C10.0001 6.63245 9.9473 6.75966 9.85342 6.85342C9.80693 6.89984 9.75175 6.93665 9.69104 6.96175C9.63032 6.98685 9.56526 6.99974 9.49956 6.99969C9.36688 6.9996 9.23967 6.9468 9.14592 6.85292L6.14592 3.85292C6.05218 3.75915 5.99952 3.632 5.99952 3.49942C5.99952 3.36684 6.05218 3.23968 6.14592 3.14592L9.14592 0.145917C9.19236 0.0993537 9.24754 0.0624112 9.30828 0.0372047C9.36903 0.0119983 9.43415 -0.000976562 9.49992 -0.000976562C9.56568 -0.000976562 9.63081 0.0119983 9.69155 0.0372047C9.7523 0.0624112 9.80747 0.0993537 9.85392 0.145917Z" fill="white"/>
</svg>
