<svg width="12" height="12" viewBox="0 0 12 12" fill="none" xmlns="http://www.w3.org/2000/svg">
<path fill-rule="evenodd" clip-rule="evenodd" d="M3.5 1H1.5C1.36739 1 1.24021 1.05268 1.14645 1.14645C1.05268 1.24021 1 1.36739 1 1.5V10.5C1 10.6326 1.05268 10.7598 1.14645 10.8536C1.24021 10.9473 1.36739 11 1.5 11H3.5C3.63261 11 3.75979 10.9473 3.85355 10.8536C3.94732 10.7598 4 10.6326 4 10.5V1.5C4 1.36739 3.94732 1.24021 3.85355 1.14645C3.75979 1.05268 3.63261 1 3.5 1ZM1.5 0C1.10218 0 0.720644 0.158035 0.43934 0.43934C0.158035 0.720644 0 1.10218 0 1.5V10.5C0 10.8978 0.158035 11.2794 0.43934 11.5607C0.720644 11.842 1.10218 12 1.5 12H3.5C3.89782 12 4.27936 11.842 4.56066 11.5607C4.84196 11.2794 5 10.8978 5 10.5V1.5C5 1.10218 4.84196 0.720644 4.56066 0.43934C4.27936 0.158035 3.89782 0 3.5 0H1.5ZM10.5 1H8.5C8.36739 1 8.24021 1.05268 8.14645 1.14645C8.05268 1.24021 8 1.36739 8 1.5V3.5C8 3.63261 8.05268 3.75979 8.14645 3.85355C8.24021 3.94732 8.36739 4 8.5 4H10.5C10.6326 4 10.7598 3.94732 10.8536 3.85355C10.9473 3.75979 11 3.63261 11 3.5V1.5C11 1.36739 10.9473 1.24021 10.8536 1.14645C10.7598 1.05268 10.6326 1 10.5 1ZM8.5 0C8.10218 0 7.72064 0.158035 7.43934 0.43934C7.15804 0.720644 7 1.10218 7 1.5V3.5C7 3.89782 7.15804 4.27936 7.43934 4.56066C7.72064 4.84196 8.10218 5 8.5 5H10.5C10.8978 5 11.2794 4.84196 11.5607 4.56066C11.842 4.27936 12 3.89782 12 3.5V1.5C12 1.10218 11.842 0.720644 11.5607 0.43934C11.2794 0.158035 10.8978 0 10.5 0H8.5ZM11.884 8.32C11.9651 8.21775 12.0031 8.08782 11.9897 7.95798C11.9763 7.82814 11.9127 7.70867 11.8124 7.62511C11.7121 7.54154 11.5832 7.50051 11.453 7.51077C11.3229 7.52102 11.2019 7.58176 11.116 7.68L8.966 10.26L7.854 9.146C7.76011 9.05211 7.63278 8.99937 7.5 8.99937C7.36722 8.99937 7.23989 9.05211 7.146 9.146C7.05211 9.23989 6.99937 9.36722 6.99937 9.5C6.99937 9.63278 7.05211 9.76011 7.146 9.854L8.646 11.354C8.69517 11.4032 8.75405 11.4415 8.81887 11.4666C8.8837 11.4917 8.95305 11.5031 9.0225 11.4999C9.09195 11.4967 9.15997 11.479 9.22221 11.448C9.28446 11.4171 9.33956 11.3735 9.384 11.32L11.884 8.32Z" data-svg-property="fill"  fill="white"/>
</svg>
