<svg width="8" height="8" viewBox="0 0 8 8" fill="none" xmlns="http://www.w3.org/2000/svg">
<path data-svg-property="fill" fill-rule="evenodd" clip-rule="evenodd" d="M4.478 0H7.5C7.63261 0 7.75979 0.052678 7.85355 0.146446C7.94732 0.240214 8 0.367392 8 0.5C8 0.632608 7.94732 0.759786 7.85355 0.853554C7.75979 0.947322 7.63261 1 7.5 1H4.5C3.792 1 3.29 1 2.899 1.032C2.513 1.064 2.277 1.124 2.092 1.218C1.71569 1.40974 1.40974 1.71569 1.218 2.092C1.124 2.277 1.064 2.512 1.032 2.899C1 3.29 1 3.792 1 4.5V7.5C1 7.63261 0.947322 7.75979 0.853554 7.85355C0.759786 7.94732 0.632608 8 0.5 8C0.367392 8 0.240214 7.94732 0.146446 7.85355C0.052678 7.75979 0 7.63261 0 7.5V4.478C0 3.797 2.5332e-07 3.255 0.0360003 2.818C0.0720003 2.37 0.149 1.988 0.327 1.638C0.614615 1.07354 1.07354 0.614615 1.638 0.327C1.988 0.149 2.37 0.0720003 2.818 0.0360003C3.254 2.5332e-07 3.797 0 4.478 0Z" fill="white"/>
</svg>
