<svg width="8" height="8" viewBox="0 0 8 8" fill="none" xmlns="http://www.w3.org/2000/svg">
<path data-svg-property="fill" fill-rule="evenodd" clip-rule="evenodd" d="M3.522 8H0.5C0.367392 8 0.240214 7.94732 0.146446 7.85355C0.052678 7.75979 0 7.63261 0 7.5C0 7.36739 0.052678 7.24021 0.146446 7.14645C0.240214 7.05268 0.367392 7 0.5 7H3.5C4.208 7 4.71 7 5.101 6.968C5.487 6.936 5.723 6.876 5.908 6.782C6.28431 6.59026 6.59026 6.28431 6.782 5.908C6.876 5.723 6.936 5.488 6.968 5.101C7 4.71 7 4.208 7 3.5V0.5C7 0.367392 7.05268 0.240214 7.14645 0.146446C7.24021 0.052678 7.36739 0 7.5 0C7.63261 0 7.75979 0.052678 7.85355 0.146446C7.94732 0.240214 8 0.367392 8 0.5V3.522C8 4.203 8 4.745 7.964 5.182C7.928 5.63 7.851 6.012 7.673 6.362C7.38538 6.92646 6.92646 7.38538 6.362 7.673C6.012 7.851 5.63 7.928 5.182 7.964C4.745 8 4.203 8 3.522 8Z" fill="white"/>
</svg>
