<svg width="8" height="8" viewBox="0 0 8 8" fill="none" xmlns="http://www.w3.org/2000/svg">
<path data-svg-property="fill" fill-rule="evenodd" clip-rule="evenodd" d="M3.522 0H0.5C0.367392 0 0.240214 0.052678 0.146446 0.146446C0.052678 0.240214 0 0.367392 0 0.5C0 0.632608 0.052678 0.759786 0.146446 0.853554C0.240214 0.947322 0.367392 1 0.5 1H3.5C4.208 1 4.71 1 5.101 1.032C5.487 1.064 5.723 1.124 5.908 1.218C6.28431 1.40974 6.59026 1.71569 6.782 2.092C6.876 2.277 6.936 2.512 6.968 2.899C7 3.291 7 3.792 7 4.5V7.5C7 7.63261 7.05268 7.75979 7.14645 7.85355C7.24021 7.94732 7.36739 8 7.5 8C7.63261 8 7.75979 7.94732 7.85355 7.85355C7.94732 7.75979 8 7.63261 8 7.5V4.478C8 3.797 8 3.255 7.964 2.818C7.928 2.37 7.851 1.988 7.673 1.638C7.38538 1.07354 6.92646 0.614615 6.362 0.327C6.012 0.149 5.63 0.0720003 5.182 0.0360003C4.746 2.5332e-07 4.203 0 3.522 0Z" fill="white"/>
</svg>
