<svg width="8" height="8" viewBox="0 0 8 8" fill="none" xmlns="http://www.w3.org/2000/svg">
<path data-svg-property="fill" fill-rule="evenodd" clip-rule="evenodd" d="M4.478 8H7.5C7.63261 8 7.75979 7.94732 7.85355 7.85355C7.94732 7.75979 8 7.63261 8 7.5C8 7.36739 7.94732 7.24021 7.85355 7.14645C7.75979 7.05268 7.63261 7 7.5 7H4.5C3.792 7 3.29 7 2.899 6.968C2.513 6.936 2.277 6.876 2.092 6.782C1.71569 6.59026 1.40974 6.28431 1.218 5.908C1.124 5.723 1.064 5.488 1.032 5.101C1 4.71 1 4.208 1 3.5V0.5C1 0.367392 0.947322 0.240214 0.853554 0.146446C0.759786 0.052678 0.632608 0 0.5 0C0.367392 0 0.240214 0.052678 0.146446 0.146446C0.052678 0.240214 0 0.367392 0 0.5V3.522C0 4.203 2.5332e-07 4.745 0.0360003 5.182C0.0720003 5.63 0.149 6.012 0.327 6.362C0.614615 6.92646 1.07354 7.38538 1.638 7.673C1.988 7.851 2.37 7.928 2.818 7.964C3.255 8 3.797 8 4.478 8Z" fill="white"/>
</svg>
