<svg width="5" height="3" viewBox="0 0 5 3" fill="none" xmlns="http://www.w3.org/2000/svg">
<path fill-rule="evenodd" clip-rule="evenodd" d="M4.85311 2.85506C4.80666 2.90162 4.75148 2.93857 4.69074 2.96377C4.62999 2.98898 4.56487 3.00195 4.49911 3.00195C4.43334 3.00195 4.36822 2.98898 4.30747 2.96377C4.24673 2.93857 4.19155 2.90162 4.14511 2.85506L2.49911 1.20806L0.853106 2.85506C0.806619 2.90155 0.751429 2.93842 0.69069 2.96358C0.629951 2.98874 0.56485 3.00169 0.499106 3.00169C0.433363 3.00169 0.368262 2.98874 0.307523 2.96358C0.246783 2.93842 0.191594 2.90155 0.145106 2.85506C0.0986184 2.80857 0.061742 2.75338 0.0365829 2.69264C0.0114239 2.6319 -0.00152493 2.5668 -0.00152493 2.50106C-0.00152493 2.43532 0.0114239 2.37022 0.0365829 2.30948C0.061742 2.24874 0.0986184 2.19355 0.145106 2.14706L2.14511 0.147059C2.19155 0.100496 2.24673 0.0635537 2.30747 0.0383472C2.36822 0.0131408 2.43334 0.000165939 2.49911 0.000165939C2.56487 0.000165939 2.62999 0.0131408 2.69074 0.0383472C2.75148 0.0635537 2.80666 0.100496 2.85311 0.147059L4.85311 2.14706C4.89967 2.19351 4.93661 2.24868 4.96182 2.30943C4.98703 2.37017 5 2.43529 5 2.50106C5 2.56683 4.98703 2.63195 4.96182 2.69269C4.93661 2.75344 4.89967 2.80861 4.85311 2.85506Z"  data-svg-property="fill" fill="white"/>
</svg>
