<svg width="3" height="5" viewBox="0 0 3 5" fill="none" xmlns="http://www.w3.org/2000/svg">
<path fill-rule="evenodd" clip-rule="evenodd" d="M2.85311 0.146894C2.89967 0.193339 2.93661 0.248515 2.96182 0.30926C2.98703 0.370006 3 0.435126 3 0.500894C3 0.566661 2.98703 0.631782 2.96182 0.692527C2.93661 0.753272 2.89967 0.808448 2.85311 0.854894L1.20611 2.50089L2.85311 4.14689C2.89959 4.19338 2.93647 4.24857 2.96163 4.30931C2.98679 4.37005 2.99974 4.43515 2.99974 4.50089C2.99974 4.56664 2.98679 4.63174 2.96163 4.69248C2.93647 4.75322 2.89959 4.80841 2.85311 4.85489C2.80662 4.90138 2.75143 4.93826 2.69069 4.96342C2.62995 4.98858 2.56485 5.00152 2.49911 5.00152C2.43336 5.00152 2.36826 4.98858 2.30752 4.96342C2.24678 4.93826 2.19159 4.90138 2.14511 4.85489L0.145106 2.85489C0.0985431 2.80845 0.0616006 2.75327 0.0363941 2.69253C0.0111877 2.63178 -0.00178719 2.56666 -0.00178719 2.50089C-0.00178719 2.43513 0.0111877 2.37001 0.0363941 2.30926C0.0616006 2.24852 0.0985431 2.19334 0.145106 2.14689L2.14511 0.146894C2.19155 0.10033 2.24673 0.0633878 2.30747 0.0381813C2.36822 0.0129749 2.43334 0 2.49911 0C2.56487 0 2.62999 0.0129749 2.69074 0.0381813C2.75148 0.0633878 2.80666 0.10033 2.85311 0.146894Z"  data-svg-property="fill" fill="white"/>
</svg>
