<svg width="5" height="3" viewBox="0 0 5 3" fill="none" xmlns="http://www.w3.org/2000/svg">
<path fill-rule="evenodd" clip-rule="evenodd" d="M0.146894 0.146894C0.193339 0.10033 0.248515 0.0633878 0.30926 0.0381813C0.370006 0.0129749 0.435126 0 0.500894 0C0.566661 0 0.631782 0.0129749 0.692527 0.0381813C0.753272 0.0633878 0.808448 0.10033 0.854894 0.146894L2.50089 1.79389L4.14689 0.146894C4.19338 0.100406 4.24857 0.0635292 4.30931 0.0383701C4.37005 0.013211 4.43515 0.00026226 4.50089 0.00026226C4.56664 0.00026226 4.63174 0.013211 4.69248 0.0383701C4.75322 0.0635292 4.80841 0.100406 4.85489 0.146894C4.90138 0.193381 4.93826 0.248571 4.96342 0.30931C4.98858 0.370049 5.00152 0.43515 5.00152 0.500894C5.00152 0.566637 4.98858 0.631738 4.96342 0.692477C4.93826 0.753217 4.90138 0.808406 4.85489 0.854894L2.85489 2.85489C2.80845 2.90146 2.75327 2.9384 2.69253 2.96361C2.63178 2.98881 2.56666 3.00179 2.50089 3.00179C2.43513 3.00179 2.37001 2.98881 2.30926 2.96361C2.24852 2.9384 2.19334 2.90146 2.14689 2.85489L0.146894 0.854894C0.10033 0.808448 0.0633878 0.753272 0.0381813 0.692527C0.0129749 0.631782 0 0.566661 0 0.500894C0 0.435126 0.0129749 0.370006 0.0381813 0.30926C0.0633878 0.248515 0.10033 0.193339 0.146894 0.146894Z"  data-svg-property="fill" fill="white"/>
</svg>
