<svg width="3" height="5" viewBox="0 0 3 5" fill="none" xmlns="http://www.w3.org/2000/svg">
<path fill-rule="evenodd" clip-rule="evenodd" d="M0.146894 4.85506C0.10033 4.80861 0.0633878 4.75344 0.0381813 4.69269C0.0129749 4.63195 0 4.56683 0 4.50106C0 4.43529 0.0129749 4.37017 0.0381813 4.30943C0.0633878 4.24868 0.10033 4.19351 0.146894 4.14706L1.79389 2.50106L0.146894 0.85506C0.100406 0.808572 0.0635292 0.753383 0.0383701 0.692643C0.013211 0.631904 0.00026226 0.566803 0.00026226 0.50106C0.00026226 0.435316 0.013211 0.370215 0.0383701 0.309476C0.0635292 0.248736 0.100406 0.193547 0.146894 0.147059C0.193381 0.100571 0.248571 0.0636952 0.30931 0.0385361C0.370049 0.013377 0.43515 0.0004282 0.500894 0.0004282C0.566637 0.0004282 0.631738 0.013377 0.692477 0.0385361C0.753217 0.0636952 0.808406 0.100571 0.854894 0.147059L2.85489 2.14706C2.90146 2.19351 2.9384 2.24868 2.96361 2.30943C2.98881 2.37017 3.00179 2.43529 3.00179 2.50106C3.00179 2.56683 2.98881 2.63195 2.96361 2.69269C2.9384 2.75344 2.90146 2.80861 2.85489 2.85506L0.854894 4.85506C0.808448 4.90162 0.753272 4.93857 0.692527 4.96377C0.631782 4.98898 0.566661 5.00195 0.500894 5.00195C0.435126 5.00195 0.370006 4.98898 0.30926 4.96377C0.248515 4.93857 0.193339 4.90162 0.146894 4.85506Z"  data-svg-property="fill" fill="white"/>
</svg>
