<svg width="12" height="12" viewBox="0 0 12 12" fill="none" xmlns="http://www.w3.org/2000/svg">
<path fill-rule="evenodd" clip-rule="evenodd" d="M11.3539 0.645993C11.4005 0.692439 11.4374 0.747614 11.4626 0.80836C11.4878 0.869105 11.5008 0.934226 11.5008 0.999993C11.5008 1.06576 11.4878 1.13088 11.4626 1.19163C11.4374 1.25237 11.4005 1.30755 11.3539 1.35399L6.7069 5.99999L11.3539 10.646C11.4478 10.7399 11.5005 10.8672 11.5005 11C11.5005 11.1328 11.4478 11.2601 11.3539 11.354C11.26 11.4479 11.1327 11.5006 10.9999 11.5006C10.8671 11.5006 10.7398 11.4479 10.6459 11.354L5.9999 6.70699L1.3539 11.354C1.26001 11.4479 1.13268 11.5006 0.999899 11.5006C0.867124 11.5006 0.739786 11.4479 0.645899 11.354C0.552013 11.2601 0.499268 11.1328 0.499268 11C0.499268 10.8672 0.552013 10.7399 0.645899 10.646L5.2929 5.99999L0.645899 1.35399C0.552145 1.26011 0.499528 1.13282 0.499621 1.00014C0.499715 0.867458 0.552513 0.740247 0.646399 0.646493C0.740286 0.552739 0.867571 0.500121 1.00025 0.500215C1.13293 0.500309 1.26015 0.553107 1.3539 0.646993L5.9999 5.29299L10.6459 0.645993C10.6923 0.59943 10.7475 0.562487 10.8083 0.537281C10.869 0.512074 10.9341 0.4991 10.9999 0.4991C11.0657 0.4991 11.1308 0.512074 11.1915 0.537281C11.2523 0.562487 11.3075 0.59943 11.3539 0.645993Z" data-svg-property="fill" fill="white"/>
</svg>
