<svg width="12" height="12" viewBox="0 0 12 12" fill="none" xmlns="http://www.w3.org/2000/svg">
<path data-svg-property="fill" fill-rule="evenodd" clip-rule="evenodd" d="M4 1.5V10.5C4 10.776 3.776 11 3.5 11H1.5C1.224 11 1 10.776 1 10.5V1.5C1 1.224 1.224 1 1.5 1H3.5C3.776 1 4 1.224 4 1.5ZM3.5 0C4.328 0 5 0.672 5 1.5V10.5C5 11.328 4.328 12 3.5 12H1.5C0.672 12 0 11.328 0 10.5V1.5C0 0.672 0.672 0 1.5 0H3.5ZM11 1.5V10.5C11 10.776 10.776 11 10.5 11H8.5C8.224 11 8 10.776 8 10.5V1.5C8 1.224 8.224 1 8.5 1H10.5C10.776 1 11 1.224 11 1.5ZM10.5 0C11.328 0 12 0.672 12 1.5V10.5C12 11.328 11.328 12 10.5 12H8.5C7.672 12 7 11.328 7 10.5V1.5C7 0.672 7.672 0 8.5 0H10.5Z" fill="white"/>
</svg>
