<svg width="14" height="14" viewBox="0 0 14 14" fill="none" xmlns="http://www.w3.org/2000/svg">
<path data-svg-property="fill" fill-rule="evenodd" clip-rule="evenodd" d="M2.96998 5.444L1.58998 6.823C1.5667 6.84622 1.54823 6.87381 1.53562 6.90418C1.52302 6.93455 1.51653 6.96711 1.51653 7C1.51653 7.03288 1.52302 7.06544 1.53562 7.09581C1.54823 7.12619 1.5667 7.15378 1.58998 7.177L2.96898 8.555C3.01584 8.60171 3.07931 8.62794 3.14548 8.62794C3.21165 8.62794 3.27512 8.60171 3.32198 8.555L4.70098 7.177C4.72426 7.15378 4.74273 7.12619 4.75534 7.09581C4.76794 7.06544 4.77443 7.03288 4.77443 7C4.77443 6.96711 4.76794 6.93455 4.75534 6.90418C4.74273 6.87381 4.72426 6.84622 4.70098 6.823L3.32198 5.444C3.27512 5.39728 3.21165 5.37105 3.14548 5.37105C3.07931 5.37105 3.01684 5.39728 2.96998 5.444ZM4.02898 4.737C3.79459 4.50281 3.47681 4.37126 3.14548 4.37126C2.81415 4.37126 2.49637 4.50281 2.26198 4.737L0.88198 6.116C0.765872 6.23208 0.673768 6.36989 0.610929 6.52157C0.54809 6.67325 0.515747 6.83582 0.515747 7C0.515747 7.16418 0.54809 7.32675 0.610929 7.47843C0.673768 7.63011 0.765872 7.76792 0.88198 7.884L2.26198 9.262C2.49637 9.49618 2.81415 9.62773 3.14548 9.62773C3.47681 9.62773 3.79459 9.49618 4.02898 9.262L5.40898 7.884C5.52509 7.76792 5.61719 7.63011 5.68003 7.47843C5.74287 7.32675 5.77521 7.16418 5.77521 7C5.77521 6.83582 5.74287 6.67325 5.68003 6.52157C5.61719 6.36989 5.52509 6.23208 5.40898 6.116L4.02898 4.737ZM6.11598 8.59L4.73598 9.97C4.50179 10.2044 4.37025 10.5222 4.37025 10.8535C4.37025 11.1848 4.50179 11.5026 4.73598 11.737L6.11598 13.116C6.35037 13.3502 6.66815 13.4817 6.99948 13.4817C7.33081 13.4817 7.64859 13.3502 7.88298 13.116L9.26198 11.737C9.49617 11.5026 9.62771 11.1848 9.62771 10.8535C9.62771 10.5222 9.49617 10.2044 9.26198 9.97L7.88198 8.59C7.64763 8.35612 7.33007 8.22476 6.99898 8.22476C6.66789 8.22476 6.35033 8.35612 6.11598 8.59ZM4.73598 4.03L6.11598 5.409C6.35037 5.64318 6.66815 5.77473 6.99948 5.77473C7.33081 5.77473 7.64859 5.64318 7.88298 5.409L9.26198 4.03C9.37809 3.91392 9.47019 3.77611 9.53303 3.62443C9.59587 3.47275 9.62821 3.31018 9.62821 3.146C9.62821 2.98182 9.59587 2.81925 9.53303 2.66757C9.47019 2.51589 9.37809 2.37808 9.26198 2.262L7.88198 0.883998C7.64759 0.649812 7.32981 0.518265 6.99848 0.518265C6.66715 0.518265 6.34937 0.649812 6.11498 0.883998L4.73698 2.262C4.62087 2.37808 4.52877 2.51589 4.46593 2.66757C4.40309 2.81925 4.37075 2.98182 4.37075 3.146C4.37075 3.31018 4.40309 3.47275 4.46593 3.62443C4.52877 3.77611 4.62087 3.91392 4.73698 4.03M5.44398 3.323L6.82398 4.702C6.87084 4.74871 6.93431 4.77495 7.00048 4.77495C7.06665 4.77495 7.13012 4.74871 7.17698 4.702L8.55598 3.323C8.60269 3.27614 8.62893 3.21267 8.62893 3.1465C8.62893 3.08033 8.60269 3.01686 8.55598 2.97L7.17598 1.59C7.12912 1.54328 7.06565 1.51705 6.99948 1.51705C6.93331 1.51705 6.86984 1.54328 6.82298 1.59L5.44398 2.97C5.39727 3.01686 5.37103 3.08033 5.37103 3.1465C5.37103 3.21267 5.39727 3.27614 5.44398 3.323ZM9.96998 4.737L8.59098 6.116C8.47487 6.23208 8.38277 6.36989 8.31993 6.52157C8.25709 6.67325 8.22475 6.83582 8.22475 7C8.22475 7.16418 8.25709 7.32675 8.31993 7.47843C8.38277 7.63011 8.47487 7.76792 8.59098 7.884L9.96998 9.262C10.2044 9.49618 10.5221 9.62773 10.8535 9.62773C11.1848 9.62773 11.5026 9.49618 11.737 9.262L13.117 7.884C13.2331 7.76792 13.3252 7.63011 13.388 7.47843C13.4509 7.32675 13.4832 7.16418 13.4832 7C13.4832 6.83582 13.4509 6.67325 13.388 6.52157C13.3252 6.36989 13.2331 6.23208 13.117 6.116L11.737 4.737C11.5026 4.50281 11.1848 4.37126 10.8535 4.37126C10.5221 4.37126 10.2044 4.50281 9.96998 4.737ZM10.677 5.444L9.29798 6.824C9.25127 6.87086 9.22503 6.93433 9.22503 7.0005C9.22503 7.06667 9.25127 7.13014 9.29798 7.177L10.677 8.555C10.7238 8.60171 10.7873 8.62794 10.8535 8.62794C10.9196 8.62794 10.9831 8.60171 11.03 8.555L12.41 7.177C12.4333 7.15378 12.4517 7.12619 12.4643 7.09581C12.4769 7.06544 12.4834 7.03288 12.4834 7C12.4834 6.96711 12.4769 6.93455 12.4643 6.90418C12.4517 6.87381 12.4333 6.84622 12.41 6.823L11.03 5.444C10.9831 5.39728 10.9196 5.37105 10.8535 5.37105C10.7873 5.37105 10.7238 5.39728 10.677 5.444ZM8.55598 10.677L7.17598 9.298C7.12912 9.25128 7.06565 9.22505 6.99948 9.22505C6.93331 9.22505 6.86984 9.25128 6.82298 9.298L5.44498 10.677C5.39826 10.7239 5.37203 10.7873 5.37203 10.8535C5.37203 10.9197 5.39826 10.9831 5.44498 11.03L6.82298 12.409C6.8462 12.4323 6.87379 12.4508 6.90416 12.4634C6.93454 12.476 6.9671 12.4824 6.99998 12.4824C7.03286 12.4824 7.06542 12.476 7.0958 12.4634C7.12617 12.4508 7.15376 12.4323 7.17698 12.409L8.55598 11.03C8.60269 10.9831 8.62893 10.9197 8.62893 10.8535C8.62893 10.7873 8.60269 10.7239 8.55598 10.677Z" fill="white"/>
</svg>
