<svg width="12" height="12" viewBox="0 0 12 12" fill="none" xmlns="http://www.w3.org/2000/svg">
<path data-svg-property="fill" fill-rule="evenodd" clip-rule="evenodd" d="M2.90184 0H2.88184C2.47884 0 2.14684 -1.63913e-07 1.87584 0.0219998C1.59584 0.0449998 1.33584 0.0939999 1.09384 0.218C0.717537 0.409744 0.411588 0.715693 0.219845 1.092C0.0958445 1.335 0.0468444 1.593 0.0238444 1.874C0.00184442 2.144 0.00184458 2.477 0.00184458 2.88V3.5C0.00184458 3.63261 0.0545231 3.75979 0.148291 3.85355C0.242059 3.94732 0.369236 4 0.501845 4C0.634453 4 0.76163 3.94732 0.855398 3.85355C0.949166 3.75979 1.00184 3.63261 1.00184 3.5V2.9C1.00184 2.472 1.00184 2.18 1.02084 1.956C1.03884 1.736 1.07084 1.624 1.11084 1.546C1.20672 1.35785 1.35969 1.20487 1.54784 1.109C1.62584 1.069 1.73784 1.037 1.95784 1.019C2.18184 1 2.47384 1 2.90184 1H3.50184C3.63445 1 3.76163 0.947321 3.8554 0.853553C3.94917 0.759785 4.00184 0.632608 4.00184 0.5C4.00184 0.367392 3.94917 0.240215 3.8554 0.146447C3.76163 0.0526785 3.63445 0 3.50184 0H2.90184ZM9.10184 0H9.12184C9.52484 0 9.85684 -1.63913e-07 10.1278 0.0219998C10.4088 0.0449998 10.6678 0.0939999 10.9098 0.218C11.2862 0.409744 11.5921 0.715693 11.7838 1.092C11.9078 1.335 11.9568 1.593 11.9798 1.874C12.0018 2.144 12.0018 2.477 12.0018 2.879V3.5C12.0018 3.63261 11.9492 3.75979 11.8554 3.85355C11.7616 3.94732 11.6345 4 11.5018 4C11.3692 4 11.2421 3.94732 11.1483 3.85355C11.0545 3.75979 11.0018 3.63261 11.0018 3.5V2.9C11.0018 2.472 11.0018 2.18 10.9828 1.956C10.9648 1.736 10.9328 1.624 10.8928 1.546C10.797 1.35785 10.644 1.20487 10.4558 1.109C10.3778 1.069 10.2658 1.037 10.0458 1.019C9.73151 1.00124 9.41664 0.9949 9.10184 1H8.50184C8.36924 1 8.24206 0.947321 8.14829 0.853553C8.05452 0.759785 8.00184 0.632608 8.00184 0.5C8.00184 0.367392 8.05452 0.240215 8.14829 0.146447C8.24206 0.0526785 8.36924 0 8.50184 0H9.10184ZM9.12184 12H8.50184C8.36924 12 8.24206 11.9473 8.14829 11.8536C8.05452 11.7598 8.00184 11.6326 8.00184 11.5C8.00184 11.3674 8.05452 11.2402 8.14829 11.1464C8.24206 11.0527 8.36924 11 8.50184 11H9.10184C9.52984 11 9.82185 11 10.0458 10.981C10.2658 10.963 10.3778 10.931 10.4558 10.891C10.644 10.7951 10.797 10.6422 10.8928 10.454C10.9328 10.376 10.9648 10.264 10.9828 10.044C11.0018 9.819 11.0018 9.528 11.0018 9.1V8.5C11.0018 8.36739 11.0545 8.24021 11.1483 8.14645C11.2421 8.05268 11.3692 8 11.5018 8C11.6345 8 11.7616 8.05268 11.8554 8.14645C11.9492 8.24021 12.0018 8.36739 12.0018 8.5V9.12C12.0018 9.523 12.0018 9.855 11.9798 10.126C11.9568 10.407 11.9078 10.666 11.7838 10.908C11.5921 11.2843 11.2862 11.5903 10.9098 11.782C10.6668 11.906 10.4088 11.955 10.1278 11.978C9.85784 12 9.52484 12 9.12284 12M2.90184 12H2.88184C2.47884 12 2.14684 12 1.87584 11.978C1.59484 11.955 1.33584 11.906 1.09384 11.782C0.717537 11.5903 0.411588 11.2843 0.219845 10.908C0.0958445 10.665 0.0468444 10.407 0.0238444 10.126C0.00353104 9.79108 -0.00380762 9.45549 0.00184458 9.12V8.5C0.00184458 8.36739 0.0545231 8.24021 0.148291 8.14645C0.242059 8.05268 0.369236 8 0.501845 8C0.634453 8 0.76163 8.05268 0.855398 8.14645C0.949166 8.24021 1.00184 8.36739 1.00184 8.5V9.1C1.00184 9.528 1.00184 9.82 1.02084 10.044C1.03884 10.264 1.07084 10.376 1.11084 10.454C1.20672 10.6422 1.35969 10.7951 1.54784 10.891C1.62584 10.931 1.73784 10.963 1.95784 10.981C2.18284 11 2.47384 11 2.90184 11H3.50184C3.63445 11 3.76163 11.0527 3.8554 11.1464C3.94917 11.2402 4.00184 11.3674 4.00184 11.5C4.00184 11.6326 3.94917 11.7598 3.8554 11.8536C3.76163 11.9473 3.63445 12 3.50184 12H2.90184Z" fill="white"/>
</svg>
