<svg width="11" height="11" viewBox="0 0 11 11" fill="none" xmlns="http://www.w3.org/2000/svg">
<path d="M1.46521 5.02922C1.5591 4.93547 1.68638 4.88285 1.81906 4.88294C1.95175 4.88304 2.07896 4.93583 2.17271 5.02972C2.26647 5.12361 2.31908 5.25089 2.31899 5.38357C2.3189 5.51626 2.2661 5.64347 2.17221 5.73722L1.44021 6.46922C1.29695 6.60759 1.18267 6.77311 1.10406 6.95611C1.02545 7.13912 0.984066 7.33595 0.982335 7.53512C0.980605 7.73429 1.01856 7.93181 1.09398 8.11615C1.1694 8.3005 1.28078 8.46797 1.42162 8.60881C1.56246 8.74965 1.72994 8.86103 1.91428 8.93645C2.09862 9.01187 2.29614 9.04983 2.49531 9.0481C2.69448 9.04637 2.89131 9.00499 3.07432 8.92637C3.25732 8.84776 3.42284 8.73349 3.56121 8.59022L4.29321 7.85822C4.38751 7.76714 4.51381 7.71674 4.64491 7.71788C4.77601 7.71902 4.90142 7.77161 4.99412 7.86431C5.08682 7.95702 5.13941 8.08242 5.14055 8.21352C5.14169 8.34462 5.09129 8.47092 5.00021 8.56522L4.26821 9.29722C3.79671 9.75262 3.1652 10.0046 2.50971 9.99891C1.85422 9.99321 1.22718 9.73029 0.763664 9.26677C0.300144 8.80325 0.0372219 8.17622 0.0315259 7.52072C0.0258298 6.86523 0.277816 6.23373 0.733211 5.76222L1.46521 5.02922ZM0.147211 0.177221C0.228634 0.0957238 0.335701 0.0448435 0.450311 0.0331821C0.564921 0.0215207 0.680042 0.0497937 0.776211 0.113221L0.854211 0.177221L9.85421 9.17722L9.91821 9.25522C9.98253 9.35136 10.0115 9.46682 10.0003 9.58193C9.989 9.69705 9.93817 9.8047 9.85644 9.88654C9.77472 9.96839 9.66714 10.0194 9.55204 10.0308C9.43694 10.0422 9.32144 10.0134 9.22521 9.94922L9.14721 9.88422L0.147211 0.884221L0.082211 0.806221C0.0189103 0.709941 -0.00919473 0.594754 0.00264932 0.48014C0.0144934 0.365526 0.0655596 0.25852 0.147211 0.177221ZM5.73321 0.763221C5.96383 0.524445 6.23969 0.33399 6.5447 0.202967C6.84971 0.0719447 7.17776 0.00297893 7.50971 9.4392e-05C7.84166 -0.00279015 8.17086 0.0604641 8.4781 0.186166C8.78534 0.311868 9.06447 0.497501 9.2992 0.732233C9.53393 0.966965 9.71956 1.24609 9.84527 1.55334C9.97097 1.86058 10.0342 2.18978 10.0313 2.52172C10.0285 2.85367 9.95949 3.18172 9.82846 3.48673C9.69744 3.79174 9.50699 4.0676 9.26821 4.29822L8.53621 5.03122C8.44191 5.1223 8.31561 5.1727 8.18451 5.17156C8.05341 5.17042 7.92801 5.11783 7.8353 5.02513C7.7426 4.93243 7.69001 4.80702 7.68887 4.67592C7.68773 4.54482 7.73813 4.41852 7.82921 4.32422L8.56121 3.59122C8.84261 3.30996 9.00074 2.92843 9.00084 2.53057C9.00093 2.13272 8.84297 1.75112 8.56171 1.46972C8.28045 1.18833 7.89892 1.03019 7.50106 1.03009C7.10321 1.03 6.72161 1.18796 6.44021 1.46922L5.70721 2.20122C5.61291 2.2923 5.48661 2.3427 5.35551 2.34156C5.22441 2.34042 5.09901 2.28783 5.0063 2.19513C4.9136 2.10243 4.86101 1.97702 4.85987 1.84592C4.85874 1.71482 4.90913 1.58852 5.00021 1.49422L5.73321 0.763221Z" data-svg-property="fill" fill="white"/>
</svg>
