<svg width="10" height="13" viewBox="0 0 10 13" fill="none" xmlns="http://www.w3.org/2000/svg">
<path data-svg-property="fill"  fill-rule="evenodd" clip-rule="evenodd" d="M7.783 10.7074C8.479 10.1034 9 9.13936 9 7.64936C9 6.61236 8.403 5.32136 7.507 4.01836C6.663 2.79136 5.657 1.70236 5 1.03836C4.342 1.70236 3.338 2.79136 2.493 4.01836C1.597 5.32236 1 6.61336 1 7.64936C1 9.14036 1.521 10.1034 2.217 10.7074C2.937 11.3304 3.938 11.6504 5 11.6504C6.062 11.6504 7.063 11.3304 7.783 10.7064M5 12.6494C7.5 12.6494 10 11.1494 10 7.64936C10 4.93736 7 1.62636 5.647 0.271359C5.56258 0.185429 5.46189 0.117177 5.3508 0.0705867C5.23971 0.0239961 5.12046 0 5 0C4.87954 0 4.76029 0.0239961 4.6492 0.0705867C4.53811 0.117177 4.43742 0.185429 4.353 0.271359C3 1.62736 0 4.93936 0 7.65036C0 11.1504 2.5 12.6494 5 12.6494Z" fill="white"/>
</svg>
