<svg width="10" height="13" viewBox="0 0 10 13" fill="none" xmlns="http://www.w3.org/2000/svg">
<path data-svg-property="fill"  fill-rule="evenodd" clip-rule="evenodd" d="M9 7.64418C9 9.13418 8.479 10.0972 7.783 10.7012C7.063 11.3242 6.062 11.6442 5 11.6442C3.938 11.6442 2.937 11.3242 2.217 10.7012C1.521 10.0972 1 9.13518 1 7.64418C1 6.60818 1.597 5.31618 2.493 4.01418C3.338 2.78618 4.343 1.69718 5 1.03418C5.658 1.69718 6.662 2.78618 7.507 4.01418C8.403 5.31618 9 6.60818 9 7.64418Z" fill="white" style="opacity:0.3"/>
<path data-svg-property="fill"  d="M4.353 0.270591C4.43764 0.184875 4.53847 0.116818 4.64962 0.0703683C4.76077 0.0239184 4.88003 0 5.0005 0C5.12097 0 5.24023 0.0239184 5.35138 0.0703683C5.46253 0.116818 5.56335 0.184875 5.648 0.270591C7 1.62559 10 4.93759 10 7.64959C10 11.1496 7.5 12.6496 5 12.6496C2.5 12.6496 0 11.1496 0 7.64959C0 4.93859 3 1.62659 4.352 0.271591M4.999 1.04159C4.341 1.70459 3.336 2.79159 2.492 4.01859C1.597 5.32059 1 6.61259 1 7.64959C1 9.13959 1.522 10.1026 2.218 10.7066C2.938 11.3296 3.938 11.6496 5 11.6496C6.062 11.6496 7.063 11.3296 7.782 10.7066C8.478 10.1016 9 9.13959 9 7.64859C9 6.61259 8.403 5.32059 7.507 4.01859C6.663 2.79159 5.657 1.70359 5 1.04059" fill="white"/>
</svg>
