<svg width="14" height="14" viewBox="0 0 14 14" fill="none" xmlns="http://www.w3.org/2000/svg">
<path data-svg-property="fill" fill-rule="evenodd" clip-rule="evenodd" d="M4.321 0.532024C4.44341 0.481331 4.58093 0.481292 4.70337 0.531916C4.8258 0.58254 4.92314 0.679688 4.974 0.802024L5.751 2.67802C5.853 2.92302 5.712 3.20202 5.466 3.30402C5.22 3.40602 4.929 3.30602 4.827 3.06002L4.05 1.18602C4.02477 1.1253 4.01177 1.06019 4.01175 0.994433C4.01172 0.928674 4.02466 0.863556 4.04983 0.802806C4.075 0.742057 4.11191 0.68687 4.15844 0.640405C4.20498 0.59394 4.26022 0.55711 4.321 0.532024ZM3.061 4.82702L1.186 4.05002C1.06347 3.99924 0.925783 3.9992 0.803228 4.04993C0.680673 4.10066 0.58329 4.19799 0.532501 4.32052C0.481712 4.44305 0.481678 4.58074 0.532407 4.7033C0.583135 4.82585 0.680471 4.92324 0.803001 4.97402L2.678 5.75102C2.924 5.85202 3.202 5.71102 3.304 5.46602C3.406 5.22002 3.307 4.93002 3.061 4.82702ZM2.678 8.24802L0.803001 9.02402C0.680471 9.07481 0.583135 9.1722 0.532407 9.29475C0.481678 9.41731 0.481712 9.55499 0.532501 9.67752C0.58329 9.80005 0.680673 9.89739 0.803228 9.94812C0.925783 9.99885 1.06347 9.99881 1.186 9.94802L3.061 9.17102C3.307 9.06902 3.406 8.77802 3.304 8.53202C3.202 8.28602 2.924 8.14602 2.678 8.24802ZM4.827 10.938L4.05 12.812C4.02485 12.8727 4.0119 12.9377 4.01188 13.0034C4.01187 13.0691 4.02479 13.1341 4.04991 13.1948C4.07502 13.2555 4.11185 13.3106 4.15828 13.3571C4.20471 13.4035 4.25983 13.4404 4.3205 13.4655C4.38117 13.4907 4.4462 13.5036 4.51188 13.5036C4.57755 13.5037 4.64259 13.4907 4.70327 13.4656C4.76396 13.4405 4.8191 13.4037 4.86555 13.3572C4.912 13.3108 4.94885 13.2557 4.974 13.195L5.751 11.32C5.853 11.075 5.711 10.796 5.466 10.694C5.221 10.592 4.929 10.692 4.827 10.938ZM11.322 5.75002L13.196 4.97302C13.2578 4.94873 13.3141 4.91237 13.3617 4.86607C13.4093 4.81977 13.4472 4.76446 13.4731 4.70336C13.4991 4.64227 13.5127 4.57661 13.513 4.51022C13.5133 4.44383 13.5004 4.37804 13.4751 4.31669C13.4497 4.25533 13.4124 4.19965 13.3653 4.15287C13.3181 4.1061 13.2622 4.06918 13.2007 4.04426C13.1391 4.01935 13.0732 4.00694 13.0068 4.00775C12.9405 4.00857 12.8749 4.0226 12.814 4.04902L10.939 4.82602C10.693 4.92702 10.593 5.21902 10.695 5.46502C10.797 5.71102 11.076 5.85102 11.322 5.75002ZM9.172 3.06002L9.949 1.18502C9.99979 1.06249 9.99982 0.924807 9.94909 0.802252C9.89837 0.679697 9.80103 0.582313 9.6785 0.531524C9.55597 0.480735 9.41828 0.480702 9.29573 0.53143C9.17317 0.582159 9.07579 0.679494 9.025 0.802024L8.249 2.67702C8.147 2.92202 8.288 3.20102 8.533 3.30302C8.779 3.40502 9.071 3.30502 9.173 3.05902M7.353 6.06102C7.17313 5.99338 6.97759 5.979 6.78976 6.01959C6.60193 6.06018 6.42978 6.15404 6.29389 6.28992C6.15801 6.4258 6.06416 6.59795 6.02357 6.78578C5.98297 6.97361 5.99736 7.16916 6.065 7.34902L8.315 13.349C8.39004 13.5485 8.52686 13.7188 8.70551 13.8351C8.88415 13.9514 9.09528 14.0075 9.30808 13.9954C9.52088 13.9832 9.72423 13.9033 9.88846 13.7675C10.0527 13.6316 10.1692 13.4468 10.221 13.24L10.826 10.822L13.244 10.218C13.4511 10.1664 13.6362 10.0498 13.7723 9.88541C13.9084 9.72101 13.9883 9.51738 14.0004 9.3043C14.0124 9.09122 13.956 8.87987 13.8394 8.70115C13.7227 8.52244 13.5519 8.38573 13.352 8.31102L7.353 6.06102ZM11.293 9.67502L10 10L9.677 11.29L9.25 13L8.632 11.35L7.466 8.24202L7 7.00002L8.243 7.46602L11.351 8.63102L13 9.25002L11.293 9.67502Z" fill="white"/>
</svg>
