<svg width="14" height="7" viewBox="0 0 14 7" fill="none" xmlns="http://www.w3.org/2000/svg">
<path fill-rule="evenodd" clip-rule="evenodd" d="M0.500022 0C0.776022 0 1.03302 0.223 1.14102 0.477C1.18436 0.579 1.24169 0.695 1.31302 0.825C1.55302 1.26 1.92602 1.763 2.43402 2.239C3.44202 3.184 4.95402 4 7.00002 4C9.04602 4 10.558 3.184 11.566 2.24C12.074 1.763 12.446 1.26 12.687 0.825C12.7584 0.695 12.8154 0.579 12.858 0.477C12.968 0.223 13.224 0 13.5 0C13.776 0 13.995 0.225 13.917 0.49C13.715 1.172 13.147 2.14 12.212 3.005L13.354 4.146C13.4479 4.23989 13.5007 4.36722 13.5007 4.5C13.5007 4.63278 13.4479 4.76011 13.354 4.854C13.2601 4.94789 13.1328 5.00063 13 5.00063C12.8672 5.00063 12.7399 4.94789 12.646 4.854L11.429 3.636C10.8482 4.04434 10.2117 4.36698 9.53902 4.594L9.98502 6.379C10.0137 6.50642 9.99137 6.64 9.92283 6.75117C9.85429 6.86234 9.74497 6.94228 9.61825 6.9739C9.49153 7.00551 9.35747 6.98629 9.24474 6.92034C9.13201 6.85439 9.04956 6.74695 9.01502 6.621L8.57202 4.851C8.05422 4.95239 7.52765 5.0023 7.00002 5C6.47236 5.00197 5.94579 4.95172 5.42802 4.85L4.98502 6.621C4.95048 6.74695 4.86803 6.85439 4.7553 6.92034C4.64257 6.98629 4.50851 7.00551 4.38179 6.9739C4.25507 6.94228 4.14575 6.86234 4.07721 6.75117C4.00867 6.64 3.98635 6.50642 4.01502 6.379L4.46102 4.594C3.78833 4.36698 3.1518 4.04434 2.57102 3.636L1.35402 4.854C1.30753 4.90049 1.25235 4.93736 1.19161 4.96252C1.13087 4.98768 1.06577 5.00063 1.00002 5.00063C0.934278 5.00063 0.869178 4.98768 0.808438 4.96252C0.747699 4.93736 0.69251 4.90049 0.646022 4.854C0.599534 4.80751 0.562658 4.75232 0.537499 4.69158C0.51234 4.63084 0.49939 4.56574 0.49939 4.5C0.49939 4.43426 0.51234 4.36916 0.537499 4.30842C0.562658 4.24768 0.599534 4.19249 0.646022 4.146L1.78802 3.004C0.853022 2.14 0.285022 1.172 0.0830223 0.49C0.0050223 0.225 0.223022 0 0.500022 0Z" data-svg-property="fill" fill="white"/>
</svg>
