<svg width="14" height="10" viewBox="0 0 14 10" fill="none" xmlns="http://www.w3.org/2000/svg">
<path fill-rule="evenodd" clip-rule="evenodd" d="M1 5C1 4.934 1.054 4.642 1.313 4.175C1.61165 3.64905 1.9894 3.17214 2.433 2.761C3.443 1.816 4.956 1 7 1C9.044 1 10.558 1.816 11.566 2.76C12.074 3.237 12.446 3.74 12.687 4.175C12.945 4.642 13 4.935 13 5C13 5.066 12.945 5.358 12.687 5.825C12.447 6.26 12.074 6.763 11.567 7.239C10.557 8.184 9.044 9 7 9C4.956 9 3.442 8.184 2.434 7.24C1.98996 6.82863 1.61187 6.35138 1.313 5.825C1.055 5.358 1 5.065 1 5ZM0 5C0 3.75 2.333 0 7 0C11.667 0 14 3.75 14 5C14 6.25 11.667 10 7 10C2.333 10 0 6.25 0 5ZM8 5C8 5.26522 7.89464 5.51957 7.70711 5.70711C7.51957 5.89464 7.26522 6 7 6C6.73478 6 6.48043 5.89464 6.29289 5.70711C6.10536 5.51957 6 5.26522 6 5C6 4.73478 6.10536 4.48043 6.29289 4.29289C6.48043 4.10536 6.73478 4 7 4C7.26522 4 7.51957 4.10536 7.70711 4.29289C7.89464 4.48043 8 4.73478 8 5ZM9 5C9 5.53043 8.78929 6.03914 8.41421 6.41421C8.03914 6.78929 7.53043 7 7 7C6.46957 7 5.96086 6.78929 5.58579 6.41421C5.21071 6.03914 5 5.53043 5 5C5 4.46957 5.21071 3.96086 5.58579 3.58579C5.96086 3.21071 6.46957 3 7 3C7.53043 3 8.03914 3.21071 8.41421 3.58579C8.78929 3.96086 9 4.46957 9 5Z" data-svg-property="fill" fill="white"/>
</svg>
