<svg width="12" height="12" viewBox="0 0 12 12" fill="none" xmlns="http://www.w3.org/2000/svg">
<path fill-rule="evenodd" clip-rule="evenodd" d="M0.853899 0.145899C0.807412 0.0994113 0.752222 0.062535 0.691483 0.0373759C0.630744 0.0122168 0.565643 -0.000732421 0.499899 -0.000732422C0.434156 -0.000732423 0.369055 0.0122168 0.308316 0.0373759C0.247576 0.062535 0.192387 0.0994114 0.145899 0.145899C0.0994114 0.192387 0.062535 0.247576 0.0373759 0.308316C0.0122168 0.369055 -0.000732423 0.434156 -0.000732422 0.499899C-0.000732421 0.565643 0.0122168 0.630744 0.0373759 0.691483C0.062535 0.752222 0.0994113 0.807412 0.145899 0.853899L2.2929 2.9999H0.499899C0.367291 2.9999 0.240114 3.05258 0.146346 3.14635C0.0525779 3.24011 -0.000100613 3.36729 -0.000100613 3.4999C-0.000100613 3.63251 0.0525779 3.75968 0.146346 3.85345C0.240114 3.94722 0.367291 3.9999 0.499899 3.9999H3.4999C3.63251 3.9999 3.75968 3.94722 3.85345 3.85345C3.94722 3.75968 3.9999 3.63251 3.9999 3.4999V0.499899C3.9999 0.367291 3.94722 0.240114 3.85345 0.146346C3.75968 0.0525779 3.63251 -0.000100613 3.4999 -0.000100613C3.36729 -0.000100613 3.24011 0.0525779 3.14635 0.146346C3.05258 0.240114 2.9999 0.367291 2.9999 0.499899V2.2929L0.853899 0.145899ZM2.9999 9.7069L0.853899 11.8539C0.760013 11.9478 0.632675 12.0005 0.499899 12.0005C0.367124 12.0005 0.239786 11.9478 0.145899 11.8539C0.0520127 11.76 -0.000732421 11.6327 -0.000732422 11.4999C-0.000732423 11.3671 0.0520127 11.2398 0.145899 11.1459L2.2929 8.9999H0.499899C0.367291 8.9999 0.240114 8.94722 0.146346 8.85345C0.0525779 8.75968 -0.000100613 8.63251 -0.000100613 8.4999C-0.000100613 8.36729 0.0525779 8.24011 0.146346 8.14635C0.240114 8.05258 0.367291 7.9999 0.499899 7.9999H3.4999C3.63251 7.9999 3.75968 8.05258 3.85345 8.14635C3.94722 8.24011 3.9999 8.36729 3.9999 8.4999V11.4999C3.9999 11.6325 3.94722 11.7597 3.85345 11.8535C3.75968 11.9472 3.63251 11.9999 3.4999 11.9999C3.36729 11.9999 3.24011 11.9472 3.14635 11.8535C3.05258 11.7597 2.9999 11.6325 2.9999 11.4999V9.7069ZM11.8539 0.146899C11.8075 0.100336 11.7523 0.0633935 11.6915 0.038187C11.6308 0.0129806 11.5657 5.72205e-06 11.4999 5.72205e-06C11.4341 5.72205e-06 11.369 0.0129806 11.3083 0.038187C11.2475 0.0633935 11.1923 0.100336 11.1459 0.146899L8.9999 2.2919V0.499899C8.9999 0.367291 8.94722 0.240114 8.85345 0.146346C8.75968 0.0525779 8.63251 -0.000100613 8.4999 -0.000100613C8.36729 -0.000100613 8.24011 0.0525779 8.14635 0.146346C8.05258 0.240114 7.9999 0.367291 7.9999 0.499899V3.4999C7.9999 3.63251 8.05258 3.75968 8.14635 3.85345C8.24011 3.94722 8.36729 3.9999 8.4999 3.9999H11.4999C11.6325 3.9999 11.7597 3.94722 11.8535 3.85345C11.9472 3.75968 11.9999 3.63251 11.9999 3.4999C11.9999 3.36729 11.9472 3.24011 11.8535 3.14635C11.7597 3.05258 11.6325 2.9999 11.4999 2.9999H9.7069L11.8539 0.853899C11.9005 0.807454 11.9374 0.752278 11.9626 0.691533C11.9878 0.630788 12.0008 0.565667 12.0008 0.499899C12.0008 0.434132 11.9878 0.369011 11.9626 0.308266C11.9374 0.247521 11.9005 0.193345 11.8539 0.146899ZM8.9999 9.7059L11.1459 11.8529C11.1924 11.8994 11.2476 11.9363 11.3083 11.9614C11.3691 11.9866 11.4342 11.9995 11.4999 11.9995C11.5656 11.9995 11.6307 11.9866 11.6915 11.9614C11.7522 11.9363 11.8074 11.8994 11.8539 11.8529C11.9004 11.8064 11.9373 11.7512 11.9624 11.6905C11.9876 11.6297 12.0005 11.5646 12.0005 11.4989C12.0005 11.4332 11.9876 11.3681 11.9624 11.3073C11.9373 11.2466 11.9004 11.1914 11.8539 11.1449L9.7069 8.9999H11.4999C11.6325 8.9999 11.7597 8.94722 11.8535 8.85345C11.9472 8.75968 11.9999 8.63251 11.9999 8.4999C11.9999 8.36729 11.9472 8.24011 11.8535 8.14635C11.7597 8.05258 11.6325 7.9999 11.4999 7.9999H8.4999C8.36729 7.9999 8.24011 8.05258 8.14635 8.14635C8.05258 8.24011 7.9999 8.36729 7.9999 8.4999V11.4999C7.9999 11.6325 8.05258 11.7597 8.14635 11.8535C8.24011 11.9472 8.36729 11.9999 8.4999 11.9999C8.63251 11.9999 8.75968 11.9472 8.85345 11.8535C8.94722 11.7597 8.9999 11.6325 8.9999 11.4999V9.7059Z" data-svg-property="fill" fill="white"/>
</svg>
