<svg width="11" height="6" viewBox="0 0 11 6" fill="none" xmlns="http://www.w3.org/2000/svg">
<path data-svg-property="fill" fill-rule="evenodd" clip-rule="evenodd" d="M10.5 0C10.6326 0 10.7598 0.052678 10.8536 0.146446C10.9473 0.240214 11 0.367392 11 0.5V5.5C11 5.63261 10.9473 5.75979 10.8536 5.85355C10.7598 5.94732 10.6326 6 10.5 6C10.3674 6 10.2402 5.94732 10.1464 5.85355C10.0527 5.75979 10 5.63261 10 5.5V3.5H1V5.5C1 5.63261 0.947321 5.75979 0.853553 5.85355C0.759785 5.94732 0.632608 6 0.5 6C0.367392 6 0.240215 5.94732 0.146447 5.85355C0.0526785 5.75979 0 5.63261 0 5.5V0.5C0 0.367392 0.0526785 0.240214 0.146447 0.146446C0.240215 0.052678 0.367392 0 0.5 0C0.632608 0 0.759785 0.052678 0.853553 0.146446C0.947321 0.240214 1 0.367392 1 0.5V2.5H10V0.5C10 0.367392 10.0527 0.240214 10.1464 0.146446C10.2402 0.052678 10.3674 0 10.5 0Z" fill="white"/>
</svg>
