<svg width="7" height="11" viewBox="0 0 7 11" fill="none" xmlns="http://www.w3.org/2000/svg">
<path data-svg-property="fill" fill-rule="evenodd" clip-rule="evenodd" d="M0.5 0.5C0.5 0.367392 0.552678 0.240215 0.646446 0.146447C0.740214 0.0526785 0.867392 0 1 0H6C6.13261 0 6.25979 0.0526785 6.35355 0.146447C6.44732 0.240215 6.5 0.367392 6.5 0.5C6.5 0.632608 6.44732 0.759785 6.35355 0.853553C6.25979 0.947321 6.13261 1 6 1H4V10H6C6.13261 10 6.25979 10.0527 6.35355 10.1464C6.44732 10.2402 6.5 10.3674 6.5 10.5C6.5 10.6326 6.44732 10.7598 6.35355 10.8536C6.25979 10.9473 6.13261 11 6 11H1C0.867392 11 0.740214 10.9473 0.646446 10.8536C0.552678 10.7598 0.5 10.6326 0.5 10.5C0.5 10.3674 0.552678 10.2402 0.646446 10.1464C0.740214 10.0527 0.867392 10 1 10H3V1H1C0.867392 1 0.740214 0.947321 0.646446 0.853553C0.552678 0.759785 0.5 0.632608 0.5 0.5Z" fill="white"/>
</svg>
