<svg width="12" height="12" viewBox="0 0 12 12" fill="none" xmlns="http://www.w3.org/2000/svg">
<path fill-rule="evenodd" clip-rule="evenodd" d="M11.5 6.5C11.6326 6.5 11.7598 6.44732 11.8536 6.35355C11.9473 6.25979 12 6.13261 12 6C12 5.86739 11.9473 5.74021 11.8536 5.64645C11.7598 5.55268 11.6326 5.5 11.5 5.5H0.5C0.367392 5.5 0.240215 5.55268 0.146447 5.64645C0.0526785 5.74021 0 5.86739 0 6C0 6.13261 0.0526785 6.25979 0.146447 6.35355C0.240215 6.44732 0.367392 6.5 0.5 6.5H11.5ZM8.896 12C9.04424 11.9999 9.18912 11.9558 9.31233 11.8734C9.43555 11.791 9.53158 11.6739 9.58829 11.5369C9.645 11.4 9.65985 11.2493 9.63097 11.1039C9.60208 10.9585 9.53076 10.8249 9.426 10.72L6.708 8C6.52047 7.81253 6.26616 7.70721 6.001 7.70721C5.73584 7.70721 5.48153 7.81253 5.294 8L2.574 10.72C2.46924 10.8249 2.39792 10.9585 2.36903 11.1039C2.34015 11.2493 2.355 11.4 2.41171 11.5369C2.46842 11.6739 2.56445 11.791 2.68767 11.8734C2.81088 11.9558 2.95576 11.9999 3.104 12H8.896ZM8.293 11H3.707L6 8.707L8.293 11ZM8.896 0C9.04424 0.000130387 9.18912 0.044188 9.31233 0.126608C9.43555 0.209028 9.53158 0.326113 9.58829 0.463077C9.645 0.60004 9.65985 0.750737 9.63097 0.896136C9.60208 1.04154 9.53076 1.17511 9.426 1.28L6.708 4C6.52047 4.18747 6.26616 4.29279 6.001 4.29279C5.73584 4.29279 5.48153 4.18747 5.294 4L2.574 1.28C2.4693 1.17517 2.398 1.04169 2.36908 0.896381C2.34017 0.751075 2.35493 0.60046 2.41152 0.463537C2.46811 0.326615 2.56398 0.209519 2.68704 0.127023C2.81011 0.0445275 2.95484 0.000327549 3.103 0H8.896ZM8.293 1H3.707L6 3.293L8.293 1Z" data-svg-property="fill" fill="white"/>
</svg>
