<svg width="12" height="12" viewBox="0 0 12 12" fill="none" xmlns="http://www.w3.org/2000/svg">
<path fill-rule="evenodd" clip-rule="evenodd" d="M6.5 0.5C6.5 0.367392 6.44732 0.240215 6.35355 0.146447C6.25979 0.0526785 6.13261 0 6 0C5.86739 0 5.74021 0.0526785 5.64645 0.146447C5.55268 0.240215 5.5 0.367392 5.5 0.5V11.5C5.5 11.6326 5.55268 11.7598 5.64645 11.8536C5.74021 11.9473 5.86739 12 6 12C6.13261 12 6.25979 11.9473 6.35355 11.8536C6.44732 11.7598 6.5 11.6326 6.5 11.5V0.5ZM0 3.104C0.000130387 2.95576 0.044188 2.81088 0.126608 2.68767C0.209028 2.56445 0.326113 2.46842 0.463077 2.41171C0.60004 2.355 0.750737 2.34015 0.896136 2.36903C1.04154 2.39792 1.17511 2.46924 1.28 2.574L4 5.292C4.18747 5.47953 4.29279 5.73384 4.29279 5.999C4.29279 6.26416 4.18747 6.51847 4 6.706L1.28 9.426C1.17511 9.53076 1.04154 9.60208 0.896136 9.63097C0.750737 9.65985 0.60004 9.645 0.463077 9.58829C0.326113 9.53158 0.209028 9.43555 0.126608 9.31233C0.044188 9.18912 0.000130387 9.04424 0 8.896V3.104ZM1 3.707V8.293L3.293 6L1 3.707ZM12 3.104C11.9999 2.95576 11.9558 2.81088 11.8734 2.68767C11.791 2.56445 11.6739 2.46842 11.5369 2.41171C11.4 2.355 11.2493 2.34015 11.1039 2.36903C10.9585 2.39792 10.8249 2.46924 10.72 2.574L8 5.292C7.81253 5.47953 7.70721 5.73384 7.70721 5.999C7.70721 6.26416 7.81253 6.51847 8 6.706L10.72 9.426C10.8249 9.53076 10.9585 9.60208 11.1039 9.63097C11.2493 9.65985 11.4 9.645 11.5369 9.58829C11.6739 9.53158 11.791 9.43555 11.8734 9.31233C11.9558 9.18912 11.9999 9.04424 12 8.896V3.104ZM11 3.707V8.293L8.707 6L11 3.707Z" data-svg-property="fill" fill="white"/>
</svg>
