<svg width="12" height="12" viewBox="0 0 12 12" fill="none" xmlns="http://www.w3.org/2000/svg">
<path d="M9.14704 7.147C9.2408 7.05326 9.36795 7.00061 9.50054 7.00061C9.63312 7.00061 9.76027 7.05326 9.85404 7.147L11.854 9.147C11.9478 9.24076 12.0004 9.36792 12.0004 9.5005C12.0004 9.63308 11.9478 9.76024 11.854 9.854L9.85404 11.854C9.75974 11.9451 9.63343 11.9955 9.50234 11.9943C9.37124 11.9932 9.24583 11.9406 9.15313 11.8479C9.06042 11.7552 9.00784 11.6298 9.0067 11.4987C9.00556 11.3676 9.05596 11.2413 9.14704 11.147L10.293 10H0.500036L0.399036 9.99C0.286008 9.96705 0.184389 9.90573 0.111399 9.81643C0.0384084 9.72713 -0.00146484 9.61534 -0.00146484 9.5C-0.00146484 9.38466 0.0384084 9.27287 0.111399 9.18357C0.184389 9.09427 0.286008 9.03295 0.399036 9.01L0.500036 9H10.293L9.14704 7.854C9.0533 7.76024 9.00064 7.63308 9.00064 7.5005C9.00064 7.36792 9.0533 7.24076 9.14704 7.147ZM3.65404 0.00699997C4.0234 0.0451223 4.36549 0.218889 4.61412 0.494679C4.86276 0.770469 5.00027 1.12868 5.00004 1.5V3.5L4.99304 3.653C4.95799 3.99645 4.80556 4.31729 4.56144 4.56141C4.31733 4.80552 3.99648 4.95796 3.65304 4.993L3.50004 5H1.50004L1.34704 4.992C1.00392 4.95678 0.683429 4.80439 0.439536 4.5605C0.195643 4.31661 0.0432544 3.99611 0.00803614 3.653L3.62396e-05 3.5V1.5C7.99544e-05 1.12869 0.137837 0.770602 0.386655 0.494999C0.635473 0.219396 0.977668 0.045873 1.34704 0.0079999L1.50004 0H3.50004L3.65404 0.00699997ZM10.654 0.00699997C11.0234 0.0451223 11.3655 0.218889 11.6141 0.494679C11.8628 0.770469 12.0003 1.12868 12 1.5V3.5L11.993 3.653C11.958 3.99645 11.8056 4.31729 11.5614 4.56141C11.3173 4.80552 10.9965 4.95796 10.653 4.993L10.5 5H8.50004L8.34704 4.992C8.00392 4.95678 7.68343 4.80439 7.43954 4.5605C7.19564 4.31661 7.04325 3.99611 7.00804 3.653L7.00004 3.5V1.5C7.00008 1.12869 7.13784 0.770602 7.38665 0.494999C7.63547 0.219396 7.97767 0.045873 8.34704 0.0079999L8.50004 0H10.5L10.654 0.00699997ZM8.50004 1C8.36743 1 8.24025 1.05268 8.14648 1.14645C8.05271 1.24021 8.00004 1.36739 8.00004 1.5V3.5C8.00004 3.63261 8.05271 3.75979 8.14648 3.85355C8.24025 3.94732 8.36743 4 8.50004 4H10.5C10.6326 4 10.7598 3.94732 10.8536 3.85355C10.9474 3.75979 11 3.63261 11 3.5V1.5C11 1.36739 10.9474 1.24021 10.8536 1.14645C10.7598 1.05268 10.6326 1 10.5 1H8.50004ZM1.50004 1C1.36743 1 1.24025 1.05268 1.14648 1.14645C1.05271 1.24021 1.00004 1.36739 1.00004 1.5V3.5C1.00004 3.63261 1.05271 3.75979 1.14648 3.85355C1.24025 3.94732 1.36743 4 1.50004 4H3.50004C3.63264 4 3.75982 3.94732 3.85359 3.85355C3.94736 3.75979 4.00004 3.63261 4.00004 3.5V1.5C4.00004 1.36739 3.94736 1.24021 3.85359 1.14645C3.75982 1.05268 3.63264 1 3.50004 1H1.50004Z" data-svg-property="fill"  fill="white"/>
</svg>
