<svg width="12" height="12" viewBox="0 0 12 12" fill="none" xmlns="http://www.w3.org/2000/svg">
<path d="M5.653 7.008C6.02237 7.04587 6.36456 7.2194 6.61338 7.495C6.8622 7.7706 6.99996 8.12869 7 8.5V10.5L6.992 10.653C6.957 10.9963 6.80471 11.317 6.56079 11.5611C6.31688 11.8052 5.99627 11.9577 5.653 11.993L5.5 12H3.5L3.347 11.992C3.00371 11.957 2.68298 11.8047 2.43889 11.5608C2.19479 11.3169 2.04226 10.9963 2.007 10.653L2 10.5V8.5C2.00004 8.12869 2.1378 7.7706 2.38662 7.495C2.63544 7.2194 2.97763 7.04587 3.347 7.008L3.5 7H5.5L5.653 7.008ZM3.5 8C3.36739 8 3.24021 8.05268 3.14645 8.14645C3.05268 8.24021 3 8.36739 3 8.5V10.5C3 10.6326 3.05268 10.7598 3.14645 10.8536C3.24021 10.9473 3.36739 11 3.5 11H5.5C5.63261 11 5.75979 10.9473 5.85355 10.8536C5.94732 10.7598 6 10.6326 6 10.5V8.5C6 8.36739 5.94732 8.24021 5.85355 8.14645C5.75979 8.05268 5.63261 8 5.5 8H3.5ZM10.653 2.008C11.0224 2.04587 11.3646 2.2194 11.6134 2.495C11.8622 2.7706 12 3.12869 12 3.5V5.5L11.992 5.653C11.957 5.99629 11.8047 6.31702 11.5608 6.56111C11.3169 6.80521 10.9963 6.95774 10.653 6.993L10.5 7H8.5L8.347 6.992C8.00371 6.957 7.68298 6.80471 7.43889 6.56079C7.19479 6.31688 7.04226 5.99627 7.007 5.653L7 5.5V3.5C7.00004 3.12869 7.1378 2.7706 7.38662 2.495C7.63544 2.2194 7.97763 2.04587 8.347 2.008L8.5 2H10.5L10.653 2.008ZM8.5 3C8.36739 3 8.24021 3.05268 8.14645 3.14645C8.05268 3.24021 8 3.36739 8 3.5V5.5C8 5.63261 8.05268 5.75979 8.14645 5.85355C8.24021 5.94732 8.36739 6 8.5 6H10.5C10.6326 6 10.7598 5.94732 10.8536 5.85355C10.9473 5.75979 11 5.63261 11 5.5V3.5C11 3.36739 10.9473 3.24021 10.8536 3.14645C10.7598 3.05268 10.6326 3 10.5 3H8.5ZM3.653 0.0079999C4.02237 0.045873 4.36456 0.219396 4.61338 0.494999C4.8622 0.770602 4.99996 1.12869 5 1.5V3.5L4.992 3.653C4.957 3.99629 4.80471 4.31702 4.56079 4.56111C4.31688 4.80521 3.99627 4.95774 3.653 4.993L3.5 5H1.5L1.347 4.992C1.00371 4.957 0.68298 4.80471 0.438885 4.56079C0.194791 4.31688 0.042258 3.99627 0.00699997 3.653L0 3.5V1.5C4.37148e-05 1.12869 0.1378 0.770602 0.386619 0.494999C0.635437 0.219396 0.977632 0.045873 1.347 0.0079999L1.5 0H3.5L3.653 0.0079999ZM1.5 1C1.36739 1 1.24021 1.05268 1.14645 1.14645C1.05268 1.24021 1 1.36739 1 1.5V3.5C1 3.63261 1.05268 3.75979 1.14645 3.85355C1.24021 3.94732 1.36739 4 1.5 4H3.5C3.63261 4 3.75979 3.94732 3.85355 3.85355C3.94732 3.75979 4 3.63261 4 3.5V1.5C4 1.36739 3.94732 1.24021 3.85355 1.14645C3.75979 1.05268 3.63261 1 3.5 1H1.5Z" data-svg-property="fill"  fill="white"/>
</svg>
