<svg width="12" height="12" viewBox="0 0 12 12" fill="none" xmlns="http://www.w3.org/2000/svg">
<path fill-rule="evenodd" clip-rule="evenodd" d="M1.5 1H3.5C3.776 1 4 1.224 4 1.5V3.5C4 3.776 3.776 4 3.5 4H1.5C1.224 4 1 3.776 1 3.5V1.5C1 1.224 1.224 1 1.5 1ZM0 1.5C0 0.672 0.672 0 1.5 0H3.5C4.328 0 5 0.672 5 1.5V3.5C5 4.328 4.328 5 3.5 5H1.5C0.672 5 0 4.328 0 3.5V1.5ZM1.5 8H3.5C3.776 8 4 8.224 4 8.5V10.5C4 10.776 3.776 11 3.5 11H1.5C1.224 11 1 10.776 1 10.5V8.5C1 8.224 1.224 8 1.5 8ZM0 8.5C0 7.672 0.672 7 1.5 7H3.5C4.328 7 5 7.672 5 8.5V10.5C5 11.328 4.328 12 3.5 12H1.5C0.672 12 0 11.328 0 10.5V8.5ZM10.5 1H8.5C8.224 1 8 1.224 8 1.5V3.5C8 3.776 8.224 4 8.5 4H10.5C10.776 4 11 3.776 11 3.5V1.5C11 1.224 10.776 1 10.5 1ZM8.5 0C7.672 0 7 0.672 7 1.5V3.5C7 4.328 7.672 5 8.5 5H10.5C11.328 5 12 4.328 12 3.5V1.5C12 0.672 11.328 0 10.5 0H8.5ZM8.5 8H10.5C10.776 8 11 8.224 11 8.5V10.5C11 10.776 10.776 11 10.5 11H8.5C8.224 11 8 10.776 8 10.5V8.5C8 8.224 8.224 8 8.5 8ZM7 8.5C7 7.672 7.672 7 8.5 7H10.5C11.328 7 12 7.672 12 8.5V10.5C12 11.328 11.328 12 10.5 12H8.5C7.672 12 7 11.328 7 10.5V8.5Z" data-svg-property="fill"  fill="white"/>
</svg>
