<svg width="12" height="12" viewBox="0 0 12 12" fill="none" xmlns="http://www.w3.org/2000/svg">
<path d="M3.654 7.008C4.02319 7.04611 4.36514 7.21973 4.61375 7.49531C4.86236 7.77089 4.99998 8.12885 5 8.5V10.5L4.992 10.653C4.95704 10.9961 4.80489 11.3167 4.56118 11.5608C4.31747 11.8049 3.99709 11.9575 3.654 11.993L3.5 12H1.5L1.347 11.992C1.00389 11.9568 0.683392 11.8044 0.4395 11.5605C0.195607 11.3166 0.0432182 10.9961 0.0079999 10.653L0 10.5V8.5C4.37148e-05 8.12869 0.1378 7.7706 0.386619 7.495C0.635437 7.2194 0.977632 7.04587 1.347 7.008L1.5 7H3.5L3.654 7.008ZM9.5 1.04228e-08C9.61527 -2.35151e-05 9.727 0.0397784 9.81629 0.112669C9.90558 0.185561 9.96695 0.287064 9.99 0.4L10 0.5V10.294L11.146 9.148C11.2413 9.06226 11.3659 9.01634 11.4941 9.01969C11.6223 9.02305 11.7443 9.07541 11.835 9.16601C11.9257 9.25661 11.9783 9.37855 11.9818 9.50672C11.9853 9.63489 11.9396 9.75954 11.854 9.855L9.854 11.855C9.76024 11.9487 9.63308 12.0014 9.5005 12.0014C9.36792 12.0014 9.24076 11.9487 9.147 11.855L7.147 9.855C7.05592 9.7607 7.00552 9.6344 7.00666 9.5033C7.0078 9.3722 7.06039 9.24679 7.15309 9.15409C7.24579 9.06139 7.3712 9.0088 7.5023 9.00766C7.6334 9.00652 7.7597 9.05692 7.854 9.148L9 10.294V0.5L9.01 0.4C9.03305 0.287064 9.09442 0.185561 9.18371 0.112669C9.273 0.0397784 9.38473 -2.35151e-05 9.5 1.04228e-08ZM1.5 8C1.36739 8 1.24021 8.05268 1.14645 8.14645C1.05268 8.24021 1 8.36739 1 8.5V10.5C1 10.6326 1.05268 10.7598 1.14645 10.8536C1.24021 10.9473 1.36739 11 1.5 11H3.5C3.63261 11 3.75979 10.9473 3.85355 10.8536C3.94732 10.7598 4 10.6326 4 10.5V8.5C4 8.36739 3.94732 8.24021 3.85355 8.14645C3.75979 8.05268 3.63261 8 3.5 8H1.5ZM3.654 0.00799991C4.02319 0.0461046 4.36514 0.219728 4.61375 0.495307C4.86236 0.770887 4.99998 1.12885 5 1.5V3.5L4.992 3.653C4.95704 3.99614 4.80489 4.31675 4.56118 4.56082C4.31747 4.8049 3.99709 4.95753 3.654 4.993L3.5 5H1.5L1.347 4.992C1.00389 4.95678 0.683392 4.80439 0.4395 4.5605C0.195607 4.31661 0.0432182 3.99611 0.0079999 3.653L0 3.5V1.5C4.37148e-05 1.12869 0.1378 0.770602 0.386619 0.494999C0.635437 0.219396 0.977632 0.045873 1.347 0.00799991L1.5 1.04228e-08H3.5L3.654 0.00799991ZM1.5 1C1.36739 1 1.24021 1.05268 1.14645 1.14645C1.05268 1.24021 1 1.36739 1 1.5V3.5C1 3.63261 1.05268 3.75979 1.14645 3.85355C1.24021 3.94732 1.36739 4 1.5 4H3.5C3.63261 4 3.75979 3.94732 3.85355 3.85355C3.94732 3.75979 4 3.63261 4 3.5V1.5C4 1.36739 3.94732 1.24021 3.85355 1.14645C3.75979 1.05268 3.63261 1 3.5 1H1.5Z" data-svg-property="fill"  fill="white"/>
</svg>
