<svg width="16" height="16" viewBox="0 0 16 16" fill="none" xmlns="http://www.w3.org/2000/svg">
<path  clip-rule="evenodd" d="M3.5 0C3.36739 0 3.24021 0.0526785 3.14645 0.146447C3.05268 0.240215 3 0.367392 3 0.5V3H0.5C0.367392 3 0.240215 3.05268 0.146447 3.14645C0.0526785 3.24021 0 3.36739 0 3.5C0 3.63261 0.0526785 3.75979 0.146447 3.85355C0.240215 3.94732 0.367392 4 0.5 4H3V12H0.5C0.367392 12 0.240215 12.0527 0.146447 12.1464C0.0526785 12.2402 0 12.3674 0 12.5C0 12.6326 0.0526785 12.7598 0.146447 12.8536C0.240215 12.9473 0.367392 13 0.5 13H3V15.5C3 15.6326 3.05268 15.7598 3.14645 15.8536C3.24021 15.9473 3.36739 16 3.5 16C3.63261 16 3.75979 15.9473 3.85355 15.8536C3.94732 15.7598 4 15.6326 4 15.5V13H12V15.5C12 15.6326 12.0527 15.7598 12.1464 15.8536C12.2402 15.9473 12.3674 16 12.5 16C12.6326 16 12.7598 15.9473 12.8536 15.8536C12.9473 15.7598 13 15.6326 13 15.5V13H15.5C15.6326 13 15.7598 12.9473 15.8536 12.8536C15.9473 12.7598 16 12.6326 16 12.5C16 12.3674 15.9473 12.2402 15.8536 12.1464C15.7598 12.0527 15.6326 12 15.5 12H13V4H15.5C15.6326 4 15.7598 3.94732 15.8536 3.85355C15.9473 3.75979 16 3.63261 16 3.5C16 3.36739 15.9473 3.24021 15.8536 3.14645C15.7598 3.05268 15.6326 3 15.5 3H13V0.5C13 0.367392 12.9473 0.240215 12.8536 0.146447C12.7598 0.0526785 12.6326 0 12.5 0C12.3674 0 12.2402 0.0526785 12.1464 0.146447C12.0527 0.240215 12 0.367392 12 0.5V3H4V0.5C4 0.367392 3.94732 0.240215 3.85355 0.146447C3.75979 0.0526785 3.63261 0 3.5 0ZM12 4H4V12H12V4Z" data-svg-property="fill" fill="white" fill-rule="evenodd"/>
</svg>
