<svg width="9" height="9" viewBox="0 0 9 9" fill="none" xmlns="http://www.w3.org/2000/svg">
<path fill-rule="evenodd" clip-rule="evenodd" d="M8 7.75C8 7.888 8.112 8 8.25 8H8.5C8.63261 8 8.75979 8.05268 8.85355 8.14645C8.94732 8.24021 9 8.36739 9 8.5C9 8.63261 8.94732 8.75979 8.85355 8.85355C8.75979 8.94732 8.63261 9 8.5 9H8.25C7.56 9 7 8.44 7 7.75V1.25C7 0.56 7.56 0 8.25 0H8.5C8.63261 0 8.75979 0.0526785 8.85355 0.146447C8.94732 0.240215 9 0.367392 9 0.5C9 0.632608 8.94732 0.759785 8.85355 0.853553C8.75979 0.947321 8.63261 1 8.5 1H8.25C8.1837 1 8.12011 1.02634 8.07322 1.07322C8.02634 1.12011 8 1.1837 8 1.25V7.75ZM0 8.5C0 8.36739 0.0526785 8.24021 0.146447 8.14645C0.240215 8.05268 0.367392 8 0.5 8H0.75C0.816304 8 0.879893 7.97366 0.926777 7.92678C0.973661 7.87989 1 7.8163 1 7.75V1.25C1 1.1837 0.973661 1.12011 0.926777 1.07322C0.879893 1.02634 0.816304 1 0.75 1H0.5C0.367392 1 0.240215 0.947321 0.146447 0.853553C0.0526785 0.759785 0 0.632608 0 0.5C0 0.367392 0.0526785 0.240215 0.146447 0.146447C0.240215 0.0526785 0.367392 0 0.5 0H0.75C1.44 0 2 0.56 2 1.25V7.75C2 8.44 1.44 9 0.75 9H0.5C0.367392 9 0.240215 8.94732 0.146447 8.85355C0.0526785 8.75979 0 8.63261 0 8.5ZM4 6.5C4 6.63261 4.05268 6.75979 4.14645 6.85355C4.24021 6.94732 4.36739 7 4.5 7C4.63261 7 4.75979 6.94732 4.85355 6.85355C4.94732 6.75979 5 6.63261 5 6.5V2.5C5 2.36739 4.94732 2.24021 4.85355 2.14645C4.75979 2.05268 4.63261 2 4.5 2C4.36739 2 4.24021 2.05268 4.14645 2.14645C4.05268 2.24021 4 2.36739 4 2.5V6.5Z" data-svg-property="fill"  fill="white"/>
</svg>
