<svg width="9" height="9" viewBox="0 0 9 9" fill="none" xmlns="http://www.w3.org/2000/svg">
<path fill-rule="evenodd" clip-rule="evenodd" d="M0.5 0C0.632608 0 0.759785 0.0526785 0.853553 0.146447C0.947321 0.240215 1 0.367392 1 0.5V0.75C1 0.888 1.112 1 1.25 1H7.75C7.8163 1 7.87989 0.973661 7.92678 0.926777C7.97366 0.879893 8 0.816304 8 0.75V0.5C8 0.367392 8.05268 0.240215 8.14645 0.146447C8.24021 0.0526785 8.36739 0 8.5 0C8.63261 0 8.75979 0.0526785 8.85355 0.146447C8.94732 0.240215 9 0.367392 9 0.5V0.75C9 1.44 8.44 2 7.75 2H1.25C0.56 2 0 1.44 0 0.75V0.5C0 0.367392 0.0526785 0.240215 0.146447 0.146447C0.240215 0.0526785 0.367392 0 0.5 0ZM1.25 8C1.1837 8 1.12011 8.02634 1.07322 8.07322C1.02634 8.12011 1 8.1837 1 8.25V8.5C1 8.63261 0.947321 8.75979 0.853553 8.85355C0.759785 8.94732 0.632608 9 0.5 9C0.367392 9 0.240215 8.94732 0.146447 8.85355C0.0526785 8.75979 0 8.63261 0 8.5V8.25C0 7.56 0.56 7 1.25 7H7.75C8.44 7 9 7.56 9 8.25V8.5C9 8.63261 8.94732 8.75979 8.85355 8.85355C8.75979 8.94732 8.63261 9 8.5 9C8.36739 9 8.24021 8.94732 8.14645 8.85355C8.05268 8.75979 8 8.63261 8 8.5V8.25C8 8.1837 7.97366 8.12011 7.92678 8.07322C7.87989 8.02634 7.8163 8 7.75 8H1.25ZM2.5 4C2.36739 4 2.24021 4.05268 2.14645 4.14645C2.05268 4.24021 2 4.36739 2 4.5C2 4.63261 2.05268 4.75979 2.14645 4.85355C2.24021 4.94732 2.36739 5 2.5 5H6.5C6.63261 5 6.75979 4.94732 6.85355 4.85355C6.94732 4.75979 7 4.63261 7 4.5C7 4.36739 6.94732 4.24021 6.85355 4.14645C6.75979 4.05268 6.63261 4 6.5 4H2.5Z" data-svg-property="fill"  fill="white"/>
</svg>
