<svg width="12" height="14" viewBox="0 0 12 14" fill="none" xmlns="http://www.w3.org/2000/svg">
<path data-svg-property="fill"  fill-rule="evenodd" clip-rule="evenodd" d="M12 0.5C12 0.632608 11.9473 0.759785 11.8536 0.853553C11.7598 0.947321 11.6326 1 11.5 1H0.5C0.367392 1 0.240215 0.947321 0.146447 0.853553C0.0526785 0.759785 0 0.632608 0 0.5C0 0.367392 0.0526785 0.240215 0.146447 0.146447C0.240215 0.0526785 0.367392 0 0.5 0H11.5C11.6326 0 11.7598 0.0526785 11.8536 0.146447C11.9473 0.240215 12 0.367392 12 0.5ZM12 13.5C12 13.6326 11.9473 13.7598 11.8536 13.8536C11.7598 13.9473 11.6326 14 11.5 14H0.5C0.367392 14 0.240215 13.9473 0.146447 13.8536C0.0526785 13.7598 0 13.6326 0 13.5C0 13.3674 0.0526785 13.2402 0.146447 13.1464C0.240215 13.0527 0.367392 13 0.5 13H11.5C11.6326 13 11.7598 13.0527 11.8536 13.1464C11.9473 13.2402 12 13.3674 12 13.5ZM2.845 3V11H3.935V7.469H8.064V11H9.15V3H8.064V6.52H3.935V3H2.845Z" fill="white"/>
</svg>
