<svg width="14" height="12" viewBox="0 0 14 12" fill="none" xmlns="http://www.w3.org/2000/svg">
<path data-svg-property="fill"  d="M8.63103 0.0180015C8.74182 0.04834 8.83879 0.115903 8.90563 0.209329C8.97246 0.302755 9.00509 0.416347 8.99803 0.531001L8.98203 0.631001L5.98203 11.631L5.94603 11.726C5.88909 11.8351 5.79397 11.9195 5.67883 11.9629C5.56368 12.0064 5.43656 12.006 5.32172 11.9617C5.20687 11.9174 5.11233 11.8325 5.05614 11.723C4.99994 11.6135 4.98602 11.4871 5.01703 11.368L8.01703 0.368001L8.05303 0.274002C8.10514 0.171285 8.19112 0.0897106 8.29644 0.0430664C8.40175 -0.00357782 8.51994 -0.0124314 8.63103 0.0180015ZM3.22403 2.582C3.32029 2.51952 3.43508 2.49199 3.54922 2.504C3.66335 2.51601 3.76989 2.56684 3.85104 2.64798C3.93219 2.72913 3.98302 2.83568 3.99503 2.94981C4.00704 3.06394 3.97951 3.17874 3.91703 3.275L3.85303 3.354L1.20603 6L3.85303 8.647C3.94411 8.7413 3.9945 8.8676 3.99336 8.9987C3.99222 9.1298 3.93964 9.25521 3.84694 9.34791C3.75423 9.44061 3.62883 9.4932 3.49773 9.49434C3.36663 9.49548 3.24033 9.44508 3.14603 9.354L0.146027 6.354C0.0522916 6.26024 -0.000366211 6.13308 -0.000366211 6.0005C-0.000366211 5.86792 0.0522916 5.74077 0.146027 5.647L3.14603 2.647L3.22403 2.582ZM10.146 2.647C10.2398 2.55327 10.3669 2.50061 10.4995 2.50061C10.6321 2.50061 10.7593 2.55327 10.853 2.647L13.853 5.647C13.9468 5.74077 13.9994 5.86792 13.9994 6.0005C13.9994 6.13308 13.9468 6.26024 13.853 6.354L10.853 9.354L10.775 9.418C10.6789 9.48232 10.5634 9.51131 10.4483 9.50005C10.3332 9.48879 10.2256 9.43796 10.1437 9.35623C10.0619 9.27451 10.0109 9.16693 9.99945 9.05183C9.98802 8.93673 10.0169 8.82123 10.081 8.725L10.146 8.647L12.792 6L10.146 3.354C10.0523 3.26024 9.99963 3.13308 9.99963 3.0005C9.99963 2.86792 10.0523 2.74077 10.146 2.647Z" fill="white"/>
</svg>
