<svg width="18" height="24" viewBox="0 0 18 24" fill="none" xmlns="http://www.w3.org/2000/svg">
<path d="M0 0C1.32608 0 2.59785 0.526784 3.53553 1.46447C4.47322 2.40215 5 3.67392 5 5C5 7.66667 6.33333 9 9 9C11.6667 9 13 7.66667 13 5C13 3.67392 13.5268 2.40215 14.4645 1.46447C15.4021 0.526784 16.6739 0 18 0V24C16.6739 24 15.4021 23.4732 14.4645 22.5355C13.5268 21.5979 13 20.3261 13 19C13 16.3333 11.6667 15 9 15C6.33333 15 5 16.3333 5 19C5 19.6566 4.87067 20.3068 4.6194 20.9134C4.36812 21.52 3.99983 22.0712 3.53553 22.5355C3.07124 22.9998 2.52005 23.3681 1.91342 23.6194C1.30679 23.8707 0.656609 24 0 24L0 0Z" data-svg-property="fill" fill="white"/>
</svg>
