<svg xmlns="http://www.w3.org/2000/svg" width="16" height="11" viewBox="0 0 16 11" fill="none">
<g clip-path="url(#clip0_138_2)">
<path d="M13.5436 1.04239L11.2327 3.34943C10.5473 4.03366 9.47516 4.10245 8.7114 3.51122L8.71049 3.51029L8.02013 2.80486L7.9463 2.8803L7.30872 3.5318L7.73645 3.96886C8.94209 5.20081 10.8968 5.20081 12.1025 3.96886L15.1617 0.84291C15.4661 0.531854 15.2505 0 14.82 0H10.7651L8.02013 2.80486L8.71049 3.51029C9.53527 2.64488 11.0752 1.04239 11.1275 1.04239H13.5436Z" data-svg-property="fill" fill="white"/>
<path d="M7.83899 8.0374L8.00755 8.20805L8.74589 7.4536L8.57724 7.28304L7.83899 8.0374Z" data-svg-property="fill" fill="white"/>
<path d="M10.7517 10.9863H14.8714C15.278 10.9863 15.4816 10.484 15.1941 10.1902L12.1025 7.03114C10.8969 5.79919 8.94213 5.79919 7.73649 7.03114L6.75171 8.0374H7.83896L8.57721 7.28304L8.74586 7.45361C9.39405 6.79128 10.4449 6.79128 11.0931 7.45361L13.5302 9.94389H11.2081L8.74586 7.45361L8.00752 8.20806L10.7517 10.9863Z" data-svg-property="fill" fill="white"/>
<path d="M1.23147 0C0.777044 0 0.549468 0.561403 0.870792 0.889738L5.3826 5.5L5.40274 5.52057L5.39603 5.52743L0.832827 10.1902C0.545326 10.484 0.748945 10.9863 1.15553 10.9863H5.28864L8.00754 8.20805L7.83898 8.0374H6.75173L4.88596 9.94389H2.52354L6.54983 5.82975C6.72805 5.64763 6.72805 5.35236 6.54983 5.17025L2.51012 1.04239H4.87254L7.30878 3.53179L7.94636 2.8803L8.02019 2.80486L5.27522 0H1.23147Z" data-svg-property="fill" fill="white"/>
</g>
<defs>
<clipPath id="clip0_138_2">
<rect data-svg-property="fill" fill="white"  height="11" width="16" />
</clipPath>
</defs>
</svg>