<svg width="12" height="7" viewBox="0 0 12 7" fill="none" xmlns="http://www.w3.org/2000/svg">
<path data-svg-property="fill" fill-rule="evenodd" clip-rule="evenodd" d="M0.5 6C0.367392 6 0.240215 6.05268 0.146447 6.14645C0.0526785 6.24021 0 6.36739 0 6.5C0 6.63261 0.0526785 6.75979 0.146447 6.85355C0.240215 6.94732 0.367392 7 0.5 7H11.5C11.6326 7 11.7598 6.94732 11.8536 6.85355C11.9473 6.75979 12 6.63261 12 6.5C12 6.36739 11.9473 6.24021 11.8536 6.14645C11.7598 6.05268 11.6326 6 11.5 6H0.5Z" fill="white"/>
<path data-svg-property="fill" fill-rule="evenodd" clip-rule="evenodd" d="M3.21946 4C3.07713 3.99988 2.93803 3.95883 2.81973 3.88203C2.70143 3.80523 2.60923 3.69613 2.55478 3.56851C2.50033 3.44089 2.48607 3.30047 2.5138 3.16498C2.54154 3.0295 2.61002 2.90503 2.7106 2.8073L5.32023 0.272817C5.50028 0.0981327 5.74445 9.27334e-08 5.99904 9.27334e-08C6.25363 9.27334e-08 6.4978 0.0981327 6.67785 0.272817L9.2894 2.8073C9.38998 2.90503 9.45847 3.0295 9.4862 3.16498C9.51393 3.30047 9.49967 3.44089 9.44522 3.56851C9.39077 3.69613 9.29857 3.80523 9.18027 3.88203C9.06197 3.95883 8.92287 3.99988 8.78054 4L3.21946 4ZM3.79842 3.0682H8.20158L6 0.931597L3.79842 3.0682Z" fill="white"/>
</svg>
