<svg width="7" height="12" viewBox="0 0 7 12" fill="none" xmlns="http://www.w3.org/2000/svg">
<path data-svg-property="fill" fill-rule="evenodd" clip-rule="evenodd" d="M3 8.78054C3.00012 8.92287 3.04117 9.06197 3.11797 9.18027C3.19477 9.29857 3.30387 9.39077 3.43149 9.44522C3.55911 9.49967 3.69953 9.51393 3.83502 9.4862C3.9705 9.45846 4.09497 9.38998 4.1927 9.2894L6.72718 6.67977C6.90187 6.49972 7 6.25555 7 6.00096C7 5.74637 6.90187 5.5022 6.72718 5.32215L4.1927 2.7106C4.09497 2.61002 3.9705 2.54153 3.83502 2.5138C3.69953 2.48607 3.55911 2.50033 3.43149 2.55478C3.30387 2.60923 3.19477 2.70143 3.11797 2.81973C3.04117 2.93804 3.00012 3.07714 3 3.21946L3 8.78054ZM3.9318 3.79842L3.9318 8.20158L6.0684 6L3.9318 3.79842Z" fill="white"/>
<path data-svg-property="fill" fill-rule="evenodd" clip-rule="evenodd" d="M5.02683e-07 11.5C5.08479e-07 11.6326 0.0526786 11.7598 0.146447 11.8536C0.240215 11.9473 0.367392 12 0.500001 12C0.632609 12 0.759786 11.9473 0.853554 11.8536C0.947322 11.7598 1 11.6326 1 11.5L1 0.5C1 0.367392 0.947322 0.240214 0.853554 0.146446C0.759786 0.0526781 0.632608 1.60592e-08 0.5 2.18557e-08C0.367392 2.76522e-08 0.240214 0.0526781 0.146446 0.146446C0.0526781 0.240214 1.60609e-08 0.367392 2.18574e-08 0.5L5.02683e-07 11.5Z" fill="white"/>
</svg>
