<svg width="13" height="12" viewBox="0 0 13 12" fill="none" xmlns="http://www.w3.org/2000/svg">
<path data-svg-property="fill" fill-rule="evenodd" clip-rule="evenodd" d="M4 3.21946C3.99988 3.07713 3.95883 2.93803 3.88203 2.81973C3.80523 2.70143 3.69613 2.60923 3.56851 2.55478C3.44089 2.50033 3.30047 2.48607 3.16498 2.5138C3.0295 2.54154 2.90503 2.61002 2.8073 2.7106L0.272817 5.32023C0.0981326 5.50028 0 5.74445 0 5.99904C0 6.25363 0.0981326 6.4978 0.272817 6.67785L2.8073 9.2894C2.90503 9.38998 3.0295 9.45847 3.16498 9.4862C3.30047 9.51393 3.44089 9.49967 3.56851 9.44522C3.69613 9.39077 3.80523 9.29857 3.88203 9.18027C3.95883 9.06196 3.99988 8.92286 4 8.78054V3.21946ZM3.0682 8.20158V3.79842L0.931597 6L3.0682 8.20158Z" fill="white"/>
<path data-svg-property="fill" fill-rule="evenodd" clip-rule="evenodd" d="M7 0.5C7 0.367392 6.94732 0.240215 6.85355 0.146447C6.75979 0.0526785 6.63261 0 6.5 0C6.36739 0 6.24021 0.0526785 6.14645 0.146447C6.05268 0.240215 6 0.367392 6 0.5V11.5C6 11.6326 6.05268 11.7598 6.14645 11.8536C6.24021 11.9473 6.36739 12 6.5 12C6.63261 12 6.75979 11.9473 6.85355 11.8536C6.94732 11.7598 7 11.6326 7 11.5V0.5Z" fill="white"/>
<path data-svg-property="fill" fill-rule="evenodd" clip-rule="evenodd" d="M9 3.21946C9.00012 3.07713 9.04117 2.93803 9.11797 2.81973C9.19477 2.70143 9.30387 2.60923 9.43149 2.55478C9.55911 2.50033 9.69953 2.48607 9.83502 2.5138C9.9705 2.54154 10.095 2.61002 10.1927 2.7106L12.7272 5.32023C12.9019 5.50028 13 5.74445 13 5.99904C13 6.25363 12.9019 6.4978 12.7272 6.67785L10.1927 9.2894C10.095 9.38998 9.9705 9.45847 9.83502 9.4862C9.69953 9.51393 9.55911 9.49967 9.43149 9.44522C9.30387 9.39077 9.19477 9.29857 9.11797 9.18027C9.04117 9.06197 9.00012 8.92287 9 8.78054V3.21946ZM9.9318 3.79842V8.20158L12.0684 6L9.9318 3.79842Z" fill="white"/>
</svg>
