<svg width="12" height="13" viewBox="0 0 12 13" fill="none" xmlns="http://www.w3.org/2000/svg">
<path data-svg-property="fill" fill-rule="evenodd" clip-rule="evenodd" d="M3.21946 9C3.07713 9.00012 2.93803 9.04117 2.81973 9.11797C2.70143 9.19477 2.60923 9.30387 2.55478 9.43149C2.50033 9.55911 2.48607 9.69953 2.5138 9.83502C2.54154 9.9705 2.61002 10.095 2.7106 10.1927L5.32023 12.7272C5.50028 12.9019 5.74445 13 5.99904 13C6.25363 13 6.4978 12.9019 6.67785 12.7272L9.2894 10.1927C9.38998 10.095 9.45847 9.9705 9.4862 9.83502C9.51393 9.69953 9.49967 9.55911 9.44522 9.43149C9.39077 9.30387 9.29857 9.19477 9.18027 9.11797C9.06196 9.04117 8.92286 9.00012 8.78054 9H3.21946ZM8.20158 9.9318H3.79842L6 12.0684L8.20158 9.9318Z" fill="white"/>
<path data-svg-property="fill" fill-rule="evenodd" clip-rule="evenodd" d="M0.5 6C0.367392 6 0.240215 6.05268 0.146447 6.14645C0.0526785 6.24021 0 6.36739 0 6.5C0 6.63261 0.0526785 6.75979 0.146447 6.85355C0.240215 6.94732 0.367392 7 0.5 7L11.5 7C11.6326 7 11.7598 6.94732 11.8536 6.85355C11.9473 6.75979 12 6.63261 12 6.5C12 6.36739 11.9473 6.24021 11.8536 6.14645C11.7598 6.05268 11.6326 6 11.5 6L0.5 6Z" fill="white"/>
<path data-svg-property="fill" fill-rule="evenodd" clip-rule="evenodd" d="M3.21946 4C3.07713 3.99988 2.93803 3.95883 2.81973 3.88203C2.70143 3.80523 2.60923 3.69613 2.55478 3.56851C2.50033 3.44089 2.48607 3.30047 2.5138 3.16498C2.54154 3.0295 2.61002 2.90503 2.7106 2.8073L5.32023 0.272817C5.50028 0.0981327 5.74445 9.27334e-08 5.99904 9.27334e-08C6.25363 9.27334e-08 6.4978 0.0981327 6.67785 0.272817L9.2894 2.8073C9.38998 2.90503 9.45847 3.0295 9.4862 3.16498C9.51393 3.30047 9.49967 3.44089 9.44522 3.56851C9.39077 3.69613 9.29857 3.80523 9.18027 3.88203C9.06197 3.95883 8.92287 3.99988 8.78054 4H3.21946ZM3.79842 3.0682L8.20158 3.0682L6 0.931597L3.79842 3.0682Z" fill="white"/>
</svg>
