<svg width="7" height="12" viewBox="0 0 7 12" fill="none" xmlns="http://www.w3.org/2000/svg">
<path data-svg-property="fill" fill-rule="evenodd" clip-rule="evenodd" d="M6 11.5C6 11.6326 6.05268 11.7598 6.14645 11.8536C6.24021 11.9473 6.36739 12 6.5 12C6.63261 12 6.75979 11.9473 6.85355 11.8536C6.94732 11.7598 7 11.6326 7 11.5L7 0.5C7 0.367392 6.94732 0.240214 6.85355 0.146446C6.75979 0.0526781 6.63261 1.60592e-08 6.5 2.18557e-08C6.36739 2.76522e-08 6.24021 0.0526781 6.14645 0.146446C6.05268 0.240214 6 0.367392 6 0.5L6 11.5Z" fill="white"/>
<path data-svg-property="fill" fill-rule="evenodd" clip-rule="evenodd" d="M4 8.78054C3.99988 8.92287 3.95883 9.06197 3.88203 9.18027C3.80523 9.29857 3.69613 9.39077 3.56851 9.44522C3.44089 9.49967 3.30047 9.51393 3.16498 9.4862C3.0295 9.45846 2.90503 9.38998 2.8073 9.2894L0.272818 6.67977C0.098133 6.49972 4.75452e-07 6.25555 4.64324e-07 6.00096C4.53195e-07 5.74637 0.098133 5.5022 0.272818 5.32215L2.8073 2.7106C2.90503 2.61002 3.0295 2.54153 3.16498 2.5138C3.30047 2.48607 3.44089 2.50033 3.56851 2.55478C3.69613 2.60923 3.80523 2.70143 3.88203 2.81973C3.95883 2.93803 3.99988 3.07713 4 3.21946L4 8.78054ZM3.0682 8.20158L3.0682 3.79842L0.931597 6L3.0682 8.20158Z" fill="white"/>
</svg>
