<svg width="12" height="7" viewBox="0 0 12 7" fill="none" xmlns="http://www.w3.org/2000/svg">
<path data-svg-property="fill" fill-rule="evenodd" clip-rule="evenodd" d="M3.21946 3C3.07713 3.00012 2.93803 3.04117 2.81973 3.11797C2.70143 3.19477 2.60923 3.30387 2.55478 3.43149C2.50033 3.55911 2.48607 3.69953 2.5138 3.83502C2.54154 3.9705 2.61002 4.09497 2.7106 4.1927L5.32023 6.72718C5.50028 6.90187 5.74445 7 5.99904 7C6.25363 7 6.4978 6.90187 6.67785 6.72718L9.2894 4.1927C9.38998 4.09497 9.45847 3.9705 9.4862 3.83502C9.51393 3.69953 9.49967 3.55911 9.44522 3.43149C9.39077 3.30387 9.29857 3.19477 9.18027 3.11797C9.06196 3.04117 8.92286 3.00012 8.78054 3H3.21946ZM8.20158 3.9318H3.79842L6 6.0684L8.20158 3.9318Z" fill="white"/>
<path data-svg-property="fill" fill-rule="evenodd" clip-rule="evenodd" d="M0.5 0C0.367392 0 0.240215 0.052678 0.146447 0.146446C0.0526785 0.240214 0 0.367392 0 0.5C0 0.632608 0.0526785 0.759786 0.146447 0.853554C0.240215 0.947322 0.367392 1 0.5 1L11.5 1C11.6326 1 11.7598 0.947322 11.8536 0.853554C11.9473 0.759786 12 0.632608 12 0.5C12 0.367392 11.9473 0.240214 11.8536 0.146446C11.7598 0.052678 11.6326 0 11.5 0L0.5 0Z" fill="white"/>
</svg>
