<svg xmlns="http://www.w3.org/2000/svg" width="14" height="16" viewBox="0 0 14 16" fill="none">
<g clip-path="url(#clip0_141_11)">
<path fill-rule="evenodd" clip-rule="evenodd" d="M1.18275 9.9056C0.768347 9.516 0.726747 8.8592 1.08835 8.4208C1.43635 7.9992 2.04115 7.9248 2.48035 8.248L3.55795 9.0448L4.35795 9.636V3.2C4.35795 2.7584 4.71635 2.4 5.15795 2.4C5.60035 2.4 5.95795 2.7584 5.95795 3.2V7.2H6.75795V1.6C6.75795 1.1584 7.11635 0.8 7.55795 0.8C8.00035 0.8 8.35795 1.1584 8.35795 1.6V7.2H9.15795V2.4C9.15795 1.9584 9.51635 1.6 9.95795 1.6C10.4003 1.6 10.7579 1.9584 10.7579 2.4V7.2H11.5579V4.8C11.5579 4.3584 11.9163 4 12.3579 4C12.8003 4 13.1579 4.3584 13.1579 4.8V11.2C13.1579 13.4096 11.3675 15.2 9.15795 15.2H8.35795C7.11555 15.2 6.00595 14.6336 5.27155 13.744C5.24275 13.7216 5.21475 13.696 5.18675 13.6704L1.18275 9.9056ZM4.70275 14.3112L4.63875 14.2536L0.634747 10.4888C-0.0868523 9.8104 -0.159653 8.6752 0.471547 7.912C1.08915 7.1632 2.17315 7.0272 2.95555 7.6048L3.55795 8.0504V3.2C3.55795 2.3168 4.27475 1.6 5.15795 1.6C5.44995 1.6 5.72275 1.6776 5.95795 1.8144V1.6C5.95795 0.716 6.67475 0 7.55795 0C8.25635 0 8.84995 0.4472 9.06835 1.0704C9.32275 0.8992 9.62835 0.8 9.95795 0.8C10.8419 0.8 11.5579 1.516 11.5579 2.4V3.4144C11.7939 3.2784 12.0667 3.2 12.3579 3.2C13.2419 3.2 13.9579 3.9168 13.9579 4.8V11.2C13.9579 13.8512 11.8091 16 9.15795 16H8.35795C6.89395 16 5.58275 15.3432 4.70275 14.3112Z" data-svg-property="fill" fill="white"/>
</g>
<defs>
<clipPath id="clip0_141_11">
<rect width="14" height="16" fill="white"/>
</clipPath>
</defs>
</svg>