<svg width="12" height="12" viewBox="0 0 12 12" fill="none" xmlns="http://www.w3.org/2000/svg">
<path data-svg-property="fill" fill-rule="evenodd" clip-rule="evenodd" d="M2 1H10C10.2652 1 10.5196 1.10536 10.7071 1.29289C10.8946 1.48043 11 1.73478 11 2V10C11 10.2652 10.8946 10.5196 10.7071 10.7071C10.5196 10.8946 10.2652 11 10 11H2C1.73478 11 1.48043 10.8946 1.29289 10.7071C1.10536 10.5196 1 10.2652 1 10V2C1 1.73478 1.10536 1.48043 1.29289 1.29289C1.48043 1.10536 1.73478 1 2 1ZM0 2C0 1.46957 0.210714 0.960859 0.585786 0.585786C0.960859 0.210714 1.46957 0 2 0H10C10.5304 0 11.0391 0.210714 11.4142 0.585786C11.7893 0.960859 12 1.46957 12 2V10C12 10.5304 11.7893 11.0391 11.4142 11.4142C11.0391 11.7893 10.5304 12 10 12H2C1.46957 12 0.960859 11.7893 0.585786 11.4142C0.210714 11.0391 0 10.5304 0 10V2ZM9 3.5C9.13261 3.5 9.25979 3.44732 9.35355 3.35355C9.44732 3.25979 9.5 3.13261 9.5 3C9.5 2.86739 9.44732 2.74021 9.35355 2.64645C9.25979 2.55268 9.13261 2.5 9 2.5C8.86739 2.5 8.74021 2.55268 8.64645 2.64645C8.55268 2.74021 8.5 2.86739 8.5 3C8.5 3.13261 8.55268 3.25979 8.64645 3.35355C8.74021 3.44732 8.86739 3.5 9 3.5ZM7.5 5C7.5 5.13261 7.44732 5.25979 7.35355 5.35355C7.25979 5.44732 7.13261 5.5 7 5.5C6.86739 5.5 6.74021 5.44732 6.64645 5.35355C6.55268 5.25979 6.5 5.13261 6.5 5C6.5 4.86739 6.55268 4.74021 6.64645 4.64645C6.74021 4.55268 6.86739 4.5 7 4.5C7.13261 4.5 7.25979 4.55268 7.35355 4.64645C7.44732 4.74021 7.5 4.86739 7.5 5ZM5.5 7C5.5 7.13261 5.44732 7.25979 5.35355 7.35355C5.25979 7.44732 5.13261 7.5 5 7.5C4.86739 7.5 4.74021 7.44732 4.64645 7.35355C4.55268 7.25979 4.5 7.13261 4.5 7C4.5 6.86739 4.55268 6.74021 4.64645 6.64645C4.74021 6.55268 4.86739 6.5 5 6.5C5.13261 6.5 5.25979 6.55268 5.35355 6.64645C5.44732 6.74021 5.5 6.86739 5.5 7ZM3.5 9C3.5 9.13261 3.44732 9.25979 3.35355 9.35355C3.25979 9.44732 3.13261 9.5 3 9.5C2.86739 9.5 2.74021 9.44732 2.64645 9.35355C2.55268 9.25979 2.5 9.13261 2.5 9C2.5 8.86739 2.55268 8.74021 2.64645 8.64645C2.74021 8.55268 2.86739 8.5 3 8.5C3.13261 8.5 3.25979 8.55268 3.35355 8.64645C3.44732 8.74021 3.5 8.86739 3.5 9ZM5 9.5C5.13261 9.5 5.25979 9.44732 5.35355 9.35355C5.44732 9.25979 5.5 9.13261 5.5 9C5.5 8.86739 5.44732 8.74021 5.35355 8.64645C5.25979 8.55268 5.13261 8.5 5 8.5C4.86739 8.5 4.74021 8.55268 4.64645 8.64645C4.55268 8.74021 4.5 8.86739 4.5 9C4.5 9.13261 4.55268 9.25979 4.64645 9.35355C4.74021 9.44732 4.86739 9.5 5 9.5ZM7 7.5C7.13261 7.5 7.25979 7.44732 7.35355 7.35355C7.44732 7.25979 7.5 7.13261 7.5 7C7.5 6.86739 7.44732 6.74021 7.35355 6.64645C7.25979 6.55268 7.13261 6.5 7 6.5C6.86739 6.5 6.74021 6.55268 6.64645 6.64645C6.55268 6.74021 6.5 6.86739 6.5 7C6.5 7.13261 6.55268 7.25979 6.64645 7.35355C6.74021 7.44732 6.86739 7.5 7 7.5ZM7.5 9C7.5 9.13261 7.44732 9.25979 7.35355 9.35355C7.25979 9.44732 7.13261 9.5 7 9.5C6.86739 9.5 6.74021 9.44732 6.64645 9.35355C6.55268 9.25979 6.5 9.13261 6.5 9C6.5 8.86739 6.55268 8.74021 6.64645 8.64645C6.74021 8.55268 6.86739 8.5 7 8.5C7.13261 8.5 7.25979 8.55268 7.35355 8.64645C7.44732 8.74021 7.5 8.86739 7.5 9ZM9.5 5C9.5 5.13261 9.44732 5.25979 9.35355 5.35355C9.25979 5.44732 9.13261 5.5 9 5.5C8.86739 5.5 8.74021 5.44732 8.64645 5.35355C8.55268 5.25979 8.5 5.13261 8.5 5C8.5 4.86739 8.55268 4.74021 8.64645 4.64645C8.74021 4.55268 8.86739 4.5 9 4.5C9.13261 4.5 9.25979 4.55268 9.35355 4.64645C9.44732 4.74021 9.5 4.86739 9.5 5ZM9 7.5C9.13261 7.5 9.25979 7.44732 9.35355 7.35355C9.44732 7.25979 9.5 7.13261 9.5 7C9.5 6.86739 9.44732 6.74021 9.35355 6.64645C9.25979 6.55268 9.13261 6.5 9 6.5C8.86739 6.5 8.74021 6.55268 8.64645 6.64645C8.55268 6.74021 8.5 6.86739 8.5 7C8.5 7.13261 8.55268 7.25979 8.64645 7.35355C8.74021 7.44732 8.86739 7.5 9 7.5ZM9.5 9C9.5 9.13261 9.44732 9.25979 9.35355 9.35355C9.25979 9.44732 9.13261 9.5 9 9.5C8.86739 9.5 8.74021 9.44732 8.64645 9.35355C8.55268 9.25979 8.5 9.13261 8.5 9C8.5 8.86739 8.55268 8.74021 8.64645 8.64645C8.74021 8.55268 8.86739 8.5 9 8.5C9.13261 8.5 9.25979 8.55268 9.35355 8.64645C9.44732 8.74021 9.5 8.86739 9.5 9Z" fill="white"/>
</svg>
