<svg width="10" height="7" viewBox="0 0 10 7" fill="none" xmlns="http://www.w3.org/2000/svg">
<path data-svg-property="fill" fill-rule="evenodd" clip-rule="evenodd" d="M4 1H6V3H4V1ZM3 1C3 0.734784 3.10536 0.48043 3.29289 0.292893C3.48043 0.105357 3.73478 0 4 0H6C6.26522 0 6.51957 0.105357 6.70711 0.292893C6.89464 0.48043 7 0.734784 7 1V3C7 3.26522 6.89464 3.51957 6.70711 3.70711C6.51957 3.89464 6.26522 4 6 4H4C3.73478 4 3.48043 3.89464 3.29289 3.70711C3.10536 3.51957 3 3.26522 3 3V1ZM0.5 6C0.367392 6 0.240215 6.05268 0.146447 6.14645C0.0526785 6.24021 0 6.36739 0 6.5C0 6.63261 0.0526785 6.75979 0.146447 6.85355C0.240215 6.94732 0.367392 7 0.5 7H9.5C9.63261 7 9.75979 6.94732 9.85355 6.85355C9.94732 6.75979 10 6.63261 10 6.5C10 6.36739 9.94732 6.24021 9.85355 6.14645C9.75979 6.05268 9.63261 6 9.5 6H0.5Z" fill="white"/>
</svg>
