<svg width="10" height="10" viewBox="0 0 10 10" fill="none" xmlns="http://www.w3.org/2000/svg">
<path data-svg-property="fill" fill-rule="evenodd" clip-rule="evenodd" d="M0.5 9C0.367392 9 0.240215 9.05268 0.146447 9.14645C0.0526785 9.24021 0 9.36739 0 9.5C0 9.63261 0.0526785 9.75979 0.146447 9.85355C0.240215 9.94732 0.367392 10 0.5 10H9.5C9.63261 10 9.75979 9.94732 9.85355 9.85355C9.94732 9.75979 10 9.63261 10 9.5C10 9.36739 9.94732 9.24021 9.85355 9.14645C9.75979 9.05268 9.63261 9 9.5 9H0.5ZM0 0.5C0 0.367392 0.0526785 0.240215 0.146447 0.146447C0.240215 0.0526785 0.367392 0 0.5 0H9.5C9.63261 0 9.75979 0.0526785 9.85355 0.146447C9.94732 0.240215 10 0.367392 10 0.5C10 0.632608 9.94732 0.759785 9.85355 0.853553C9.75979 0.947321 9.63261 1 9.5 1H0.5C0.367392 1 0.240215 0.947321 0.146447 0.853553C0.0526785 0.759785 0 0.632608 0 0.5ZM6 4H4V6H6V4ZM4 3C3.73478 3 3.48043 3.10536 3.29289 3.29289C3.10536 3.48043 3 3.73478 3 4V6C3 6.26522 3.10536 6.51957 3.29289 6.70711C3.48043 6.89464 3.73478 7 4 7H6C6.26522 7 6.51957 6.89464 6.70711 6.70711C6.89464 6.51957 7 6.26522 7 6V4C7 3.73478 6.89464 3.48043 6.70711 3.29289C6.51957 3.10536 6.26522 3 6 3H4Z" fill="white"/>
</svg>
