<svg width="7" height="10" viewBox="0 0 7 10" fill="none" xmlns="http://www.w3.org/2000/svg">
<path data-svg-property="fill" fill-rule="evenodd" clip-rule="evenodd" d="M7 0.5C7 0.367392 6.94732 0.240215 6.85355 0.146447C6.75979 0.0526785 6.63261 0 6.5 0C6.36739 0 6.24021 0.0526785 6.14645 0.146447C6.05268 0.240215 6 0.367392 6 0.5V9.5C6 9.63261 6.05268 9.75979 6.14645 9.85355C6.24021 9.94732 6.36739 10 6.5 10C6.63261 10 6.75979 9.94732 6.85355 9.85355C6.94732 9.75979 7 9.63261 7 9.5V0.5ZM3 4V6H1V4H3ZM3 3C3.26522 3 3.51957 3.10536 3.70711 3.29289C3.89464 3.48043 4 3.73478 4 4V6C4 6.26522 3.89464 6.51957 3.70711 6.70711C3.51957 6.89464 3.26522 7 3 7H1C0.734784 7 0.48043 6.89464 0.292893 6.70711C0.105357 6.51957 0 6.26522 0 6V4C0 3.73478 0.105357 3.48043 0.292893 3.29289C0.48043 3.10536 0.734784 3 1 3H3Z" fill="white"/>
</svg>
