<svg width="10" height="7" viewBox="0 0 10 7" fill="none" xmlns="http://www.w3.org/2000/svg">
<path data-svg-property="fill" fill-rule="evenodd" clip-rule="evenodd" d="M0.5 0C0.367392 0 0.240215 0.0526785 0.146447 0.146447C0.0526785 0.240215 0 0.367392 0 0.5C0 0.632608 0.0526785 0.759785 0.146447 0.853553C0.240215 0.947321 0.367392 1 0.5 1H9.5C9.63261 1 9.75979 0.947321 9.85355 0.853553C9.94732 0.759785 10 0.632608 10 0.5C10 0.367392 9.94732 0.240215 9.85355 0.146447C9.75979 0.0526785 9.63261 0 9.5 0H0.5ZM4 4H6V6H4V4ZM3 4C3 3.73478 3.10536 3.48043 3.29289 3.29289C3.48043 3.10536 3.73478 3 4 3H6C6.26522 3 6.51957 3.10536 6.70711 3.29289C6.89464 3.48043 7 3.73478 7 4V6C7 6.26522 6.89464 6.51957 6.70711 6.70711C6.51957 6.89464 6.26522 7 6 7H4C3.73478 7 3.48043 6.89464 3.29289 6.70711C3.10536 6.51957 3 6.26522 3 6V4Z" fill="white"/>
</svg>
