<svg width="7" height="10" viewBox="0 0 7 10" fill="none" xmlns="http://www.w3.org/2000/svg">
<path data-svg-property="fill" fill-rule="evenodd" clip-rule="evenodd" d="M1 0.5C1 0.367392 0.947321 0.240215 0.853553 0.146447C0.759785 0.0526785 0.632608 0 0.5 0C0.367392 0 0.240215 0.0526785 0.146447 0.146447C0.0526785 0.240215 0 0.367392 0 0.5V9.5C0 9.63261 0.0526785 9.75979 0.146447 9.85355C0.240215 9.94732 0.367392 10 0.5 10C0.632608 10 0.759785 9.94732 0.853553 9.85355C0.947321 9.75979 1 9.63261 1 9.5V0.5ZM6 4V6H4V4H6ZM6 3C6.26522 3 6.51957 3.10536 6.70711 3.29289C6.89464 3.48043 7 3.73478 7 4V6C7 6.26522 6.89464 6.51957 6.70711 6.70711C6.51957 6.89464 6.26522 7 6 7H4C3.73478 7 3.48043 6.89464 3.29289 6.70711C3.10536 6.51957 3 6.26522 3 6V4C3 3.73478 3.10536 3.48043 3.29289 3.29289C3.48043 3.10536 3.73478 3 4 3H6Z" fill="white"/>
</svg>
