<svg width="10" height="10" viewBox="0 0 10 10" fill="none" xmlns="http://www.w3.org/2000/svg">
<path data-svg-property="fill" fill-rule="evenodd" clip-rule="evenodd" d="M1 0.5C1 0.367392 0.947321 0.240215 0.853553 0.146447C0.759785 0.0526785 0.632608 0 0.5 0C0.367392 0 0.240215 0.0526785 0.146447 0.146447C0.0526785 0.240215 0 0.367392 0 0.5V9.5C0 9.63261 0.0526785 9.75979 0.146447 9.85355C0.240215 9.94732 0.367392 10 0.5 10C0.632608 10 0.759785 9.94732 0.853553 9.85355C0.947321 9.75979 1 9.63261 1 9.5V0.5ZM9.5 0C9.63261 0 9.75979 0.0526785 9.85355 0.146447C9.94732 0.240215 10 0.367392 10 0.5V9.5C10 9.63261 9.94732 9.75979 9.85355 9.85355C9.75979 9.94732 9.63261 10 9.5 10C9.36739 10 9.24021 9.94732 9.14645 9.85355C9.05268 9.75979 9 9.63261 9 9.5V0.5C9 0.367392 9.05268 0.240215 9.14645 0.146447C9.24021 0.0526785 9.36739 0 9.5 0ZM6 6V4H4V6H6ZM7 4C7 3.73478 6.89464 3.48043 6.70711 3.29289C6.51957 3.10536 6.26522 3 6 3H4C3.73478 3 3.48043 3.10536 3.29289 3.29289C3.10536 3.48043 3 3.73478 3 4V6C3 6.26522 3.10536 6.51957 3.29289 6.70711C3.48043 6.89464 3.73478 7 4 7H6C6.26522 7 6.51957 6.89464 6.70711 6.70711C6.89464 6.51957 7 6.26522 7 6V4Z" fill="white"/>
</svg>
