<svg width="10" height="10" viewBox="0 0 10 10" fill="none" xmlns="http://www.w3.org/2000/svg">
<path data-svg-property="fill" d="M9.60306 0.966002L9.0352 0.398144C9.01506 0.378205 8.98787 0.36702 8.95953 0.36702C8.93119 0.36702 8.904 0.378205 8.88386 0.398144L0.396805 8.88252C0.376866 8.90266 0.36568 8.92985 0.36568 8.95819C0.36568 8.98653 0.376866 9.01372 0.396805 9.03386L0.964662 9.60172C1.00618 9.64323 1.07448 9.64323 1.116 9.60172L9.60172 1.116C9.64457 1.07582 9.64457 1.00752 9.60306 0.966002ZM2.21422 4.14279C3.27761 4.14279 4.14279 3.27761 4.14279 2.21422C4.14279 1.15082 3.27761 0.285645 2.21422 0.285645C1.15082 0.285645 0.285645 1.15082 0.285645 2.21422C0.285645 3.27761 1.15082 4.14279 2.21422 4.14279ZM2.21422 1.24993C2.74591 1.24993 3.1785 1.68252 3.1785 2.21422C3.1785 2.74591 2.74591 3.1785 2.21422 3.1785C1.68252 3.1785 1.24993 2.74591 1.24993 2.21422C1.24993 1.68252 1.68252 1.24993 2.21422 1.24993ZM7.78564 5.85707C6.72225 5.85707 5.85707 6.72225 5.85707 7.78564C5.85707 8.84904 6.72225 9.71422 7.78564 9.71422C8.84904 9.71422 9.71422 8.84904 9.71422 7.78564C9.71422 6.72225 8.84904 5.85707 7.78564 5.85707ZM7.78564 8.74993C7.25395 8.74993 6.82136 8.31734 6.82136 7.78564C6.82136 7.25395 7.25395 6.82136 7.78564 6.82136C8.31734 6.82136 8.74993 7.25395 8.74993 7.78564C8.74993 8.31734 8.31734 8.74993 7.78564 8.74993Z" fill="white"/>
</svg>
