<svg xmlns="http://www.w3.org/2000/svg" width="12" height="12" viewBox="0 0 12 12" fill="none">
<path d="M5.59811 1.17859H6.40168C6.47311 1.17859 6.50882 1.2143 6.50882 1.28573V10.7143C6.50882 10.7857 6.47311 10.8214 6.40168 10.8214H5.59811C5.52668 10.8214 5.49097 10.7857 5.49097 10.7143V1.28573C5.49097 1.2143 5.52668 1.17859 5.59811 1.17859Z" data-svg-property="fill"  fill="white"/>
<path d="M1.71418 5.49109H10.7142C10.7856 5.49109 10.8213 5.5268 10.8213 5.59823V6.4018C10.8213 6.47323 10.7856 6.50895 10.7142 6.50895H1.28561C1.21418 6.50895 1.17847 6.47323 1.17847 6.4018V5.59823C1.17847 5.5268 1.21418 5.49109 1.28561 5.49109H1.71418Z" data-svg-property="fill"  fill="white"/>
</svg>