<svg width="12" height="12" viewBox="0 0 12 12" fill="none" xmlns="http://www.w3.org/2000/svg">
<path data-svg-property="fill" fill-rule="evenodd" clip-rule="evenodd" d="M0 1C0 0.734784 0.105357 0.48043 0.292893 0.292893C0.48043 0.105357 0.734784 0 1 0H3.5C3.63261 0 3.75979 0.0526785 3.85355 0.146447C3.94732 0.240215 4 0.367392 4 0.5C4 0.632608 3.94732 0.759785 3.85355 0.853553C3.75979 0.947321 3.63261 1 3.5 1H1V3.5C1 3.63261 0.947321 3.75979 0.853553 3.85355C0.759785 3.94732 0.632608 4 0.5 4C0.367392 4 0.240215 3.94732 0.146447 3.85355C0.0526785 3.75979 0 3.63261 0 3.5V1ZM12 1C12 0.734784 11.8946 0.48043 11.7071 0.292893C11.5196 0.105357 11.2652 0 11 0H8.5C8.36739 0 8.24021 0.0526785 8.14645 0.146447C8.05268 0.240215 8 0.367392 8 0.5C8 0.632608 8.05268 0.759785 8.14645 0.853553C8.24021 0.947321 8.36739 1 8.5 1H11V3.5C11 3.63261 11.0527 3.75979 11.1464 3.85355C11.2402 3.94732 11.3674 4 11.5 4C11.6326 4 11.7598 3.94732 11.8536 3.85355C11.9473 3.75979 12 3.63261 12 3.5V1ZM1 12C0.734784 12 0.48043 11.8946 0.292893 11.7071C0.105357 11.5196 0 11.2652 0 11V8.5C0 8.36739 0.0526785 8.24021 0.146447 8.14645C0.240215 8.05268 0.367392 8 0.5 8C0.632608 8 0.759785 8.05268 0.853553 8.14645C0.947321 8.24021 1 8.36739 1 8.5V11H3.5C3.63261 11 3.75979 11.0527 3.85355 11.1464C3.94732 11.2402 4 11.3674 4 11.5C4 11.6326 3.94732 11.7598 3.85355 11.8536C3.75979 11.9473 3.63261 12 3.5 12H1ZM12 11C12 11.2652 11.8946 11.5196 11.7071 11.7071C11.5196 11.8946 11.2652 12 11 12H8.5C8.36739 12 8.24021 11.9473 8.14645 11.8536C8.05268 11.7598 8 11.6326 8 11.5C8 11.3674 8.05268 11.2402 8.14645 11.1464C8.24021 11.0527 8.36739 11 8.5 11H11V8.5C11 8.36739 11.0527 8.24021 11.1464 8.14645C11.2402 8.05268 11.3674 8 11.5 8C11.6326 8 11.7598 8.05268 11.8536 8.14645C11.9473 8.24021 12 8.36739 12 8.5V11ZM4 4H8V8H4V4ZM3 4C3 3.73478 3.10536 3.48043 3.29289 3.29289C3.48043 3.10536 3.73478 3 4 3H8C8.26522 3 8.51957 3.10536 8.70711 3.29289C8.89464 3.48043 9 3.73478 9 4V8C9 8.26522 8.89464 8.51957 8.70711 8.70711C8.51957 8.89464 8.26522 9 8 9H4C3.73478 9 3.48043 8.89464 3.29289 8.70711C3.10536 8.51957 3 8.26522 3 8V4Z" fill="white"/>
</svg>
