<svg width="12" height="12" viewBox="0 0 12 12" fill="none" xmlns="http://www.w3.org/2000/svg">
<path d="M2.49851 12C2.63111 12 2.75829 11.9473 2.85206 11.8536C2.94583 11.7598 2.99851 11.6326 2.99851 11.5V9.95C3.56365 9.83524 4.07174 9.52864 4.43669 9.08213C4.80165 8.63562 5.00101 8.07668 5.00101 7.5C5.00101 6.92332 4.80165 6.36438 4.43669 5.91787C4.07174 5.47136 3.56365 5.16476 2.99851 5.05V0.5C2.99851 0.367392 2.94583 0.240215 2.85206 0.146447C2.75829 0.0526785 2.63111 0 2.49851 0C2.3659 0 2.23872 0.0526785 2.14495 0.146447C2.05118 0.240215 1.99851 0.367392 1.99851 0.5V5.05C1.43418 5.16574 0.927121 5.47275 0.562993 5.91914C0.198865 6.36553 0 6.92393 0 7.5C0 8.07607 0.198865 8.63447 0.562993 9.08086C0.927121 9.52725 1.43418 9.83426 1.99851 9.95V11.5C1.99851 11.6326 2.05118 11.7598 2.14495 11.8536C2.23872 11.9473 2.3659 12 2.49851 12ZM9.4985 12C9.63111 12 9.75829 11.9473 9.85206 11.8536C9.94583 11.7598 9.9985 11.6326 9.9985 11.5V6.95C10.5628 6.83426 11.0699 6.52725 11.434 6.08086C11.7981 5.63447 11.997 5.07607 11.997 4.5C11.997 3.92393 11.7981 3.36553 11.434 2.91914C11.0699 2.47275 10.5628 2.16574 9.9985 2.05V0.5C9.9985 0.367392 9.94583 0.240215 9.85206 0.146447C9.75829 0.0526785 9.63111 0 9.4985 0C9.3659 0 9.23872 0.0526785 9.14495 0.146447C9.05118 0.240215 8.9985 0.367392 8.9985 0.5V2.05C8.43336 2.16476 7.92527 2.47136 7.56032 2.91787C7.19537 3.36438 6.996 3.92332 6.996 4.5C6.996 5.07668 7.19537 5.63562 7.56032 6.08213C7.92527 6.52864 8.43336 6.83524 8.9985 6.95V11.5C8.9985 11.6326 9.05118 11.7598 9.14495 11.8536C9.23872 11.9473 9.3659 12 9.4985 12ZM9.4985 6C9.10068 6 8.71915 5.84196 8.43785 5.56066C8.15654 5.27936 7.99851 4.89782 7.99851 4.5C7.99851 4.10218 8.15654 3.72064 8.43785 3.43934C8.71915 3.15804 9.10068 3 9.4985 3C9.89633 3 10.2779 3.15804 10.5592 3.43934C10.8405 3.72064 10.9985 4.10218 10.9985 4.5C10.9985 4.89782 10.8405 5.27936 10.5592 5.56066C10.2779 5.84196 9.89633 6 9.4985 6ZM2.49851 9C2.10068 9 1.71915 8.84196 1.43784 8.56066C1.15654 8.27936 0.998505 7.89782 0.998505 7.5C0.998505 7.10218 1.15654 6.72064 1.43784 6.43934C1.71915 6.15804 2.10068 6 2.49851 6C2.89633 6 3.27786 6.15804 3.55917 6.43934C3.84047 6.72064 3.99851 7.10218 3.99851 7.5C3.99851 7.89782 3.84047 8.27936 3.55917 8.56066C3.27786 8.84196 2.89633 9 2.49851 9Z" data-svg-property="fill"  fill="white"/>
</svg>
