<svg width="8" height="8" viewBox="0 0 8 8" fill="none" xmlns="http://www.w3.org/2000/svg">
<path fill-rule="evenodd" clip-rule="evenodd" d="M1 0.5C1 0.367392 0.947322 0.240214 0.853554 0.146446C0.759786 0.052678 0.632608 0 0.5 0C0.367392 0 0.240214 0.052678 0.146446 0.146446C0.052678 0.240214 0 0.367392 0 0.5V7.5C0 7.63261 0.052678 7.75979 0.146446 7.85355C0.240214 7.94732 0.367392 8 0.5 8H7.5C7.63261 8 7.75979 7.94732 7.85355 7.85355C7.94732 7.75979 8 7.63261 8 7.5C8 7.36739 7.94732 7.24021 7.85355 7.14645C7.75979 7.05268 7.63261 7 7.5 7H5C5 5.93913 4.57857 4.92172 3.82843 4.17157C3.07828 3.42143 2.06087 3 1 3V0.5ZM1 4V7H4C4 6.20435 3.68393 5.44129 3.12132 4.87868C2.55871 4.31607 1.79565 4 1 4Z" data-svg-property="fill" fill="white"/>
</svg>
