<svg width="12" height="12" viewBox="0 0 12 12" fill="none" xmlns="http://www.w3.org/2000/svg">
<path data-svg-property="fill" fill-rule="evenodd" clip-rule="evenodd" d="M1.5 1H10.5C10.776 1 11 1.224 11 1.5V3.5C11 3.776 10.776 4 10.5 4H1.5C1.224 4 1 3.776 1 3.5V1.5C1 1.224 1.224 1 1.5 1ZM0 1.5C0 0.672 0.672 0 1.5 0H10.5C11.328 0 12 0.672 12 1.5V3.5C12 4.328 11.328 5 10.5 5H1.5C0.672 5 0 4.328 0 3.5V1.5ZM1.5 8H10.5C10.776 8 11 8.224 11 8.5V10.5C11 10.776 10.776 11 10.5 11H1.5C1.224 11 1 10.776 1 10.5V8.5C1 8.224 1.224 8 1.5 8ZM0 8.5C0 7.672 0.672 7 1.5 7H10.5C11.328 7 12 7.672 12 8.5V10.5C12 11.328 11.328 12 10.5 12H1.5C0.672 12 0 11.328 0 10.5V8.5Z" fill="white"/>
</svg>
