<svg width="14" height="14" viewBox="0 0 14 14" fill="none" xmlns="http://www.w3.org/2000/svg">
<path data-svg-property="fill" fill-rule="evenodd" clip-rule="evenodd" d="M12.52 1.471C12.3693 1.32017 12.1903 1.20057 11.9933 1.11906C11.7963 1.03756 11.5851 0.995744 11.3719 0.996023C11.1587 0.996301 10.9476 1.03867 10.7508 1.12069C10.554 1.20271 10.3753 1.32278 10.225 1.474L8.355 3.354L8.001 3.709L7.646 3.355L7.636 3.345C7.46725 3.17646 7.2385 3.08179 7 3.08179C6.7615 3.08179 6.53275 3.17646 6.364 3.345L6.344 3.365C6.2604 3.44858 6.19408 3.54781 6.14883 3.65702C6.10358 3.76623 6.08029 3.88329 6.08029 4.0015C6.08029 4.11972 6.10358 4.23677 6.14883 4.34598C6.19408 4.4552 6.2604 4.55442 6.344 4.638L6.854 5.148L8.854 7.148L9.364 7.658C9.53275 7.82654 9.7615 7.92121 10 7.92121C10.2385 7.92121 10.4673 7.82654 10.636 7.658L10.656 7.638C10.7396 7.55442 10.8059 7.4552 10.8512 7.34598C10.8964 7.23677 10.9197 7.11972 10.9197 7.0015C10.9197 6.88329 10.8964 6.76623 10.8512 6.65702C10.8059 6.54781 10.7396 6.44858 10.656 6.365L10.646 6.355L10.294 6.002L10.645 5.649L12.524 3.761C12.8271 3.45684 12.997 3.04478 12.9965 2.61538C12.9959 2.18598 12.8239 1.77437 12.52 1.471ZM9.517 0.769001C9.75975 0.524939 10.0482 0.33108 10.3659 0.198493C10.6835 0.0659047 11.0242 -0.00281554 11.3684 -0.00374412C11.7127 -0.00467271 12.0537 0.0622084 12.3721 0.19308C12.6905 0.323952 12.9799 0.516252 13.224 0.759001C13.4681 1.00175 13.6619 1.29019 13.7945 1.60786C13.9271 1.92553 13.9958 2.2662 13.9967 2.61043C13.9977 2.95466 13.9308 3.2957 13.7999 3.61407C13.6691 3.93245 13.4767 4.22194 13.234 4.466L11.664 6.045C11.875 6.40769 11.96 6.83002 11.9057 7.24609C11.8514 7.66216 11.661 8.04856 11.364 8.345L11.344 8.365C10.9877 8.72132 10.5044 8.9215 10.0005 8.9215C9.49659 8.9215 9.01332 8.72132 8.657 8.365L8.501 8.208L2.854 13.85C2.76046 13.9438 2.6335 13.9967 2.501 13.997H0.504001C0.371393 13.997 0.244215 13.9443 0.150447 13.8506C0.056679 13.7568 0.00400098 13.6296 0.00400098 13.497L7.97495e-07 11.503C-0.00011655 11.4373 0.0127175 11.3722 0.0377692 11.3115C0.0628209 11.2507 0.0995989 11.1955 0.146001 11.149L5.793 5.502L5.636 5.346C5.27968 4.98968 5.07951 4.50641 5.07951 4.0025C5.07951 3.49859 5.27968 3.01532 5.636 2.659L5.656 2.639C5.95237 2.34228 6.33859 2.15196 6.75444 2.09769C7.17029 2.04343 7.59241 2.12827 7.955 2.339L9.517 0.769001ZM6.501 6.209L7.794 7.501L2.294 12.997H1.004L1 11.707L6.501 6.209Z" fill="white"/>
</svg>
