<svg xmlns="http://www.w3.org/2000/svg" width="6" height="10" viewBox="0 0 6 10" fill="none">
<path d="M1.07344 5.19863L5.56406 8.72621C5.73105 8.85746 5.97656 8.7391 5.97656 8.52758V1.4723C5.97656 1.26078 5.73105 1.14254 5.56406 1.27379L1.07344 4.80137C1.0433 4.82497 1.01893 4.85512 1.00217 4.88953C0.985414 4.92395 0.976705 4.96172 0.976705 5C0.976705 5.03828 0.985414 5.07605 1.00217 5.11047C1.01893 5.14488 1.0433 5.17503 1.07344 5.19863ZM0.867188 9.125H0.117188C0.0923235 9.125 0.0684777 9.11512 0.0508962 9.09754C0.0333146 9.07996 0.0234375 9.05611 0.0234375 9.03125V0.96875C0.0234375 0.943886 0.0333146 0.92004 0.0508962 0.902459C0.0684777 0.884877 0.0923235 0.875 0.117188 0.875H0.867188C0.892052 0.875 0.915897 0.884877 0.933479 0.902459C0.95106 0.92004 0.960938 0.943886 0.960938 0.96875V9.03125C0.960938 9.05611 0.95106 9.07996 0.933479 9.09754C0.915897 9.11512 0.892052 9.125 0.867188 9.125Z" data-svg-property="fill" fill="white" />
</svg>