<svg width="10" height="15" viewBox="0 0 10 15" fill="none" xmlns="http://www.w3.org/2000/svg">
<path fill-rule="evenodd" clip-rule="evenodd" d="M3.23319 2.474C3.70201 2.00532 4.33778 1.74203 5.00069 1.74203C5.6636 1.74203 6.29937 2.00532 6.76819 2.474L8.29319 4H7.00019C6.86758 4 6.74041 4.05268 6.64664 4.14644C6.55287 4.24021 6.50019 4.36739 6.50019 4.5C6.50019 4.63261 6.55287 4.75978 6.64664 4.85355C6.74041 4.94732 6.86758 5 7.00019 5H9.50019C9.6328 5 9.75998 4.94732 9.85375 4.85355C9.94751 4.75978 10.0002 4.63261 10.0002 4.5V2C10.0002 1.86739 9.94751 1.74021 9.85375 1.64644C9.75998 1.55268 9.6328 1.5 9.50019 1.5C9.36758 1.5 9.24041 1.55268 9.14664 1.64644C9.05287 1.74021 9.00019 1.86739 9.00019 2V3.292L7.47519 1.767C7.15018 1.44195 6.76433 1.18411 6.33967 1.0082C5.915 0.832287 5.45985 0.741745 5.00019 0.741745C4.54054 0.741745 4.08538 0.832287 3.66072 1.0082C3.23605 1.18411 2.8502 1.44195 2.52519 1.767L0.147192 4.146C0.0561128 4.2403 0.00571563 4.3666 0.00685484 4.4977C0.00799405 4.6288 0.0605784 4.7542 0.153282 4.84691C0.245987 4.93961 0.371393 4.9922 0.502491 4.99333C0.63359 4.99447 0.759891 4.94408 0.854192 4.853L3.23319 2.474ZM6.06119 5.646C5.7799 5.36479 5.39844 5.20682 5.00069 5.20682C4.60295 5.20682 4.22148 5.36479 3.94019 5.646L0.647192 8.939C0.365985 9.22029 0.208012 9.60175 0.208012 9.9995C0.208012 10.3972 0.365985 10.7787 0.647192 11.06L3.94019 14.353C4.22144 14.6339 4.60269 14.7917 5.00019 14.7917C5.39769 14.7917 5.77894 14.6339 6.06019 14.353L9.35419 11.06C9.6354 10.7787 9.79337 10.3972 9.79337 9.9995C9.79337 9.60175 9.6354 9.22029 9.35419 8.939L6.06119 5.646ZM4.64719 6.353C4.74096 6.25926 4.86811 6.2066 5.00069 6.2066C5.13327 6.2066 5.26043 6.25926 5.35419 6.353L8.64719 9.646C8.74093 9.73976 8.79358 9.86692 8.79358 9.9995C8.79358 10.1321 8.74093 10.2592 8.64719 10.353L5.35419 13.646C5.26043 13.7397 5.13327 13.7924 5.00069 13.7924C4.86811 13.7924 4.74096 13.7397 4.64719 13.646L1.35419 10.353C1.26046 10.2592 1.2078 10.1321 1.2078 9.9995C1.2078 9.86692 1.26046 9.73976 1.35419 9.646L4.64719 6.353Z" data-svg-property="fill" fill="white"/>
</svg>
