<svg width="14" height="12" viewBox="0 0 14 12" fill="none" xmlns="http://www.w3.org/2000/svg">
<path data-svg-property="fill"  fill-rule="evenodd" clip-rule="evenodd" d="M0.5 12C0.367392 12 0.240215 11.9473 0.146447 11.8536C0.0526785 11.7598 0 11.6326 0 11.5V0.5C0 0.367392 0.0526785 0.240215 0.146447 0.146447C0.240215 0.0526785 0.367392 0 0.5 0C0.632608 0 0.759785 0.0526785 0.853553 0.146447C0.947321 0.240215 1 0.367392 1 0.5V11.5C1 11.6326 0.947321 11.7598 0.853553 11.8536C0.759785 11.9473 0.632608 12 0.5 12ZM13.5 12C13.3674 12 13.2402 11.9473 13.1464 11.8536C13.0527 11.7598 13 11.6326 13 11.5V0.5C13 0.367392 13.0527 0.240215 13.1464 0.146447C13.2402 0.0526785 13.3674 0 13.5 0C13.6326 0 13.7598 0.0526785 13.8536 0.146447C13.9473 0.240215 14 0.367392 14 0.5V11.5C14 11.6326 13.9473 11.7598 13.8536 11.8536C13.7598 11.9473 13.6326 12 13.5 12ZM2.604 2L4.486 10H5.516L7 4.062L8.485 10H9.514L11.396 2H10.369L8.985 7.88L7.515 2H6.485L5.015 7.88L3.63 2H2.604Z" fill="white"/>
</svg>
