<svg width="16" height="16" viewBox="0 0 16 16" fill="none" xmlns="http://www.w3.org/2000/svg">
<path fill-rule="evenodd" clip-rule="evenodd" d="M2.34296 13.657C1.60007 12.9141 1.01078 12.0322 0.608735 11.0616C0.206687 10.0909 -0.000244133 9.05062 -0.000244141 8.00002C-0.000244148 6.94942 0.206687 5.90911 0.608735 4.93848C1.01078 3.96785 1.60007 3.08591 2.34296 2.34302C3.08585 1.60014 3.96779 1.01084 4.93842 0.608796C5.90905 0.206748 6.94936 -0.000183113 7.99996 -0.000183105C9.05056 -0.000183098 10.0909 0.206748 11.0615 0.608796C12.0321 1.01084 12.9141 1.60014 13.657 2.34302C15.1573 3.84335 16.0002 5.87824 16.0002 8.00002C16.0002 10.1218 15.1573 12.1567 13.657 13.657C12.1566 15.1574 10.1217 16.0002 7.99996 16.0002C5.87818 16.0002 3.84329 15.1574 2.34296 13.657ZM6.02996 4.97002C5.88779 4.83754 5.69974 4.76542 5.50544 4.76885C5.31114 4.77228 5.12575 4.85099 4.98834 4.9884C4.85093 5.12581 4.77221 5.3112 4.76879 5.5055C4.76536 5.6998 4.83748 5.88785 4.96996 6.03002L6.93996 8.00002L4.96996 9.97002C4.89628 10.0387 4.83717 10.1215 4.79618 10.2135C4.75519 10.3055 4.73315 10.4048 4.73137 10.5055C4.72959 10.6062 4.74812 10.7062 4.78584 10.7996C4.82356 10.893 4.8797 10.9778 4.95092 11.0491C5.02214 11.1203 5.10698 11.1764 5.20036 11.2141C5.29375 11.2519 5.39378 11.2704 5.49448 11.2686C5.59519 11.2668 5.6945 11.2448 5.7865 11.2038C5.8785 11.1628 5.9613 11.1037 6.02996 11.03L7.99996 9.06002L9.96996 11.03C10.0386 11.1037 10.1214 11.1628 10.2134 11.2038C10.3054 11.2448 10.4047 11.2668 10.5054 11.2686C10.6061 11.2704 10.7062 11.2519 10.7996 11.2141C10.8929 11.1764 10.9778 11.1203 11.049 11.0491C11.1202 10.9778 11.1764 10.893 11.2141 10.7996C11.2518 10.7062 11.2703 10.6062 11.2686 10.5055C11.2668 10.4048 11.2447 10.3055 11.2037 10.2135C11.1628 10.1215 11.1036 10.0387 11.03 9.97002L9.05996 8.00002L11.03 6.03002C11.1036 5.96136 11.1628 5.87856 11.2037 5.78656C11.2447 5.69456 11.2668 5.59525 11.2686 5.49455C11.2703 5.39384 11.2518 5.29381 11.2141 5.20043C11.1764 5.10704 11.1202 5.0222 11.049 4.95098C10.9778 4.87977 10.8929 4.82362 10.7996 4.7859C10.7062 4.74818 10.6061 4.72965 10.5054 4.73143C10.4047 4.73321 10.3054 4.75525 10.2134 4.79624C10.1214 4.83723 10.0386 4.89634 9.96996 4.97002L7.99996 6.94002L6.02996 4.97002Z" fill="#F85149"/>
</svg>
