<svg width="30" height="30" viewBox="0 0 30 30" fill="none" xmlns="http://www.w3.org/2000/svg">
<rect opacity="0.3" width="30" height="30" rx="15" fill="#D93025"/>
<path d="M21.8542 19.5208H9.3125V8.14583C9.3125 8.06563 9.24687 8 9.16667 8H8.14583C8.06562 8 8 8.06563 8 8.14583V20.6875C8 20.7677 8.06562 20.8333 8.14583 20.8333H21.8542C21.9344 20.8333 22 20.7677 22 20.6875V19.6667C22 19.5865 21.9344 19.5208 21.8542 19.5208ZM11.2411 16.7081C11.2977 16.7646 11.3888 16.7646 11.4471 16.7081L13.9682 14.1997L16.2943 16.5404C16.3508 16.5969 16.4437 16.5969 16.5003 16.5404L21.5206 11.5219C21.5771 11.4654 21.5771 11.3724 21.5206 11.3159L20.7987 10.594C20.7713 10.5669 20.7343 10.5516 20.6957 10.5516C20.6571 10.5516 20.6201 10.5669 20.5927 10.594L16.4 14.7849L14.0776 12.4479C14.0502 12.4208 14.0132 12.4056 13.9746 12.4056C13.936 12.4056 13.899 12.4208 13.8716 12.4479L10.5211 15.7784C10.494 15.8058 10.4787 15.8428 10.4787 15.8814C10.4787 15.92 10.494 15.957 10.5211 15.9844L11.2411 16.7081Z" fill="#D52222"/>
</svg>
