<svg width="30" height="30" viewBox="0 0 30 30" fill="none" xmlns="http://www.w3.org/2000/svg">
<rect opacity="0.3" width="30" height="30" rx="15" fill="#035AFC"/>
<path d="M11.9998 11.1111V9.94522C11.9998 8.87134 12.8392 8.00078 13.8747 8.00078H18.3534C18.453 7.99423 18.5566 8.02865 18.6396 8.11468L20.8894 10.448C20.9724 10.534 21.0056 10.6415 20.9992 10.7448V16.9452C20.9992 18.0191 20.1598 18.8897 19.1244 18.8897H17.9994V20.0556C17.9994 21.1294 17.16 22 16.1246 22H10.8749C9.83941 22 9 21.1294 9 20.0556V13.0556C9 11.9817 9.83941 11.1111 10.8749 11.1111H11.9998ZM11.9998 11.8889H10.8749C10.2536 11.8889 9.74995 12.4112 9.74995 13.0556V20.0556C9.74995 20.6999 10.2536 21.2222 10.8749 21.2222H16.1246C16.7458 21.2222 17.2495 20.6999 17.2495 20.0556V18.8897H15.3746C15.1675 18.8897 14.9996 18.7156 14.9996 18.5008C14.9996 18.286 15.1675 18.1119 15.3746 18.1119H19.1244C19.7456 18.1119 20.2493 17.5896 20.2493 16.9452V11.1119H18.3744C18.1673 11.1119 17.9994 10.9378 17.9994 10.723V8.77856H13.8747C13.2534 8.77856 12.7498 9.30089 12.7498 9.94522V13.8334C12.7498 14.0481 12.5819 14.2222 12.3748 14.2222H12.3748C12.1677 14.2222 11.9998 14.0481 11.9998 13.8333V11.8889ZM18.7494 10.3341H19.719L18.7494 9.32853V10.3341ZM15.9692 13.4444H14.6246C14.4176 13.4444 14.2497 13.2703 14.2497 13.0556C14.2497 12.8408 14.4176 12.6667 14.6246 12.6667H16.8745C17.0816 12.6667 17.2495 12.8408 17.2495 13.0556V15.3889C17.2495 15.6037 17.0816 15.7778 16.8745 15.7778C16.6674 15.7778 16.4995 15.6037 16.4995 15.3889V13.9944L12.6399 17.9972C12.4935 18.1491 12.2561 18.1491 12.1096 17.9972C11.9632 17.8453 11.9632 17.5991 12.1096 17.4472L15.9692 13.4444Z" fill="#035AFC"/>
</svg>
