<svg width="30" height="30" viewBox="0 0 30 30" fill="none" xmlns="http://www.w3.org/2000/svg">
<rect opacity="0.3" width="30" height="30" rx="15" fill="#77B3CD"/>
<path d="M22.4286 9H7.57143C7.25536 9 7 9.26406 7 9.59091V21.4091C7 21.7359 7.25536 22 7.57143 22H22.4286C22.7446 22 23 21.7359 23 21.4091V9.59091C23 9.26406 22.7446 9 22.4286 9ZM21.7143 12.8409H17.9286V10.3295H21.7143V12.8409ZM21.7143 16.9773H17.9286V14.0227H21.7143V16.9773ZM13.2143 14.0227H16.7857V16.9773H13.2143V14.0227ZM16.7857 12.8409H13.2143V10.3295H16.7857V12.8409ZM8.28571 14.0227H12.0714V16.9773H8.28571V14.0227ZM8.28571 10.3295H12.0714V12.8409H8.28571V10.3295ZM8.28571 18.1591H12.0714V20.6705H8.28571V18.1591ZM13.2143 18.1591H16.7857V20.6705H13.2143V18.1591ZM21.7143 20.6705H17.9286V18.1591H21.7143V20.6705Z" fill="#77B3CD"/>
</svg>
