<svg width="30" height="30" viewBox="0 0 30 30" fill="none" xmlns="http://www.w3.org/2000/svg">
<rect opacity="0.3" width="30" height="30" rx="15" fill="#DF9862"/>
<path d="M21.9579 20.9937L17.4132 16.449C18.1185 15.5372 18.5 14.4225 18.5 13.25C18.5 11.8465 17.9522 10.5305 16.9617 9.53824C15.9712 8.546 14.6517 8 13.25 8C11.8482 8 10.5287 8.54775 9.53824 9.53824C8.546 10.5287 8 11.8465 8 13.25C8 14.6517 8.54775 15.9712 9.53824 16.9617C10.5287 17.954 11.8465 18.5 13.25 18.5C14.4225 18.5 15.5355 18.1185 16.4472 17.415L20.9919 21.9579C21.0053 21.9713 21.0211 21.9819 21.0385 21.9891C21.0559 21.9963 21.0746 22 21.0934 22C21.1123 22 21.131 21.9963 21.1484 21.9891C21.1658 21.9819 21.1816 21.9713 21.1949 21.9579L21.9579 21.1967C21.9713 21.1834 21.9819 21.1675 21.9891 21.1501C21.9963 21.1327 22 21.114 22 21.0952C22 21.0763 21.9963 21.0577 21.9891 21.0403C21.9819 21.0228 21.9713 21.007 21.9579 20.9937ZM16.022 16.022C15.28 16.7622 14.2965 17.17 13.25 17.17C12.2035 17.17 11.22 16.7622 10.478 16.022C9.73774 15.28 9.32999 14.2965 9.32999 13.25C9.32999 12.2035 9.73774 11.2182 10.478 10.478C11.22 9.73774 12.2035 9.32999 13.25 9.32999C14.2965 9.32999 15.2817 9.73599 16.022 10.478C16.7622 11.22 17.17 12.2035 17.17 13.25C17.17 14.2965 16.7622 15.2817 16.022 16.022Z" fill="#DF9862"/>
</svg>
