<svg width="30" height="30" viewBox="0 0 30 30" fill="none" xmlns="http://www.w3.org/2000/svg">
<rect opacity="0.3" width="30" height="30" rx="15" fill="#DF9862"/>
<path d="M21.9561 12.173C22.0196 12.1074 22.0132 12.008 21.9434 11.9483C21.9125 11.9223 21.8727 11.9075 21.8312 11.9066H20.2943C20.2435 11.9066 20.1969 11.9264 20.1652 11.9622L17.5635 14.8489C17.5451 14.8696 17.5214 14.8855 17.4946 14.8952C17.4678 14.9049 17.4389 14.908 17.4105 14.9042C17.3821 14.9004 17.3551 14.8899 17.3323 14.8736C17.3094 14.8573 17.2914 14.8358 17.2798 14.8111L15.9356 12.002C15.9224 11.9739 15.9007 11.9501 15.8732 11.9335C15.8458 11.9169 15.8137 11.9083 15.7811 11.9085H12.2119L12.231 11.8151L12.4003 10.9742C12.6226 9.87276 13.2048 9.35586 14.2167 9.35586C14.6104 9.35586 14.9682 9.38966 15.2497 9.4493L15.5482 8.12127C15.0698 8.02783 14.803 8 14.386 8C12.1992 8 11.0752 8.88072 10.6624 10.9284L10.4634 11.9105H8.39727C8.31683 11.9105 8.24697 11.9642 8.23215 12.0378L8.00352 13.0676C7.99844 13.0908 7.99886 13.1147 8.00477 13.1377C8.01068 13.1607 8.02193 13.1821 8.0377 13.2006C8.05348 13.219 8.0734 13.2339 8.09604 13.2443C8.11867 13.2546 8.14347 13.2601 8.16864 13.2604H10.1649L8.28084 21.8072C8.27575 21.8303 8.27618 21.8542 8.28209 21.8772C8.288 21.9002 8.29924 21.9217 8.31502 21.9401C8.3308 21.9585 8.35072 21.9735 8.37335 21.9838C8.39599 21.9942 8.42078 21.9997 8.44596 22H9.84735C9.9278 22 9.99765 21.9463 10.0125 21.8728L11.9113 13.2624H14.7861L16.2298 16.0278C16.2595 16.0855 16.251 16.1551 16.2044 16.2028L12.3813 20.2386C12.3199 20.3042 12.3263 20.4056 12.3961 20.4632C12.4279 20.4891 12.4681 20.503 12.5083 20.503H14.0473C14.0981 20.503 14.1447 20.4831 14.1764 20.4473L16.7951 17.5308C16.8543 17.4632 16.9623 17.4553 17.0343 17.5109C17.0533 17.5268 17.0681 17.5447 17.0787 17.5666L18.4716 20.4036C18.4992 20.4592 18.5584 20.497 18.6262 20.497H19.9937C20.0224 20.4969 20.0506 20.49 20.0756 20.4769C20.1007 20.4639 20.1218 20.445 20.1371 20.4222C20.1523 20.3994 20.1611 20.3733 20.1627 20.3464C20.1643 20.3195 20.1586 20.2927 20.1461 20.2684L18.1308 16.3141C18.1012 16.2565 18.1118 16.1869 18.1583 16.1392L21.9561 12.173Z" fill="#DF9862"/>
</svg>
