<svg width="30" height="30" viewBox="0 0 30 30" fill="none" xmlns="http://www.w3.org/2000/svg">
<rect opacity="0.3" width="30" height="30" rx="15" fill="#77B3CD"/>
<path d="M21.44 8H8.56C8.25025 8 8 8.25025 8 8.56V21.44C8 21.7498 8.25025 22 8.56 22H14.86C14.937 22 15 21.937 15 21.86V20.88C15 20.803 14.937 20.74 14.86 20.74H9.26V9.26H20.74V14.86C20.74 14.937 20.803 15 20.88 15H21.86C21.937 15 22 14.937 22 14.86V8.56C22 8.25025 21.7498 8 21.44 8ZM17.4727 16.5295L18.3863 15.616C18.4048 15.5974 18.4177 15.574 18.4235 15.5484C18.4294 15.5228 18.4279 15.4961 18.4194 15.4713C18.4108 15.4465 18.3954 15.4247 18.3751 15.4082C18.3547 15.3916 18.33 15.3812 18.304 15.378L15.1645 15.0105C15.0753 15 14.9983 15.0753 15.0088 15.1663L15.3763 18.3058C15.3903 18.4213 15.532 18.4702 15.6142 18.388L16.5313 17.471L21.0148 21.9545C21.069 22.0088 21.1583 22.0088 21.2125 21.9545L21.9545 21.2125C22.0088 21.1583 22.0088 21.069 21.9545 21.0148L17.4727 16.5295Z" fill="#77B3CD"/>
</svg>
