<svg width="30" height="30" viewBox="0 0 30 30" fill="none" xmlns="http://www.w3.org/2000/svg">
<rect opacity="0.3" width="30" height="30" rx="15" fill="#D93025"/>
<path d="M12.2292 9.26H12.0833C12.1635 9.26 12.2292 9.197 12.2292 9.12V9.26H17.7708V9.12C17.7708 9.197 17.8365 9.26 17.9167 9.26H17.7708V10.52H19.0833V9.12C19.0833 8.50225 18.5602 8 17.9167 8H12.0833C11.4398 8 10.9167 8.50225 10.9167 9.12V10.52H12.2292V9.26ZM21.4167 10.52H8.58333C8.26068 10.52 8 10.7702 8 11.08V11.64C8 11.717 8.06562 11.78 8.14583 11.78H9.24687L9.69714 20.9325C9.7263 21.5293 10.2404 22 10.862 22H19.138C19.7615 22 20.2737 21.531 20.3029 20.9325L20.7531 11.78H21.8542C21.9344 11.78 22 11.717 22 11.64V11.08C22 10.7702 21.7393 10.52 21.4167 10.52ZM18.9977 20.74H11.0023L10.5612 11.78H19.4388L18.9977 20.74Z" fill="#D52222"/>
</svg>
