<svg width="30" height="30" viewBox="0 0 30 30" fill="none" xmlns="http://www.w3.org/2000/svg">
<rect opacity="0.3" width="30" height="30" rx="15" fill="#DF9862"/>
<path d="M14.9895 8.00001C11.1237 8.00542 8 11.2294 8 15.2147C8 17.524 9.0535 19.5807 10.6915 20.9013L10.0352 21.7673C9.9635 21.8629 10.03 22.0018 10.1455 22L13.068 21.9855C13.159 21.9855 13.2255 21.8971 13.2027 21.8069L12.5115 18.8789C12.5053 18.8525 12.4919 18.8284 12.473 18.8095C12.4541 18.7906 12.4304 18.7775 12.4046 18.7719C12.3788 18.7662 12.352 18.7682 12.3273 18.7775C12.3026 18.7869 12.2809 18.8032 12.2648 18.8247L11.5525 19.7647C11.374 19.6203 11.2025 19.4634 11.0398 19.2956C10.5281 18.7699 10.1204 18.1468 9.83925 17.4608C9.547 16.75 9.4 15.9941 9.4 15.2147C9.4 14.4353 9.547 13.6794 9.83925 12.9686C10.121 12.2812 10.5253 11.6642 11.0398 11.1338C11.5543 10.6034 12.1528 10.1866 12.8195 9.89614C13.5107 9.59485 14.244 9.4433 15 9.4433C15.756 9.4433 16.4893 9.59485 17.1788 9.89614C17.8455 10.1866 18.444 10.6034 18.9585 11.1338C19.473 11.6642 19.8772 12.2812 20.159 12.9686C20.4513 13.6794 20.5983 14.4353 20.5983 15.2147C20.5983 15.9941 20.4513 16.75 20.159 17.4608C19.8779 18.1468 19.4702 18.7699 18.9585 19.2956C18.8273 19.4309 18.6908 19.5572 18.549 19.6781C18.5206 19.7019 18.5025 19.7362 18.4985 19.7738C18.4946 19.8113 18.5052 19.8488 18.528 19.8783L19.2175 20.7894C19.2665 20.8526 19.3558 20.8634 19.417 20.8129C20.9938 19.4886 22 17.4734 22 15.2147C22 11.2258 18.8605 7.99459 14.9895 8.00001Z" fill="#DF9862"/>
</svg>
