<svg width="30" height="31" viewBox="0 0 30 31" fill="none" xmlns="http://www.w3.org/2000/svg">
<rect opacity="0.3" y="0.5" width="30" height="30" rx="15" fill="#8AB4F8"/>
<path d="M9.26671 15.37C9.28337 14.6417 9.43337 13.935 9.71504 13.27C10.0034 12.5867 10.4167 11.975 10.9434 11.4467C11.47 10.9183 12.0834 10.505 12.7667 10.2167C13.4734 9.91833 14.2234 9.76667 14.9984 9.76667C15.7734 9.76667 16.5234 9.91833 17.2284 10.2167C17.9097 10.5044 18.5285 10.9222 19.05 11.4467C19.215 11.6117 19.37 11.7867 19.5134 11.97L18.51 12.7533C18.4902 12.7687 18.4751 12.7893 18.4664 12.8129C18.4578 12.8365 18.456 12.862 18.4612 12.8865C18.4664 12.9111 18.4785 12.9337 18.496 12.9517C18.5134 12.9697 18.5357 12.9824 18.56 12.9883L21.4884 13.705C21.5717 13.725 21.6534 13.6617 21.6534 13.5767L21.6667 10.5617C21.6667 10.45 21.5384 10.3867 21.4517 10.4567L20.5117 11.1917C19.23 9.55167 17.2367 8.5 14.9967 8.5C11.1784 8.5 8.07171 11.56 8.00004 15.3633C7.9996 15.3811 8.00272 15.3988 8.00922 15.4154C8.01572 15.4319 8.02547 15.447 8.0379 15.4598C8.05032 15.4725 8.06517 15.4826 8.08157 15.4895C8.09797 15.4965 8.11558 15.5 8.13338 15.5H9.13337C9.20671 15.5 9.26504 15.4417 9.26671 15.37ZM21.8667 15.5H20.8667C20.7934 15.5 20.735 15.5583 20.7334 15.63C20.7167 16.3583 20.5667 17.065 20.285 17.73C19.9967 18.4133 19.5834 19.0267 19.0567 19.5533C18.5251 20.0871 17.8931 20.5104 17.1972 20.7987C16.5012 21.0871 15.755 21.2348 15.0017 21.2333C14.2486 21.2347 13.5027 21.087 12.807 20.7987C12.1114 20.5103 11.4796 20.0871 10.9484 19.5533C10.7834 19.3883 10.6284 19.2133 10.485 19.03L11.4884 18.2467C11.5082 18.2313 11.5233 18.2107 11.532 18.1871C11.5406 18.1635 11.5424 18.138 11.5372 18.1135C11.532 18.0889 11.5199 18.0663 11.5025 18.0483C11.485 18.0303 11.4628 18.0176 11.4384 18.0117L8.51004 17.295C8.42671 17.275 8.34504 17.3383 8.34504 17.4233L8.33337 20.44C8.33337 20.5517 8.46171 20.615 8.54838 20.545L9.48838 19.81C10.77 21.4483 12.7634 22.5 15.0034 22.5C18.8234 22.5 21.9284 19.4383 22 15.6367C22.0005 15.6189 21.9974 15.6012 21.9909 15.5846C21.9844 15.5681 21.9746 15.553 21.9622 15.5402C21.9498 15.5275 21.9349 15.5174 21.9185 15.5105C21.9021 15.5036 21.8845 15.5 21.8667 15.5V15.5Z" fill="#77B3CD"/>
</svg>
