<svg width="30" height="30" viewBox="0 0 30 30" fill="none" xmlns="http://www.w3.org/2000/svg">
<rect opacity="0.3" width="30" height="30" rx="15" fill="#28A745"/>
<path d="M15 8C11.1344 8 8 11.1344 8 15C8 18.8656 11.1344 22 15 22C18.8656 22 22 18.8656 22 15C22 11.1344 18.8656 8 15 8ZM15 20.8125C11.7906 20.8125 9.1875 18.2094 9.1875 15C9.1875 11.7906 11.7906 9.1875 15 9.1875C18.2094 9.1875 20.8125 11.7906 20.8125 15C20.8125 18.2094 18.2094 20.8125 15 20.8125Z" fill="#28A745"/>
<path d="M18.2406 14.7983L13.6141 11.4389C13.577 11.4117 13.533 11.3954 13.4872 11.3917C13.4413 11.388 13.3953 11.3971 13.3543 11.418C13.3133 11.4389 13.279 11.4707 13.255 11.51C13.2311 11.5493 13.2185 11.5945 13.2188 11.6405V18.3592C13.2188 18.5639 13.45 18.6796 13.6141 18.5608L18.2406 15.2014C18.2726 15.1784 18.2986 15.1481 18.3165 15.1131C18.3345 15.0781 18.3438 15.0392 18.3438 14.9999C18.3438 14.9605 18.3345 14.9217 18.3165 14.8867C18.2986 14.8516 18.2726 14.8213 18.2406 14.7983ZM14.2156 16.8921V13.1077L16.8203 14.9999L14.2156 16.8921Z" fill="#28A745"/>
<path d="M14.2156 16.8921V13.1077L16.8203 14.9999L14.2156 16.8921Z" fill="#28A745"/>
</svg>
