<svg width="30" height="30" viewBox="0 0 30 30" fill="none" xmlns="http://www.w3.org/2000/svg">
<rect opacity="0.3" width="30" height="30" rx="15" fill="#77B3CD"/>
<path d="M21.8151 16.7795L20.734 15.9045C20.7852 15.6076 20.8116 15.3044 20.8116 15.0013C20.8116 14.6981 20.7852 14.395 20.734 14.0981L21.8151 13.223C21.8967 13.1569 21.955 13.0689 21.9825 12.9707C22.0099 12.8724 22.0051 12.7686 21.9686 12.673L21.9538 12.6324C21.6562 11.8448 21.2105 11.1148 20.6383 10.4775L20.6086 10.4447C20.5392 10.3674 20.4467 10.3119 20.3432 10.2854C20.2398 10.2589 20.1303 10.2627 20.0292 10.2963L18.6873 10.7478C18.1922 10.3634 17.6392 10.0603 17.0417 9.84778L16.7826 8.51957C16.763 8.41963 16.7118 8.32768 16.6358 8.25595C16.5597 8.18422 16.4624 8.1361 16.3568 8.11798L16.3122 8.11016C15.4523 7.96328 14.5477 7.96328 13.6878 8.11016L13.6432 8.11798C13.5376 8.1361 13.4403 8.18422 13.3642 8.25595C13.2882 8.32768 13.237 8.41963 13.2174 8.51957L12.9566 9.85403C12.3639 10.0666 11.8119 10.3696 11.3226 10.751L9.97076 10.2963C9.86969 10.2624 9.76014 10.2585 9.65666 10.285C9.55317 10.3115 9.46066 10.3672 9.39142 10.4447L9.36171 10.4775C8.7902 11.1153 8.3446 11.8452 8.04622 12.6324L8.03136 12.673C7.95709 12.8683 8.01816 13.0871 8.18487 13.223L9.27918 14.1075C9.22802 14.4012 9.20326 14.7012 9.20326 14.9997C9.20326 15.2997 9.22802 15.5997 9.27918 15.892L8.18487 16.7764C8.10332 16.8425 8.04496 16.9305 8.01754 17.0288C7.99012 17.127 7.99494 17.2308 8.03136 17.3264L8.04622 17.3671C8.34497 18.1546 8.78732 18.8812 9.36171 19.5219L9.39142 19.5547C9.46083 19.632 9.55335 19.6875 9.65677 19.714C9.76019 19.7405 9.86966 19.7367 9.97076 19.7032L11.3226 19.2484C11.8144 19.6313 12.3641 19.9344 12.9566 20.1454L13.2174 21.4798C13.237 21.5798 13.2882 21.6717 13.3642 21.7435C13.4403 21.8152 13.5376 21.8633 13.6432 21.8814L13.6878 21.8892C14.5557 22.0369 15.4444 22.0369 16.3122 21.8892L16.3568 21.8814C16.4624 21.8633 16.5597 21.8152 16.6358 21.7435C16.7118 21.6717 16.763 21.5798 16.7826 21.4798L17.0417 20.1516C17.639 19.9397 18.195 19.6355 18.6873 19.2516L20.0292 19.7032C20.1303 19.737 20.2399 19.7409 20.3433 19.7144C20.4468 19.6879 20.5393 19.6322 20.6086 19.5547L20.6383 19.5219C21.2127 18.8797 21.655 18.1546 21.9538 17.3671L21.9686 17.3264C22.0429 17.1342 21.9818 16.9155 21.8151 16.7795ZM19.5621 14.2825C19.6034 14.5184 19.6249 14.7606 19.6249 15.0028C19.6249 15.245 19.6034 15.4872 19.5621 15.7232L19.4532 16.3498L20.6862 17.3483C20.4992 17.756 20.2633 18.1419 19.983 18.4984L18.4513 17.9843L17.933 18.3874C17.5386 18.6937 17.0995 18.9344 16.6241 19.1031L15.9953 19.3266L15.6998 20.8423C15.2337 20.8923 14.763 20.8923 14.2969 20.8423L14.0014 19.3234L13.3775 19.0969C12.9071 18.9281 12.4697 18.6875 12.0785 18.3828L11.5602 17.978L10.0186 18.4968C9.73804 18.139 9.50366 17.753 9.31549 17.3467L10.5617 16.3389L10.4544 15.7138C10.4148 15.481 10.3933 15.2403 10.3933 15.0028C10.3933 14.7638 10.4131 14.5247 10.4544 14.2918L10.5617 13.6668L9.31549 12.6589C9.50201 12.2511 9.73804 11.8667 10.0186 11.5088L11.5602 12.0276L12.0785 11.6229C12.4697 11.3182 12.9071 11.0776 13.3775 10.9088L14.0031 10.6853L14.2985 9.16649C14.7623 9.11648 15.236 9.11648 15.7015 9.16649L15.9969 10.6822L16.6258 10.9057C17.0995 11.0744 17.5402 11.3151 17.9347 11.6213L18.453 12.0245L19.9847 11.5104C20.2653 11.8682 20.4996 12.2542 20.6878 12.6605L19.4548 13.659L19.5621 14.2825ZM15.0017 12.0964C13.3973 12.0964 12.0967 13.3277 12.0967 14.8466C12.0967 16.3654 13.3973 17.5968 15.0017 17.5968C16.606 17.5968 17.9066 16.3654 17.9066 14.8466C17.9066 13.3277 16.606 12.0964 15.0017 12.0964ZM16.3089 16.0842C16.1374 16.2469 15.9337 16.376 15.7093 16.464C15.485 16.552 15.2445 16.597 15.0017 16.5967C14.5081 16.5967 14.0443 16.4139 13.6944 16.0842C13.5225 15.9218 13.3861 15.7289 13.2932 15.5165C13.2003 15.3041 13.1527 15.0765 13.153 14.8466C13.153 14.3793 13.3461 13.9403 13.6944 13.609C14.0443 13.2777 14.5081 13.0964 15.0017 13.0964C15.4952 13.0964 15.959 13.2777 16.3089 13.609C16.4808 13.7713 16.6172 13.9642 16.7101 14.1766C16.803 14.389 16.8506 14.6167 16.8503 14.8466C16.8503 15.3138 16.6572 15.7529 16.3089 16.0842Z" fill="#77B3CD"/>
</svg>
