<svg width="30" height="30" viewBox="0 0 30 30" fill="none" xmlns="http://www.w3.org/2000/svg">
<rect opacity="0.3" width="30" height="30" rx="15" fill="#DF9862"/>
<path d="M9.2667 14.87C9.28337 14.1416 9.43337 13.435 9.71503 12.77C10.0034 12.0866 10.4167 11.475 10.9434 10.9466C11.47 10.4183 12.0834 10.005 12.7667 9.71666C13.4733 9.41832 14.2233 9.26666 14.9983 9.26666C15.7733 9.26666 16.5233 9.41832 17.2283 9.71666C17.9097 10.0044 18.5284 10.4222 19.05 10.9466C19.215 11.1116 19.37 11.2866 19.5133 11.47L18.51 12.2533C18.4901 12.2687 18.475 12.2893 18.4664 12.3129C18.4577 12.3364 18.4559 12.362 18.4611 12.3865C18.4664 12.4111 18.4784 12.4336 18.4959 12.4516C18.5134 12.4697 18.5356 12.4824 18.56 12.4883L21.4883 13.205C21.5716 13.225 21.6533 13.1616 21.6533 13.0766L21.6666 10.0617C21.6666 9.94999 21.5383 9.88666 21.4516 9.95665L20.5116 10.6917C19.23 9.05166 17.2367 8 14.9967 8C11.1784 8 8.07171 11.06 8.00004 14.8633C7.9996 14.8811 8.00272 14.8988 8.00922 14.9153C8.01572 14.9319 8.02547 14.947 8.0379 14.9597C8.05032 14.9725 8.06517 14.9826 8.08157 14.9895C8.09797 14.9964 8.11558 15 8.13337 15H9.13337C9.2067 15 9.26503 14.9416 9.2667 14.87ZM21.8666 15H20.8666C20.7933 15 20.735 15.0583 20.7333 15.13C20.7166 15.8583 20.5666 16.5649 20.285 17.2299C19.9966 17.9133 19.5833 18.5266 19.0566 19.0533C18.5251 19.587 17.8931 20.0103 17.1971 20.2986C16.5011 20.587 15.755 20.7347 15.0017 20.7333C14.2486 20.7347 13.5027 20.5869 12.807 20.2986C12.1113 20.0103 11.4796 19.587 10.9484 19.0533C10.7834 18.8883 10.6284 18.7133 10.485 18.5299L11.4884 17.7466C11.5082 17.7313 11.5233 17.7106 11.532 17.687C11.5406 17.6635 11.5424 17.6379 11.5372 17.6134C11.532 17.5889 11.5199 17.5663 11.5024 17.5483C11.4849 17.5303 11.4627 17.5176 11.4384 17.5116L8.51004 16.7949C8.42671 16.7749 8.34504 16.8383 8.34504 16.9233L8.33337 19.9399C8.33337 20.0516 8.46171 20.1149 8.54837 20.0449L9.48837 19.3099C10.77 20.9483 12.7633 21.9999 15.0033 21.9999C18.8233 21.9999 21.9283 18.9383 22 15.1366C22.0004 15.1188 21.9973 15.1011 21.9908 15.0846C21.9843 15.068 21.9745 15.0529 21.9621 15.0402C21.9497 15.0274 21.9348 15.0173 21.9184 15.0104C21.902 15.0035 21.8844 15 21.8666 15Z" fill="#DF9862"/>
</svg>
