<svg width="30" height="30" viewBox="0 0 30 30" fill="none" xmlns="http://www.w3.org/2000/svg">
<rect opacity="0.3" width="30" height="30" rx="15" fill="#DF9862"/>
<path d="M14.1433 17.7143C14.1433 17.9416 14.2336 18.1596 14.3944 18.3204C14.5551 18.4811 14.7731 18.5714 15.0005 18.5714C15.2278 18.5714 15.4458 18.4811 15.6065 18.3204C15.7673 18.1596 15.8576 17.9416 15.8576 17.7143C15.8576 17.487 15.7673 17.2689 15.6065 17.1082C15.4458 16.9474 15.2278 16.8571 15.0005 16.8571C14.7731 16.8571 14.5551 16.9474 14.3944 17.1082C14.2336 17.2689 14.1433 17.487 14.1433 17.7143ZM14.429 12.2857V15.5714C14.429 15.65 14.4933 15.7143 14.5719 15.7143H15.429C15.5076 15.7143 15.5719 15.65 15.5719 15.5714V12.2857C15.5719 12.2071 15.5076 12.1429 15.429 12.1429H14.5719C14.4933 12.1429 14.429 12.2071 14.429 12.2857ZM22.9237 20.1429L15.4951 7.28571C15.3844 7.09464 15.1933 7 15.0005 7C14.8076 7 14.6147 7.09464 14.5058 7.28571L7.07724 20.1429C6.8576 20.525 7.1326 21 7.57188 21H22.429C22.8683 21 23.1433 20.525 22.9237 20.1429ZM8.9326 19.6446L15.0005 9.14107L21.0683 19.6446H8.9326Z" fill="#DF9862"/>
</svg>
